<?xml version="1.0" encoding="utf-8" standalone="no"?>
<!DOCTYPE svg PUBLIC "-//W3C//DTD SVG 1.1//EN"
  "http://www.w3.org/Graphics/SVG/1.1/DTD/svg11.dtd">
<!-- Created with matplotlib (https://matplotlib.org/) -->
<svg height="352.251399pt" version="1.1" viewBox="0 0 1670.159375 352.251399" width="1670.159375pt" xmlns="http://www.w3.org/2000/svg" xmlns:xlink="http://www.w3.org/1999/xlink">
 <defs>
  <style type="text/css">
*{stroke-linecap:butt;stroke-linejoin:round;white-space:pre;}
  </style>
 </defs>
 <g id="figure_1">
  <g id="patch_1">
   <path d="M 0 352.251399 
L 1670.159375 352.251399 
L 1670.159375 0 
L 0 0 
z
" style="fill:#ffffff;"/>
  </g>
  <g id="axes_1">
   <g id="patch_2">
    <path d="M 100.559375 279 
L 1662.959375 279 
L 1662.959375 7.2 
L 100.559375 7.2 
z
" style="fill:#ffffff;"/>
   </g>
   <g id="matplotlib.axis_1">
    <g id="xtick_1">
     <g id="text_1">
      <!-- 0 -->
      <defs>
       <path d="M 31.78125 66.40625 
Q 24.171875 66.40625 20.328125 58.90625 
Q 16.5 51.421875 16.5 36.375 
Q 16.5 21.390625 20.328125 13.890625 
Q 24.171875 6.390625 31.78125 6.390625 
Q 39.453125 6.390625 43.28125 13.890625 
Q 47.125 21.390625 47.125 36.375 
Q 47.125 51.421875 43.28125 58.90625 
Q 39.453125 66.40625 31.78125 66.40625 
z
M 31.78125 74.21875 
Q 44.046875 74.21875 50.515625 64.515625 
Q 56.984375 54.828125 56.984375 36.375 
Q 56.984375 17.96875 50.515625 8.265625 
Q 44.046875 -1.421875 31.78125 -1.421875 
Q 19.53125 -1.421875 13.0625 8.265625 
Q 6.59375 17.96875 6.59375 36.375 
Q 6.59375 54.828125 13.0625 64.515625 
Q 19.53125 74.21875 31.78125 74.21875 
z
" id="DejaVuSans-48"/>
      </defs>
      <g style="fill:#262626;" transform="translate(177.933598 313.179684)rotate(-45)scale(0.25 -0.25)">
       <use xlink:href="#DejaVuSans-48"/>
      </g>
     </g>
    </g>
    <g id="xtick_2">
     <g id="text_2">
      <!-- 1 -->
      <defs>
       <path d="M 12.40625 8.296875 
L 28.515625 8.296875 
L 28.515625 63.921875 
L 10.984375 60.40625 
L 10.984375 69.390625 
L 28.421875 72.90625 
L 38.28125 72.90625 
L 38.28125 8.296875 
L 54.390625 8.296875 
L 54.390625 0 
L 12.40625 0 
z
" id="DejaVuSans-49"/>
      </defs>
      <g style="fill:#262626;" transform="translate(334.173598 313.179684)rotate(-45)scale(0.25 -0.25)">
       <use xlink:href="#DejaVuSans-49"/>
      </g>
     </g>
    </g>
    <g id="xtick_3">
     <g id="text_3">
      <!-- 2 -->
      <defs>
       <path d="M 19.1875 8.296875 
L 53.609375 8.296875 
L 53.609375 0 
L 7.328125 0 
L 7.328125 8.296875 
Q 12.9375 14.109375 22.625 23.890625 
Q 32.328125 33.6875 34.8125 36.53125 
Q 39.546875 41.84375 41.421875 45.53125 
Q 43.3125 49.21875 43.3125 52.78125 
Q 43.3125 58.59375 39.234375 62.25 
Q 35.15625 65.921875 28.609375 65.921875 
Q 23.96875 65.921875 18.8125 64.3125 
Q 13.671875 62.703125 7.8125 59.421875 
L 7.8125 69.390625 
Q 13.765625 71.78125 18.9375 73 
Q 24.125 74.21875 28.421875 74.21875 
Q 39.75 74.21875 46.484375 68.546875 
Q 53.21875 62.890625 53.21875 53.421875 
Q 53.21875 48.921875 51.53125 44.890625 
Q 49.859375 40.875 45.40625 35.40625 
Q 44.1875 33.984375 37.640625 27.21875 
Q 31.109375 20.453125 19.1875 8.296875 
z
" id="DejaVuSans-50"/>
      </defs>
      <g style="fill:#262626;" transform="translate(490.413598 313.179684)rotate(-45)scale(0.25 -0.25)">
       <use xlink:href="#DejaVuSans-50"/>
      </g>
     </g>
    </g>
    <g id="xtick_4">
     <g id="text_4">
      <!-- 3 -->
      <defs>
       <path d="M 40.578125 39.3125 
Q 47.65625 37.796875 51.625 33 
Q 55.609375 28.21875 55.609375 21.1875 
Q 55.609375 10.40625 48.1875 4.484375 
Q 40.765625 -1.421875 27.09375 -1.421875 
Q 22.515625 -1.421875 17.65625 -0.515625 
Q 12.796875 0.390625 7.625 2.203125 
L 7.625 11.71875 
Q 11.71875 9.328125 16.59375 8.109375 
Q 21.484375 6.890625 26.8125 6.890625 
Q 36.078125 6.890625 40.9375 10.546875 
Q 45.796875 14.203125 45.796875 21.1875 
Q 45.796875 27.640625 41.28125 31.265625 
Q 36.765625 34.90625 28.71875 34.90625 
L 20.21875 34.90625 
L 20.21875 43.015625 
L 29.109375 43.015625 
Q 36.375 43.015625 40.234375 45.921875 
Q 44.09375 48.828125 44.09375 54.296875 
Q 44.09375 59.90625 40.109375 62.90625 
Q 36.140625 65.921875 28.71875 65.921875 
Q 24.65625 65.921875 20.015625 65.03125 
Q 15.375 64.15625 9.8125 62.3125 
L 9.8125 71.09375 
Q 15.4375 72.65625 20.34375 73.4375 
Q 25.25 74.21875 29.59375 74.21875 
Q 40.828125 74.21875 47.359375 69.109375 
Q 53.90625 64.015625 53.90625 55.328125 
Q 53.90625 49.265625 50.4375 45.09375 
Q 46.96875 40.921875 40.578125 39.3125 
z
" id="DejaVuSans-51"/>
      </defs>
      <g style="fill:#262626;" transform="translate(646.653598 313.179684)rotate(-45)scale(0.25 -0.25)">
       <use xlink:href="#DejaVuSans-51"/>
      </g>
     </g>
    </g>
    <g id="xtick_5">
     <g id="text_5">
      <!-- 4 -->
      <defs>
       <path d="M 37.796875 64.3125 
L 12.890625 25.390625 
L 37.796875 25.390625 
z
M 35.203125 72.90625 
L 47.609375 72.90625 
L 47.609375 25.390625 
L 58.015625 25.390625 
L 58.015625 17.1875 
L 47.609375 17.1875 
L 47.609375 0 
L 37.796875 0 
L 37.796875 17.1875 
L 4.890625 17.1875 
L 4.890625 26.703125 
z
" id="DejaVuSans-52"/>
      </defs>
      <g style="fill:#262626;" transform="translate(802.893598 313.179684)rotate(-45)scale(0.25 -0.25)">
       <use xlink:href="#DejaVuSans-52"/>
      </g>
     </g>
    </g>
    <g id="xtick_6">
     <g id="text_6">
      <!-- 5 -->
      <defs>
       <path d="M 10.796875 72.90625 
L 49.515625 72.90625 
L 49.515625 64.59375 
L 19.828125 64.59375 
L 19.828125 46.734375 
Q 21.96875 47.46875 24.109375 47.828125 
Q 26.265625 48.1875 28.421875 48.1875 
Q 40.625 48.1875 47.75 41.5 
Q 54.890625 34.8125 54.890625 23.390625 
Q 54.890625 11.625 47.5625 5.09375 
Q 40.234375 -1.421875 26.90625 -1.421875 
Q 22.3125 -1.421875 17.546875 -0.640625 
Q 12.796875 0.140625 7.71875 1.703125 
L 7.71875 11.625 
Q 12.109375 9.234375 16.796875 8.0625 
Q 21.484375 6.890625 26.703125 6.890625 
Q 35.15625 6.890625 40.078125 11.328125 
Q 45.015625 15.765625 45.015625 23.390625 
Q 45.015625 31 40.078125 35.4375 
Q 35.15625 39.890625 26.703125 39.890625 
Q 22.75 39.890625 18.8125 39.015625 
Q 14.890625 38.140625 10.796875 36.28125 
z
" id="DejaVuSans-53"/>
      </defs>
      <g style="fill:#262626;" transform="translate(959.133598 313.179684)rotate(-45)scale(0.25 -0.25)">
       <use xlink:href="#DejaVuSans-53"/>
      </g>
     </g>
    </g>
    <g id="xtick_7">
     <g id="text_7">
      <!-- 6 -->
      <defs>
       <path d="M 33.015625 40.375 
Q 26.375 40.375 22.484375 35.828125 
Q 18.609375 31.296875 18.609375 23.390625 
Q 18.609375 15.53125 22.484375 10.953125 
Q 26.375 6.390625 33.015625 6.390625 
Q 39.65625 6.390625 43.53125 10.953125 
Q 47.40625 15.53125 47.40625 23.390625 
Q 47.40625 31.296875 43.53125 35.828125 
Q 39.65625 40.375 33.015625 40.375 
z
M 52.59375 71.296875 
L 52.59375 62.3125 
Q 48.875 64.0625 45.09375 64.984375 
Q 41.3125 65.921875 37.59375 65.921875 
Q 27.828125 65.921875 22.671875 59.328125 
Q 17.53125 52.734375 16.796875 39.40625 
Q 19.671875 43.65625 24.015625 45.921875 
Q 28.375 48.1875 33.59375 48.1875 
Q 44.578125 48.1875 50.953125 41.515625 
Q 57.328125 34.859375 57.328125 23.390625 
Q 57.328125 12.15625 50.6875 5.359375 
Q 44.046875 -1.421875 33.015625 -1.421875 
Q 20.359375 -1.421875 13.671875 8.265625 
Q 6.984375 17.96875 6.984375 36.375 
Q 6.984375 53.65625 15.1875 63.9375 
Q 23.390625 74.21875 37.203125 74.21875 
Q 40.921875 74.21875 44.703125 73.484375 
Q 48.484375 72.75 52.59375 71.296875 
z
" id="DejaVuSans-54"/>
      </defs>
      <g style="fill:#262626;" transform="translate(1115.373598 313.179684)rotate(-45)scale(0.25 -0.25)">
       <use xlink:href="#DejaVuSans-54"/>
      </g>
     </g>
    </g>
    <g id="xtick_8">
     <g id="text_8">
      <!-- 7 -->
      <defs>
       <path d="M 8.203125 72.90625 
L 55.078125 72.90625 
L 55.078125 68.703125 
L 28.609375 0 
L 18.3125 0 
L 43.21875 64.59375 
L 8.203125 64.59375 
z
" id="DejaVuSans-55"/>
      </defs>
      <g style="fill:#262626;" transform="translate(1271.613598 313.179684)rotate(-45)scale(0.25 -0.25)">
       <use xlink:href="#DejaVuSans-55"/>
      </g>
     </g>
    </g>
    <g id="xtick_9">
     <g id="text_9">
      <!-- 8 -->
      <defs>
       <path d="M 31.78125 34.625 
Q 24.75 34.625 20.71875 30.859375 
Q 16.703125 27.09375 16.703125 20.515625 
Q 16.703125 13.921875 20.71875 10.15625 
Q 24.75 6.390625 31.78125 6.390625 
Q 38.8125 6.390625 42.859375 10.171875 
Q 46.921875 13.96875 46.921875 20.515625 
Q 46.921875 27.09375 42.890625 30.859375 
Q 38.875 34.625 31.78125 34.625 
z
M 21.921875 38.8125 
Q 15.578125 40.375 12.03125 44.71875 
Q 8.5 49.078125 8.5 55.328125 
Q 8.5 64.0625 14.71875 69.140625 
Q 20.953125 74.21875 31.78125 74.21875 
Q 42.671875 74.21875 48.875 69.140625 
Q 55.078125 64.0625 55.078125 55.328125 
Q 55.078125 49.078125 51.53125 44.71875 
Q 48 40.375 41.703125 38.8125 
Q 48.828125 37.15625 52.796875 32.3125 
Q 56.78125 27.484375 56.78125 20.515625 
Q 56.78125 9.90625 50.3125 4.234375 
Q 43.84375 -1.421875 31.78125 -1.421875 
Q 19.734375 -1.421875 13.25 4.234375 
Q 6.78125 9.90625 6.78125 20.515625 
Q 6.78125 27.484375 10.78125 32.3125 
Q 14.796875 37.15625 21.921875 38.8125 
z
M 18.3125 54.390625 
Q 18.3125 48.734375 21.84375 45.5625 
Q 25.390625 42.390625 31.78125 42.390625 
Q 38.140625 42.390625 41.71875 45.5625 
Q 45.3125 48.734375 45.3125 54.390625 
Q 45.3125 60.0625 41.71875 63.234375 
Q 38.140625 66.40625 31.78125 66.40625 
Q 25.390625 66.40625 21.84375 63.234375 
Q 18.3125 60.0625 18.3125 54.390625 
z
" id="DejaVuSans-56"/>
      </defs>
      <g style="fill:#262626;" transform="translate(1427.853598 313.179684)rotate(-45)scale(0.25 -0.25)">
       <use xlink:href="#DejaVuSans-56"/>
      </g>
     </g>
    </g>
    <g id="xtick_10">
     <g id="text_10">
      <!-- 9 -->
      <defs>
       <path d="M 10.984375 1.515625 
L 10.984375 10.5 
Q 14.703125 8.734375 18.5 7.8125 
Q 22.3125 6.890625 25.984375 6.890625 
Q 35.75 6.890625 40.890625 13.453125 
Q 46.046875 20.015625 46.78125 33.40625 
Q 43.953125 29.203125 39.59375 26.953125 
Q 35.25 24.703125 29.984375 24.703125 
Q 19.046875 24.703125 12.671875 31.3125 
Q 6.296875 37.9375 6.296875 49.421875 
Q 6.296875 60.640625 12.9375 67.421875 
Q 19.578125 74.21875 30.609375 74.21875 
Q 43.265625 74.21875 49.921875 64.515625 
Q 56.59375 54.828125 56.59375 36.375 
Q 56.59375 19.140625 48.40625 8.859375 
Q 40.234375 -1.421875 26.421875 -1.421875 
Q 22.703125 -1.421875 18.890625 -0.6875 
Q 15.09375 0.046875 10.984375 1.515625 
z
M 30.609375 32.421875 
Q 37.25 32.421875 41.125 36.953125 
Q 45.015625 41.5 45.015625 49.421875 
Q 45.015625 57.28125 41.125 61.84375 
Q 37.25 66.40625 30.609375 66.40625 
Q 23.96875 66.40625 20.09375 61.84375 
Q 16.21875 57.28125 16.21875 49.421875 
Q 16.21875 41.5 20.09375 36.953125 
Q 23.96875 32.421875 30.609375 32.421875 
z
" id="DejaVuSans-57"/>
      </defs>
      <g style="fill:#262626;" transform="translate(1584.093598 313.179684)rotate(-45)scale(0.25 -0.25)">
       <use xlink:href="#DejaVuSans-57"/>
      </g>
     </g>
    </g>
    <g id="text_11">
     <!-- MNIST Class -->
     <defs>
      <path d="M 9.8125 72.90625 
L 24.515625 72.90625 
L 43.109375 23.296875 
L 61.8125 72.90625 
L 76.515625 72.90625 
L 76.515625 0 
L 66.890625 0 
L 66.890625 64.015625 
L 48.09375 14.015625 
L 38.1875 14.015625 
L 19.390625 64.015625 
L 19.390625 0 
L 9.8125 0 
z
" id="DejaVuSans-77"/>
      <path d="M 9.8125 72.90625 
L 23.09375 72.90625 
L 55.421875 11.921875 
L 55.421875 72.90625 
L 64.984375 72.90625 
L 64.984375 0 
L 51.703125 0 
L 19.390625 60.984375 
L 19.390625 0 
L 9.8125 0 
z
" id="DejaVuSans-78"/>
      <path d="M 9.8125 72.90625 
L 19.671875 72.90625 
L 19.671875 0 
L 9.8125 0 
z
" id="DejaVuSans-73"/>
      <path d="M 53.515625 70.515625 
L 53.515625 60.890625 
Q 47.90625 63.578125 42.921875 64.890625 
Q 37.9375 66.21875 33.296875 66.21875 
Q 25.25 66.21875 20.875 63.09375 
Q 16.5 59.96875 16.5 54.203125 
Q 16.5 49.359375 19.40625 46.890625 
Q 22.3125 44.4375 30.421875 42.921875 
L 36.375 41.703125 
Q 47.40625 39.59375 52.65625 34.296875 
Q 57.90625 29 57.90625 20.125 
Q 57.90625 9.515625 50.796875 4.046875 
Q 43.703125 -1.421875 29.984375 -1.421875 
Q 24.8125 -1.421875 18.96875 -0.25 
Q 13.140625 0.921875 6.890625 3.21875 
L 6.890625 13.375 
Q 12.890625 10.015625 18.65625 8.296875 
Q 24.421875 6.59375 29.984375 6.59375 
Q 38.421875 6.59375 43.015625 9.90625 
Q 47.609375 13.234375 47.609375 19.390625 
Q 47.609375 24.75 44.3125 27.78125 
Q 41.015625 30.8125 33.5 32.328125 
L 27.484375 33.5 
Q 16.453125 35.6875 11.515625 40.375 
Q 6.59375 45.0625 6.59375 53.421875 
Q 6.59375 63.09375 13.40625 68.65625 
Q 20.21875 74.21875 32.171875 74.21875 
Q 37.3125 74.21875 42.625 73.28125 
Q 47.953125 72.359375 53.515625 70.515625 
z
" id="DejaVuSans-83"/>
      <path d="M -0.296875 72.90625 
L 61.375 72.90625 
L 61.375 64.59375 
L 35.5 64.59375 
L 35.5 0 
L 25.59375 0 
L 25.59375 64.59375 
L -0.296875 64.59375 
z
" id="DejaVuSans-84"/>
      <path id="DejaVuSans-32"/>
      <path d="M 64.40625 67.28125 
L 64.40625 56.890625 
Q 59.421875 61.53125 53.78125 63.8125 
Q 48.140625 66.109375 41.796875 66.109375 
Q 29.296875 66.109375 22.65625 58.46875 
Q 16.015625 50.828125 16.015625 36.375 
Q 16.015625 21.96875 22.65625 14.328125 
Q 29.296875 6.6875 41.796875 6.6875 
Q 48.140625 6.6875 53.78125 8.984375 
Q 59.421875 11.28125 64.40625 15.921875 
L 64.40625 5.609375 
Q 59.234375 2.09375 53.4375 0.328125 
Q 47.65625 -1.421875 41.21875 -1.421875 
Q 24.65625 -1.421875 15.125 8.703125 
Q 5.609375 18.84375 5.609375 36.375 
Q 5.609375 53.953125 15.125 64.078125 
Q 24.65625 74.21875 41.21875 74.21875 
Q 47.75 74.21875 53.53125 72.484375 
Q 59.328125 70.75 64.40625 67.28125 
z
" id="DejaVuSans-67"/>
      <path d="M 9.421875 75.984375 
L 18.40625 75.984375 
L 18.40625 0 
L 9.421875 0 
z
" id="DejaVuSans-108"/>
      <path d="M 34.28125 27.484375 
Q 23.390625 27.484375 19.1875 25 
Q 14.984375 22.515625 14.984375 16.5 
Q 14.984375 11.71875 18.140625 8.90625 
Q 21.296875 6.109375 26.703125 6.109375 
Q 34.1875 6.109375 38.703125 11.40625 
Q 43.21875 16.703125 43.21875 25.484375 
L 43.21875 27.484375 
z
M 52.203125 31.203125 
L 52.203125 0 
L 43.21875 0 
L 43.21875 8.296875 
Q 40.140625 3.328125 35.546875 0.953125 
Q 30.953125 -1.421875 24.3125 -1.421875 
Q 15.921875 -1.421875 10.953125 3.296875 
Q 6 8.015625 6 15.921875 
Q 6 25.140625 12.171875 29.828125 
Q 18.359375 34.515625 30.609375 34.515625 
L 43.21875 34.515625 
L 43.21875 35.40625 
Q 43.21875 41.609375 39.140625 45 
Q 35.0625 48.390625 27.6875 48.390625 
Q 23 48.390625 18.546875 47.265625 
Q 14.109375 46.140625 10.015625 43.890625 
L 10.015625 52.203125 
Q 14.9375 54.109375 19.578125 55.046875 
Q 24.21875 56 28.609375 56 
Q 40.484375 56 46.34375 49.84375 
Q 52.203125 43.703125 52.203125 31.203125 
z
" id="DejaVuSans-97"/>
      <path d="M 44.28125 53.078125 
L 44.28125 44.578125 
Q 40.484375 46.53125 36.375 47.5 
Q 32.28125 48.484375 27.875 48.484375 
Q 21.1875 48.484375 17.84375 46.4375 
Q 14.5 44.390625 14.5 40.28125 
Q 14.5 37.15625 16.890625 35.375 
Q 19.28125 33.59375 26.515625 31.984375 
L 29.59375 31.296875 
Q 39.15625 29.25 43.1875 25.515625 
Q 47.21875 21.78125 47.21875 15.09375 
Q 47.21875 7.46875 41.1875 3.015625 
Q 35.15625 -1.421875 24.609375 -1.421875 
Q 20.21875 -1.421875 15.453125 -0.5625 
Q 10.6875 0.296875 5.421875 2 
L 5.421875 11.28125 
Q 10.40625 8.6875 15.234375 7.390625 
Q 20.0625 6.109375 24.8125 6.109375 
Q 31.15625 6.109375 34.5625 8.28125 
Q 37.984375 10.453125 37.984375 14.40625 
Q 37.984375 18.0625 35.515625 20.015625 
Q 33.0625 21.96875 24.703125 23.78125 
L 21.578125 24.515625 
Q 13.234375 26.265625 9.515625 29.90625 
Q 5.8125 33.546875 5.8125 39.890625 
Q 5.8125 47.609375 11.28125 51.796875 
Q 16.75 56 26.8125 56 
Q 31.78125 56 36.171875 55.265625 
Q 40.578125 54.546875 44.28125 53.078125 
z
" id="DejaVuSans-115"/>
     </defs>
     <g style="fill:#262626;" transform="translate(805.507422 339.852181)scale(0.25 -0.25)">
      <use xlink:href="#DejaVuSans-77"/>
      <use x="86.279297" xlink:href="#DejaVuSans-78"/>
      <use x="161.083984" xlink:href="#DejaVuSans-73"/>
      <use x="190.576172" xlink:href="#DejaVuSans-83"/>
      <use x="254.052734" xlink:href="#DejaVuSans-84"/>
      <use x="315.136719" xlink:href="#DejaVuSans-32"/>
      <use x="346.923828" xlink:href="#DejaVuSans-67"/>
      <use x="416.748047" xlink:href="#DejaVuSans-108"/>
      <use x="444.53125" xlink:href="#DejaVuSans-97"/>
      <use x="505.810547" xlink:href="#DejaVuSans-115"/>
      <use x="557.910156" xlink:href="#DejaVuSans-115"/>
     </g>
    </g>
   </g>
   <g id="matplotlib.axis_2">
    <g id="ytick_1">
     <g id="text_12">
      <!-- 0.00 -->
      <defs>
       <path d="M 10.6875 12.40625 
L 21 12.40625 
L 21 0 
L 10.6875 0 
z
" id="DejaVuSans-46"/>
      </defs>
      <g style="fill:#262626;" transform="translate(35.395313 288.498047)scale(0.25 -0.25)">
       <use xlink:href="#DejaVuSans-48"/>
       <use x="63.623047" xlink:href="#DejaVuSans-46"/>
       <use x="95.410156" xlink:href="#DejaVuSans-48"/>
       <use x="159.033203" xlink:href="#DejaVuSans-48"/>
      </g>
     </g>
    </g>
    <g id="ytick_2">
     <g id="text_13">
      <!-- 0.25 -->
      <g style="fill:#262626;" transform="translate(35.395313 229.41109)scale(0.25 -0.25)">
       <use xlink:href="#DejaVuSans-48"/>
       <use x="63.623047" xlink:href="#DejaVuSans-46"/>
       <use x="95.410156" xlink:href="#DejaVuSans-50"/>
       <use x="159.033203" xlink:href="#DejaVuSans-53"/>
      </g>
     </g>
    </g>
    <g id="ytick_3">
     <g id="text_14">
      <!-- 0.50 -->
      <g style="fill:#262626;" transform="translate(35.395313 170.324134)scale(0.25 -0.25)">
       <use xlink:href="#DejaVuSans-48"/>
       <use x="63.623047" xlink:href="#DejaVuSans-46"/>
       <use x="95.410156" xlink:href="#DejaVuSans-53"/>
       <use x="159.033203" xlink:href="#DejaVuSans-48"/>
      </g>
     </g>
    </g>
    <g id="ytick_4">
     <g id="text_15">
      <!-- 0.75 -->
      <g style="fill:#262626;" transform="translate(35.395313 111.237177)scale(0.25 -0.25)">
       <use xlink:href="#DejaVuSans-48"/>
       <use x="63.623047" xlink:href="#DejaVuSans-46"/>
       <use x="95.410156" xlink:href="#DejaVuSans-55"/>
       <use x="159.033203" xlink:href="#DejaVuSans-53"/>
      </g>
     </g>
    </g>
    <g id="ytick_5">
     <g id="text_16">
      <!-- 1.00 -->
      <g style="fill:#262626;" transform="translate(35.395313 52.150221)scale(0.25 -0.25)">
       <use xlink:href="#DejaVuSans-49"/>
       <use x="63.623047" xlink:href="#DejaVuSans-46"/>
       <use x="95.410156" xlink:href="#DejaVuSans-48"/>
       <use x="159.033203" xlink:href="#DejaVuSans-48"/>
      </g>
     </g>
    </g>
    <g id="text_17">
     <!-- PCC / SSIM -->
     <defs>
      <path d="M 19.671875 64.796875 
L 19.671875 37.40625 
L 32.078125 37.40625 
Q 38.96875 37.40625 42.71875 40.96875 
Q 46.484375 44.53125 46.484375 51.125 
Q 46.484375 57.671875 42.71875 61.234375 
Q 38.96875 64.796875 32.078125 64.796875 
z
M 9.8125 72.90625 
L 32.078125 72.90625 
Q 44.34375 72.90625 50.609375 67.359375 
Q 56.890625 61.8125 56.890625 51.125 
Q 56.890625 40.328125 50.609375 34.8125 
Q 44.34375 29.296875 32.078125 29.296875 
L 19.671875 29.296875 
L 19.671875 0 
L 9.8125 0 
z
" id="DejaVuSans-80"/>
      <path d="M 25.390625 72.90625 
L 33.6875 72.90625 
L 8.296875 -9.28125 
L 0 -9.28125 
z
" id="DejaVuSans-47"/>
     </defs>
     <g style="fill:#262626;" transform="translate(26.196094 210.594141)rotate(-90)scale(0.25 -0.25)">
      <use xlink:href="#DejaVuSans-80"/>
      <use x="60.302734" xlink:href="#DejaVuSans-67"/>
      <use x="130.126953" xlink:href="#DejaVuSans-67"/>
      <use x="199.951172" xlink:href="#DejaVuSans-32"/>
      <use x="231.738281" xlink:href="#DejaVuSans-47"/>
      <use x="265.429688" xlink:href="#DejaVuSans-32"/>
      <use x="297.216797" xlink:href="#DejaVuSans-83"/>
      <use x="360.693359" xlink:href="#DejaVuSans-83"/>
      <use x="424.169922" xlink:href="#DejaVuSans-73"/>
      <use x="453.662109" xlink:href="#DejaVuSans-77"/>
     </g>
    </g>
   </g>
   <g id="patch_3">
    <path clip-path="url(#pd9b0e8d809)" d="M 139.619375 279 
L 159.149375 279 
L 159.149375 164.056489 
L 139.619375 164.056489 
z
" style="fill:#386df9;stroke:#ffffff;stroke-linejoin:miter;"/>
   </g>
   <g id="patch_4">
    <path clip-path="url(#pd9b0e8d809)" d="M 295.859375 279 
L 315.389375 279 
L 315.389375 172.343337 
L 295.859375 172.343337 
z
" style="fill:#386df9;stroke:#ffffff;stroke-linejoin:miter;"/>
   </g>
   <g id="patch_5">
    <path clip-path="url(#pd9b0e8d809)" d="M 452.099375 279 
L 471.629375 279 
L 471.629375 153.019091 
L 452.099375 153.019091 
z
" style="fill:#386df9;stroke:#ffffff;stroke-linejoin:miter;"/>
   </g>
   <g id="patch_6">
    <path clip-path="url(#pd9b0e8d809)" d="M 608.339375 279 
L 627.869375 279 
L 627.869375 172.570362 
L 608.339375 172.570362 
z
" style="fill:#386df9;stroke:#ffffff;stroke-linejoin:miter;"/>
   </g>
   <g id="patch_7">
    <path clip-path="url(#pd9b0e8d809)" d="M 764.579375 279 
L 784.109375 279 
L 784.109375 149.787122 
L 764.579375 149.787122 
z
" style="fill:#386df9;stroke:#ffffff;stroke-linejoin:miter;"/>
   </g>
   <g id="patch_8">
    <path clip-path="url(#pd9b0e8d809)" d="M 920.819375 279 
L 940.349375 279 
L 940.349375 184.43051 
L 920.819375 184.43051 
z
" style="fill:#386df9;stroke:#ffffff;stroke-linejoin:miter;"/>
   </g>
   <g id="patch_9">
    <path clip-path="url(#pd9b0e8d809)" d="M 1077.059375 279 
L 1096.589375 279 
L 1096.589375 160.102791 
L 1077.059375 160.102791 
z
" style="fill:#386df9;stroke:#ffffff;stroke-linejoin:miter;"/>
   </g>
   <g id="patch_10">
    <path clip-path="url(#pd9b0e8d809)" d="M 1233.299375 279 
L 1252.829375 279 
L 1252.829375 129.271455 
L 1233.299375 129.271455 
z
" style="fill:#386df9;stroke:#ffffff;stroke-linejoin:miter;"/>
   </g>
   <g id="patch_11">
    <path clip-path="url(#pd9b0e8d809)" d="M 1389.539375 279 
L 1409.069375 279 
L 1409.069375 228.349615 
L 1389.539375 228.349615 
z
" style="fill:#386df9;stroke:#ffffff;stroke-linejoin:miter;"/>
   </g>
   <g id="patch_12">
    <path clip-path="url(#pd9b0e8d809)" d="M 1545.779375 279 
L 1565.309375 279 
L 1565.309375 197.238264 
L 1545.779375 197.238264 
z
" style="fill:#386df9;stroke:#ffffff;stroke-linejoin:miter;"/>
   </g>
   <g id="patch_13">
    <path clip-path="url(#pd9b0e8d809)" d="M 159.149375 279 
L 178.679375 279 
L 178.679375 181.285042 
L 159.149375 181.285042 
z
" style="fill:#12c8e6;stroke:#ffffff;stroke-linejoin:miter;"/>
   </g>
   <g id="patch_14">
    <path clip-path="url(#pd9b0e8d809)" d="M 315.389375 279 
L 334.919375 279 
L 334.919375 258.208545 
L 315.389375 258.208545 
z
" style="fill:#12c8e6;stroke:#ffffff;stroke-linejoin:miter;"/>
   </g>
   <g id="patch_15">
    <path clip-path="url(#pd9b0e8d809)" d="M 471.629375 279 
L 491.159375 279 
L 491.159375 177.826637 
L 471.629375 177.826637 
z
" style="fill:#12c8e6;stroke:#ffffff;stroke-linejoin:miter;"/>
   </g>
   <g id="patch_16">
    <path clip-path="url(#pd9b0e8d809)" d="M 627.869375 279 
L 647.399375 279 
L 647.399375 189.325531 
L 627.869375 189.325531 
z
" style="fill:#12c8e6;stroke:#ffffff;stroke-linejoin:miter;"/>
   </g>
   <g id="patch_17">
    <path clip-path="url(#pd9b0e8d809)" d="M 784.109375 279 
L 803.639375 279 
L 803.639375 179.626838 
L 784.109375 179.626838 
z
" style="fill:#12c8e6;stroke:#ffffff;stroke-linejoin:miter;"/>
   </g>
   <g id="patch_18">
    <path clip-path="url(#pd9b0e8d809)" d="M 940.349375 279 
L 959.879375 279 
L 959.879375 189.515662 
L 940.349375 189.515662 
z
" style="fill:#12c8e6;stroke:#ffffff;stroke-linejoin:miter;"/>
   </g>
   <g id="patch_19">
    <path clip-path="url(#pd9b0e8d809)" d="M 1096.589375 279 
L 1116.119375 279 
L 1116.119375 177.856679 
L 1096.589375 177.856679 
z
" style="fill:#12c8e6;stroke:#ffffff;stroke-linejoin:miter;"/>
   </g>
   <g id="patch_20">
    <path clip-path="url(#pd9b0e8d809)" d="M 1252.829375 279 
L 1272.359375 279 
L 1272.359375 172.519147 
L 1252.829375 172.519147 
z
" style="fill:#12c8e6;stroke:#ffffff;stroke-linejoin:miter;"/>
   </g>
   <g id="patch_21">
    <path clip-path="url(#pd9b0e8d809)" d="M 1409.069375 279 
L 1428.599375 279 
L 1428.599375 171.915899 
L 1409.069375 171.915899 
z
" style="fill:#12c8e6;stroke:#ffffff;stroke-linejoin:miter;"/>
   </g>
   <g id="patch_22">
    <path clip-path="url(#pd9b0e8d809)" d="M 1565.309375 279 
L 1584.839375 279 
L 1584.839375 203.884625 
L 1565.309375 203.884625 
z
" style="fill:#12c8e6;stroke:#ffffff;stroke-linejoin:miter;"/>
   </g>
   <g id="patch_23">
    <path clip-path="url(#pd9b0e8d809)" d="M 178.679375 279 
L 198.209375 279 
L 198.209375 193.801028 
L 178.679375 193.801028 
z
" style="fill:#ecc86f;stroke:#ffffff;stroke-linejoin:miter;"/>
   </g>
   <g id="patch_24">
    <path clip-path="url(#pd9b0e8d809)" d="M 334.919375 279 
L 354.449375 279 
L 354.449375 230.307835 
L 334.919375 230.307835 
z
" style="fill:#ecc86f;stroke:#ffffff;stroke-linejoin:miter;"/>
   </g>
   <g id="patch_25">
    <path clip-path="url(#pd9b0e8d809)" d="M 491.159375 279 
L 510.689375 279 
L 510.689375 184.589439 
L 491.159375 184.589439 
z
" style="fill:#ecc86f;stroke:#ffffff;stroke-linejoin:miter;"/>
   </g>
   <g id="patch_26">
    <path clip-path="url(#pd9b0e8d809)" d="M 647.399375 279 
L 666.929375 279 
L 666.929375 201.168573 
L 647.399375 201.168573 
z
" style="fill:#ecc86f;stroke:#ffffff;stroke-linejoin:miter;"/>
   </g>
   <g id="patch_27">
    <path clip-path="url(#pd9b0e8d809)" d="M 803.639375 279 
L 823.169375 279 
L 823.169375 183.172516 
L 803.639375 183.172516 
z
" style="fill:#ecc86f;stroke:#ffffff;stroke-linejoin:miter;"/>
   </g>
   <g id="patch_28">
    <path clip-path="url(#pd9b0e8d809)" d="M 959.879375 279 
L 979.409375 279 
L 979.409375 198.843259 
L 959.879375 198.843259 
z
" style="fill:#ecc86f;stroke:#ffffff;stroke-linejoin:miter;"/>
   </g>
   <g id="patch_29">
    <path clip-path="url(#pd9b0e8d809)" d="M 1116.119375 279 
L 1135.649375 279 
L 1135.649375 178.714893 
L 1116.119375 178.714893 
z
" style="fill:#ecc86f;stroke:#ffffff;stroke-linejoin:miter;"/>
   </g>
   <g id="patch_30">
    <path clip-path="url(#pd9b0e8d809)" d="M 1272.359375 279 
L 1291.889375 279 
L 1291.889375 187.212265 
L 1272.359375 187.212265 
z
" style="fill:#ecc86f;stroke:#ffffff;stroke-linejoin:miter;"/>
   </g>
   <g id="patch_31">
    <path clip-path="url(#pd9b0e8d809)" d="M 1428.599375 279 
L 1448.129375 279 
L 1448.129375 242.768476 
L 1428.599375 242.768476 
z
" style="fill:#ecc86f;stroke:#ffffff;stroke-linejoin:miter;"/>
   </g>
   <g id="patch_32">
    <path clip-path="url(#pd9b0e8d809)" d="M 1584.839375 279 
L 1604.369375 279 
L 1604.369375 225.937415 
L 1584.839375 225.937415 
z
" style="fill:#ecc86f;stroke:#ffffff;stroke-linejoin:miter;"/>
   </g>
   <g id="patch_33">
    <path clip-path="url(#pd9b0e8d809)" d="M 198.209375 279 
L 217.739375 279 
L 217.739375 247.967131 
L 198.209375 247.967131 
z
" style="fill:#ff6d38;stroke:#ffffff;stroke-linejoin:miter;"/>
   </g>
   <g id="patch_34">
    <path clip-path="url(#pd9b0e8d809)" d="M 354.449375 279 
L 373.979375 279 
L 373.979375 246.948964 
L 354.449375 246.948964 
z
" style="fill:#ff6d38;stroke:#ffffff;stroke-linejoin:miter;"/>
   </g>
   <g id="patch_35">
    <path clip-path="url(#pd9b0e8d809)" d="M 510.689375 279 
L 530.219375 279 
L 530.219375 229.465329 
L 510.689375 229.465329 
z
" style="fill:#ff6d38;stroke:#ffffff;stroke-linejoin:miter;"/>
   </g>
   <g id="patch_36">
    <path clip-path="url(#pd9b0e8d809)" d="M 666.929375 279 
L 686.459375 279 
L 686.459375 246.42565 
L 666.929375 246.42565 
z
" style="fill:#ff6d38;stroke:#ffffff;stroke-linejoin:miter;"/>
   </g>
   <g id="patch_37">
    <path clip-path="url(#pd9b0e8d809)" d="M 823.169375 279 
L 842.699375 279 
L 842.699375 222.707455 
L 823.169375 222.707455 
z
" style="fill:#ff6d38;stroke:#ffffff;stroke-linejoin:miter;"/>
   </g>
   <g id="patch_38">
    <path clip-path="url(#pd9b0e8d809)" d="M 979.409375 279 
L 998.939375 279 
L 998.939375 236.12918 
L 979.409375 236.12918 
z
" style="fill:#ff6d38;stroke:#ffffff;stroke-linejoin:miter;"/>
   </g>
   <g id="patch_39">
    <path clip-path="url(#pd9b0e8d809)" d="M 1135.649375 279 
L 1155.179375 279 
L 1155.179375 232.243465 
L 1135.649375 232.243465 
z
" style="fill:#ff6d38;stroke:#ffffff;stroke-linejoin:miter;"/>
   </g>
   <g id="patch_40">
    <path clip-path="url(#pd9b0e8d809)" d="M 1291.889375 279 
L 1311.419375 279 
L 1311.419375 214.437419 
L 1291.889375 214.437419 
z
" style="fill:#ff6d38;stroke:#ffffff;stroke-linejoin:miter;"/>
   </g>
   <g id="patch_41">
    <path clip-path="url(#pd9b0e8d809)" d="M 1448.129375 279 
L 1467.659375 279 
L 1467.659375 236.036382 
L 1448.129375 236.036382 
z
" style="fill:#ff6d38;stroke:#ffffff;stroke-linejoin:miter;"/>
   </g>
   <g id="patch_42">
    <path clip-path="url(#pd9b0e8d809)" d="M 1604.369375 279 
L 1623.899375 279 
L 1623.899375 243.787665 
L 1604.369375 243.787665 
z
" style="fill:#ff6d38;stroke:#ffffff;stroke-linejoin:miter;"/>
   </g>
   <g id="patch_43">
    <path d="M 100.559375 279 
L 100.559375 7.2 
" style="fill:none;stroke:#262626;stroke-linecap:square;stroke-linejoin:miter;stroke-width:1.25;"/>
   </g>
   <g id="patch_44">
    <path d="M 100.559375 279 
L 1662.959375 279 
" style="fill:none;stroke:#262626;stroke-linecap:square;stroke-linejoin:miter;stroke-width:1.25;"/>
   </g>
   <g id="legend_1">
    <g id="patch_45">
     <path d="M 766.3375 81.9125 
L 1648.959375 81.9125 
Q 1652.959375 81.9125 1652.959375 77.9125 
L 1652.959375 21.2 
Q 1652.959375 17.2 1648.959375 17.2 
L 766.3375 17.2 
Q 762.3375 17.2 762.3375 21.2 
L 762.3375 77.9125 
Q 762.3375 81.9125 766.3375 81.9125 
z
" style="fill:#ffffff;opacity:0.8;stroke:#cccccc;stroke-linejoin:miter;"/>
    </g>
    <g id="patch_46">
     <path d="M 770.3375 40.396875 
L 810.3375 40.396875 
L 810.3375 26.396875 
L 770.3375 26.396875 
z
" style="fill:#386df9;stroke:#ffffff;stroke-linejoin:miter;"/>
    </g>
    <g id="text_18">
     <!-- PCC: Simp-Explain. to Ground Truth -->
     <defs>
      <path d="M 11.71875 12.40625 
L 22.015625 12.40625 
L 22.015625 0 
L 11.71875 0 
z
M 11.71875 51.703125 
L 22.015625 51.703125 
L 22.015625 39.3125 
L 11.71875 39.3125 
z
" id="DejaVuSans-58"/>
      <path d="M 9.421875 54.6875 
L 18.40625 54.6875 
L 18.40625 0 
L 9.421875 0 
z
M 9.421875 75.984375 
L 18.40625 75.984375 
L 18.40625 64.59375 
L 9.421875 64.59375 
z
" id="DejaVuSans-105"/>
      <path d="M 52 44.1875 
Q 55.375 50.25 60.0625 53.125 
Q 64.75 56 71.09375 56 
Q 79.640625 56 84.28125 50.015625 
Q 88.921875 44.046875 88.921875 33.015625 
L 88.921875 0 
L 79.890625 0 
L 79.890625 32.71875 
Q 79.890625 40.578125 77.09375 44.375 
Q 74.3125 48.1875 68.609375 48.1875 
Q 61.625 48.1875 57.5625 43.546875 
Q 53.515625 38.921875 53.515625 30.90625 
L 53.515625 0 
L 44.484375 0 
L 44.484375 32.71875 
Q 44.484375 40.625 41.703125 44.40625 
Q 38.921875 48.1875 33.109375 48.1875 
Q 26.21875 48.1875 22.15625 43.53125 
Q 18.109375 38.875 18.109375 30.90625 
L 18.109375 0 
L 9.078125 0 
L 9.078125 54.6875 
L 18.109375 54.6875 
L 18.109375 46.1875 
Q 21.1875 51.21875 25.484375 53.609375 
Q 29.78125 56 35.6875 56 
Q 41.65625 56 45.828125 52.96875 
Q 50 49.953125 52 44.1875 
z
" id="DejaVuSans-109"/>
      <path d="M 18.109375 8.203125 
L 18.109375 -20.796875 
L 9.078125 -20.796875 
L 9.078125 54.6875 
L 18.109375 54.6875 
L 18.109375 46.390625 
Q 20.953125 51.265625 25.265625 53.625 
Q 29.59375 56 35.59375 56 
Q 45.5625 56 51.78125 48.09375 
Q 58.015625 40.1875 58.015625 27.296875 
Q 58.015625 14.40625 51.78125 6.484375 
Q 45.5625 -1.421875 35.59375 -1.421875 
Q 29.59375 -1.421875 25.265625 0.953125 
Q 20.953125 3.328125 18.109375 8.203125 
z
M 48.6875 27.296875 
Q 48.6875 37.203125 44.609375 42.84375 
Q 40.53125 48.484375 33.40625 48.484375 
Q 26.265625 48.484375 22.1875 42.84375 
Q 18.109375 37.203125 18.109375 27.296875 
Q 18.109375 17.390625 22.1875 11.75 
Q 26.265625 6.109375 33.40625 6.109375 
Q 40.53125 6.109375 44.609375 11.75 
Q 48.6875 17.390625 48.6875 27.296875 
z
" id="DejaVuSans-112"/>
      <path d="M 4.890625 31.390625 
L 31.203125 31.390625 
L 31.203125 23.390625 
L 4.890625 23.390625 
z
" id="DejaVuSans-45"/>
      <path d="M 9.8125 72.90625 
L 55.90625 72.90625 
L 55.90625 64.59375 
L 19.671875 64.59375 
L 19.671875 43.015625 
L 54.390625 43.015625 
L 54.390625 34.71875 
L 19.671875 34.71875 
L 19.671875 8.296875 
L 56.78125 8.296875 
L 56.78125 0 
L 9.8125 0 
z
" id="DejaVuSans-69"/>
      <path d="M 54.890625 54.6875 
L 35.109375 28.078125 
L 55.90625 0 
L 45.3125 0 
L 29.390625 21.484375 
L 13.484375 0 
L 2.875 0 
L 24.125 28.609375 
L 4.6875 54.6875 
L 15.28125 54.6875 
L 29.78125 35.203125 
L 44.28125 54.6875 
z
" id="DejaVuSans-120"/>
      <path d="M 54.890625 33.015625 
L 54.890625 0 
L 45.90625 0 
L 45.90625 32.71875 
Q 45.90625 40.484375 42.875 44.328125 
Q 39.84375 48.1875 33.796875 48.1875 
Q 26.515625 48.1875 22.3125 43.546875 
Q 18.109375 38.921875 18.109375 30.90625 
L 18.109375 0 
L 9.078125 0 
L 9.078125 54.6875 
L 18.109375 54.6875 
L 18.109375 46.1875 
Q 21.34375 51.125 25.703125 53.5625 
Q 30.078125 56 35.796875 56 
Q 45.21875 56 50.046875 50.171875 
Q 54.890625 44.34375 54.890625 33.015625 
z
" id="DejaVuSans-110"/>
      <path d="M 18.3125 70.21875 
L 18.3125 54.6875 
L 36.8125 54.6875 
L 36.8125 47.703125 
L 18.3125 47.703125 
L 18.3125 18.015625 
Q 18.3125 11.328125 20.140625 9.421875 
Q 21.96875 7.515625 27.59375 7.515625 
L 36.8125 7.515625 
L 36.8125 0 
L 27.59375 0 
Q 17.1875 0 13.234375 3.875 
Q 9.28125 7.765625 9.28125 18.015625 
L 9.28125 47.703125 
L 2.6875 47.703125 
L 2.6875 54.6875 
L 9.28125 54.6875 
L 9.28125 70.21875 
z
" id="DejaVuSans-116"/>
      <path d="M 30.609375 48.390625 
Q 23.390625 48.390625 19.1875 42.75 
Q 14.984375 37.109375 14.984375 27.296875 
Q 14.984375 17.484375 19.15625 11.84375 
Q 23.34375 6.203125 30.609375 6.203125 
Q 37.796875 6.203125 41.984375 11.859375 
Q 46.1875 17.53125 46.1875 27.296875 
Q 46.1875 37.015625 41.984375 42.703125 
Q 37.796875 48.390625 30.609375 48.390625 
z
M 30.609375 56 
Q 42.328125 56 49.015625 48.375 
Q 55.71875 40.765625 55.71875 27.296875 
Q 55.71875 13.875 49.015625 6.21875 
Q 42.328125 -1.421875 30.609375 -1.421875 
Q 18.84375 -1.421875 12.171875 6.21875 
Q 5.515625 13.875 5.515625 27.296875 
Q 5.515625 40.765625 12.171875 48.375 
Q 18.84375 56 30.609375 56 
z
" id="DejaVuSans-111"/>
      <path d="M 59.515625 10.40625 
L 59.515625 29.984375 
L 43.40625 29.984375 
L 43.40625 38.09375 
L 69.28125 38.09375 
L 69.28125 6.78125 
Q 63.578125 2.734375 56.6875 0.65625 
Q 49.8125 -1.421875 42 -1.421875 
Q 24.90625 -1.421875 15.25 8.5625 
Q 5.609375 18.5625 5.609375 36.375 
Q 5.609375 54.25 15.25 64.234375 
Q 24.90625 74.21875 42 74.21875 
Q 49.125 74.21875 55.546875 72.453125 
Q 61.96875 70.703125 67.390625 67.28125 
L 67.390625 56.78125 
Q 61.921875 61.421875 55.765625 63.765625 
Q 49.609375 66.109375 42.828125 66.109375 
Q 29.4375 66.109375 22.71875 58.640625 
Q 16.015625 51.171875 16.015625 36.375 
Q 16.015625 21.625 22.71875 14.15625 
Q 29.4375 6.6875 42.828125 6.6875 
Q 48.046875 6.6875 52.140625 7.59375 
Q 56.25 8.5 59.515625 10.40625 
z
" id="DejaVuSans-71"/>
      <path d="M 41.109375 46.296875 
Q 39.59375 47.171875 37.8125 47.578125 
Q 36.03125 48 33.890625 48 
Q 26.265625 48 22.1875 43.046875 
Q 18.109375 38.09375 18.109375 28.8125 
L 18.109375 0 
L 9.078125 0 
L 9.078125 54.6875 
L 18.109375 54.6875 
L 18.109375 46.1875 
Q 20.953125 51.171875 25.484375 53.578125 
Q 30.03125 56 36.53125 56 
Q 37.453125 56 38.578125 55.875 
Q 39.703125 55.765625 41.0625 55.515625 
z
" id="DejaVuSans-114"/>
      <path d="M 8.5 21.578125 
L 8.5 54.6875 
L 17.484375 54.6875 
L 17.484375 21.921875 
Q 17.484375 14.15625 20.5 10.265625 
Q 23.53125 6.390625 29.59375 6.390625 
Q 36.859375 6.390625 41.078125 11.03125 
Q 45.3125 15.671875 45.3125 23.6875 
L 45.3125 54.6875 
L 54.296875 54.6875 
L 54.296875 0 
L 45.3125 0 
L 45.3125 8.40625 
Q 42.046875 3.421875 37.71875 1 
Q 33.40625 -1.421875 27.6875 -1.421875 
Q 18.265625 -1.421875 13.375 4.4375 
Q 8.5 10.296875 8.5 21.578125 
z
M 31.109375 56 
z
" id="DejaVuSans-117"/>
      <path d="M 45.40625 46.390625 
L 45.40625 75.984375 
L 54.390625 75.984375 
L 54.390625 0 
L 45.40625 0 
L 45.40625 8.203125 
Q 42.578125 3.328125 38.25 0.953125 
Q 33.9375 -1.421875 27.875 -1.421875 
Q 17.96875 -1.421875 11.734375 6.484375 
Q 5.515625 14.40625 5.515625 27.296875 
Q 5.515625 40.1875 11.734375 48.09375 
Q 17.96875 56 27.875 56 
Q 33.9375 56 38.25 53.625 
Q 42.578125 51.265625 45.40625 46.390625 
z
M 14.796875 27.296875 
Q 14.796875 17.390625 18.875 11.75 
Q 22.953125 6.109375 30.078125 6.109375 
Q 37.203125 6.109375 41.296875 11.75 
Q 45.40625 17.390625 45.40625 27.296875 
Q 45.40625 37.203125 41.296875 42.84375 
Q 37.203125 48.484375 30.078125 48.484375 
Q 22.953125 48.484375 18.875 42.84375 
Q 14.796875 37.203125 14.796875 27.296875 
z
" id="DejaVuSans-100"/>
      <path d="M 54.890625 33.015625 
L 54.890625 0 
L 45.90625 0 
L 45.90625 32.71875 
Q 45.90625 40.484375 42.875 44.328125 
Q 39.84375 48.1875 33.796875 48.1875 
Q 26.515625 48.1875 22.3125 43.546875 
Q 18.109375 38.921875 18.109375 30.90625 
L 18.109375 0 
L 9.078125 0 
L 9.078125 75.984375 
L 18.109375 75.984375 
L 18.109375 46.1875 
Q 21.34375 51.125 25.703125 53.5625 
Q 30.078125 56 35.796875 56 
Q 45.21875 56 50.046875 50.171875 
Q 54.890625 44.34375 54.890625 33.015625 
z
" id="DejaVuSans-104"/>
     </defs>
     <g style="fill:#262626;" transform="translate(826.3375 40.396875)scale(0.2 -0.2)">
      <use xlink:href="#DejaVuSans-80"/>
      <use x="60.302734" xlink:href="#DejaVuSans-67"/>
      <use x="130.126953" xlink:href="#DejaVuSans-67"/>
      <use x="199.951172" xlink:href="#DejaVuSans-58"/>
      <use x="233.642578" xlink:href="#DejaVuSans-32"/>
      <use x="265.429688" xlink:href="#DejaVuSans-83"/>
      <use x="328.90625" xlink:href="#DejaVuSans-105"/>
      <use x="356.689453" xlink:href="#DejaVuSans-109"/>
      <use x="454.101562" xlink:href="#DejaVuSans-112"/>
      <use x="517.578125" xlink:href="#DejaVuSans-45"/>
      <use x="553.662109" xlink:href="#DejaVuSans-69"/>
      <use x="616.845703" xlink:href="#DejaVuSans-120"/>
      <use x="676.025391" xlink:href="#DejaVuSans-112"/>
      <use x="739.501953" xlink:href="#DejaVuSans-108"/>
      <use x="767.285156" xlink:href="#DejaVuSans-97"/>
      <use x="828.564453" xlink:href="#DejaVuSans-105"/>
      <use x="856.347656" xlink:href="#DejaVuSans-110"/>
      <use x="919.726562" xlink:href="#DejaVuSans-46"/>
      <use x="951.513672" xlink:href="#DejaVuSans-32"/>
      <use x="983.300781" xlink:href="#DejaVuSans-116"/>
      <use x="1022.509766" xlink:href="#DejaVuSans-111"/>
      <use x="1083.691406" xlink:href="#DejaVuSans-32"/>
      <use x="1115.478516" xlink:href="#DejaVuSans-71"/>
      <use x="1192.96875" xlink:href="#DejaVuSans-114"/>
      <use x="1234.050781" xlink:href="#DejaVuSans-111"/>
      <use x="1295.232422" xlink:href="#DejaVuSans-117"/>
      <use x="1358.611328" xlink:href="#DejaVuSans-110"/>
      <use x="1421.990234" xlink:href="#DejaVuSans-100"/>
      <use x="1485.466797" xlink:href="#DejaVuSans-32"/>
      <use x="1517.253906" xlink:href="#DejaVuSans-84"/>
      <use x="1578.119141" xlink:href="#DejaVuSans-114"/>
      <use x="1619.232422" xlink:href="#DejaVuSans-117"/>
      <use x="1682.611328" xlink:href="#DejaVuSans-116"/>
      <use x="1721.820312" xlink:href="#DejaVuSans-104"/>
     </g>
    </g>
    <g id="patch_47">
     <path d="M 770.3375 69.753125 
L 810.3375 69.753125 
L 810.3375 55.753125 
L 770.3375 55.753125 
z
" style="fill:#12c8e6;stroke:#ffffff;stroke-linejoin:miter;"/>
    </g>
    <g id="text_19">
     <!-- PCC: Shap-Explain. to Ground Truth -->
     <g style="fill:#262626;" transform="translate(826.3375 69.753125)scale(0.2 -0.2)">
      <use xlink:href="#DejaVuSans-80"/>
      <use x="60.302734" xlink:href="#DejaVuSans-67"/>
      <use x="130.126953" xlink:href="#DejaVuSans-67"/>
      <use x="199.951172" xlink:href="#DejaVuSans-58"/>
      <use x="233.642578" xlink:href="#DejaVuSans-32"/>
      <use x="265.429688" xlink:href="#DejaVuSans-83"/>
      <use x="328.90625" xlink:href="#DejaVuSans-104"/>
      <use x="392.285156" xlink:href="#DejaVuSans-97"/>
      <use x="453.564453" xlink:href="#DejaVuSans-112"/>
      <use x="517.041016" xlink:href="#DejaVuSans-45"/>
      <use x="553.125" xlink:href="#DejaVuSans-69"/>
      <use x="616.308594" xlink:href="#DejaVuSans-120"/>
      <use x="675.488281" xlink:href="#DejaVuSans-112"/>
      <use x="738.964844" xlink:href="#DejaVuSans-108"/>
      <use x="766.748047" xlink:href="#DejaVuSans-97"/>
      <use x="828.027344" xlink:href="#DejaVuSans-105"/>
      <use x="855.810547" xlink:href="#DejaVuSans-110"/>
      <use x="919.189453" xlink:href="#DejaVuSans-46"/>
      <use x="950.976562" xlink:href="#DejaVuSans-32"/>
      <use x="982.763672" xlink:href="#DejaVuSans-116"/>
      <use x="1021.972656" xlink:href="#DejaVuSans-111"/>
      <use x="1083.154297" xlink:href="#DejaVuSans-32"/>
      <use x="1114.941406" xlink:href="#DejaVuSans-71"/>
      <use x="1192.431641" xlink:href="#DejaVuSans-114"/>
      <use x="1233.513672" xlink:href="#DejaVuSans-111"/>
      <use x="1294.695312" xlink:href="#DejaVuSans-117"/>
      <use x="1358.074219" xlink:href="#DejaVuSans-110"/>
      <use x="1421.453125" xlink:href="#DejaVuSans-100"/>
      <use x="1484.929688" xlink:href="#DejaVuSans-32"/>
      <use x="1516.716797" xlink:href="#DejaVuSans-84"/>
      <use x="1577.582031" xlink:href="#DejaVuSans-114"/>
      <use x="1618.695312" xlink:href="#DejaVuSans-117"/>
      <use x="1682.074219" xlink:href="#DejaVuSans-116"/>
      <use x="1721.283203" xlink:href="#DejaVuSans-104"/>
     </g>
    </g>
    <g id="patch_48">
     <path d="M 1223.36875 40.396875 
L 1263.36875 40.396875 
L 1263.36875 26.396875 
L 1223.36875 26.396875 
z
" style="fill:#ecc86f;stroke:#ffffff;stroke-linejoin:miter;"/>
    </g>
    <g id="text_20">
     <!-- SSIM: Simp-Explain. to Ground Truth -->
     <g style="fill:#262626;" transform="translate(1279.36875 40.396875)scale(0.2 -0.2)">
      <use xlink:href="#DejaVuSans-83"/>
      <use x="63.476562" xlink:href="#DejaVuSans-83"/>
      <use x="126.953125" xlink:href="#DejaVuSans-73"/>
      <use x="156.445312" xlink:href="#DejaVuSans-77"/>
      <use x="242.724609" xlink:href="#DejaVuSans-58"/>
      <use x="276.416016" xlink:href="#DejaVuSans-32"/>
      <use x="308.203125" xlink:href="#DejaVuSans-83"/>
      <use x="371.679688" xlink:href="#DejaVuSans-105"/>
      <use x="399.462891" xlink:href="#DejaVuSans-109"/>
      <use x="496.875" xlink:href="#DejaVuSans-112"/>
      <use x="560.351562" xlink:href="#DejaVuSans-45"/>
      <use x="596.435547" xlink:href="#DejaVuSans-69"/>
      <use x="659.619141" xlink:href="#DejaVuSans-120"/>
      <use x="718.798828" xlink:href="#DejaVuSans-112"/>
      <use x="782.275391" xlink:href="#DejaVuSans-108"/>
      <use x="810.058594" xlink:href="#DejaVuSans-97"/>
      <use x="871.337891" xlink:href="#DejaVuSans-105"/>
      <use x="899.121094" xlink:href="#DejaVuSans-110"/>
      <use x="962.5" xlink:href="#DejaVuSans-46"/>
      <use x="994.287109" xlink:href="#DejaVuSans-32"/>
      <use x="1026.074219" xlink:href="#DejaVuSans-116"/>
      <use x="1065.283203" xlink:href="#DejaVuSans-111"/>
      <use x="1126.464844" xlink:href="#DejaVuSans-32"/>
      <use x="1158.251953" xlink:href="#DejaVuSans-71"/>
      <use x="1235.742188" xlink:href="#DejaVuSans-114"/>
      <use x="1276.824219" xlink:href="#DejaVuSans-111"/>
      <use x="1338.005859" xlink:href="#DejaVuSans-117"/>
      <use x="1401.384766" xlink:href="#DejaVuSans-110"/>
      <use x="1464.763672" xlink:href="#DejaVuSans-100"/>
      <use x="1528.240234" xlink:href="#DejaVuSans-32"/>
      <use x="1560.027344" xlink:href="#DejaVuSans-84"/>
      <use x="1620.892578" xlink:href="#DejaVuSans-114"/>
      <use x="1662.005859" xlink:href="#DejaVuSans-117"/>
      <use x="1725.384766" xlink:href="#DejaVuSans-116"/>
      <use x="1764.59375" xlink:href="#DejaVuSans-104"/>
     </g>
    </g>
    <g id="patch_49">
     <path d="M 1223.36875 69.753125 
L 1263.36875 69.753125 
L 1263.36875 55.753125 
L 1223.36875 55.753125 
z
" style="fill:#ff6d38;stroke:#ffffff;stroke-linejoin:miter;"/>
    </g>
    <g id="text_21">
     <!-- SSIM: Shap-Explain. to Ground Truth -->
     <g style="fill:#262626;" transform="translate(1279.36875 69.753125)scale(0.2 -0.2)">
      <use xlink:href="#DejaVuSans-83"/>
      <use x="63.476562" xlink:href="#DejaVuSans-83"/>
      <use x="126.953125" xlink:href="#DejaVuSans-73"/>
      <use x="156.445312" xlink:href="#DejaVuSans-77"/>
      <use x="242.724609" xlink:href="#DejaVuSans-58"/>
      <use x="276.416016" xlink:href="#DejaVuSans-32"/>
      <use x="308.203125" xlink:href="#DejaVuSans-83"/>
      <use x="371.679688" xlink:href="#DejaVuSans-104"/>
      <use x="435.058594" xlink:href="#DejaVuSans-97"/>
      <use x="496.337891" xlink:href="#DejaVuSans-112"/>
      <use x="559.814453" xlink:href="#DejaVuSans-45"/>
      <use x="595.898438" xlink:href="#DejaVuSans-69"/>
      <use x="659.082031" xlink:href="#DejaVuSans-120"/>
      <use x="718.261719" xlink:href="#DejaVuSans-112"/>
      <use x="781.738281" xlink:href="#DejaVuSans-108"/>
      <use x="809.521484" xlink:href="#DejaVuSans-97"/>
      <use x="870.800781" xlink:href="#DejaVuSans-105"/>
      <use x="898.583984" xlink:href="#DejaVuSans-110"/>
      <use x="961.962891" xlink:href="#DejaVuSans-46"/>
      <use x="993.75" xlink:href="#DejaVuSans-32"/>
      <use x="1025.537109" xlink:href="#DejaVuSans-116"/>
      <use x="1064.746094" xlink:href="#DejaVuSans-111"/>
      <use x="1125.927734" xlink:href="#DejaVuSans-32"/>
      <use x="1157.714844" xlink:href="#DejaVuSans-71"/>
      <use x="1235.205078" xlink:href="#DejaVuSans-114"/>
      <use x="1276.287109" xlink:href="#DejaVuSans-111"/>
      <use x="1337.46875" xlink:href="#DejaVuSans-117"/>
      <use x="1400.847656" xlink:href="#DejaVuSans-110"/>
      <use x="1464.226562" xlink:href="#DejaVuSans-100"/>
      <use x="1527.703125" xlink:href="#DejaVuSans-32"/>
      <use x="1559.490234" xlink:href="#DejaVuSans-84"/>
      <use x="1620.355469" xlink:href="#DejaVuSans-114"/>
      <use x="1661.46875" xlink:href="#DejaVuSans-117"/>
      <use x="1724.847656" xlink:href="#DejaVuSans-116"/>
      <use x="1764.056641" xlink:href="#DejaVuSans-104"/>
     </g>
    </g>
   </g>
  </g>
 </g>
 <defs>
  <clipPath id="pd9b0e8d809">
   <rect height="271.8" width="1562.4" x="100.559375" y="7.2"/>
  </clipPath>
 </defs>
</svg>
