<svg width="442" height="404" xmlns="http://www.w3.org/2000/svg" xmlns:xlink="http://www.w3.org/1999/xlink" overflow="hidden"><defs><clipPath id="clip0"><rect x="238" y="32" width="442" height="404"/></clipPath></defs><g clip-path="url(#clip0)" transform="translate(-238 -32)"><path d="M354.287 164.48 353.893 164.48C352.82 164.48 351.837 164.998 351.222 165.828 347.666 170.623 341.775 173.762 335.103 173.762 323.812 173.762 314.743 164.78 315.478 153.972 316.074 145.217 324.492 137.253 333.765 136.673 340.988 136.222 347.44 139.456 351.23 144.578 351.841 145.403 352.822 145.913 353.89 145.913L354.287 145.913C356.062 145.913 357.5 144.555 357.5 142.88L357.5 99.5001 239.5 99.5001C239.5 99.5001 239.5 165.837 239.5 167.513L239.5 210.893 285.453 210.893C287.228 210.893 288.666 212.251 288.666 213.926L288.666 214.199C288.666 215.206 288.125 216.132 287.251 216.71 281.825 220.287 278.399 226.38 278.878 233.2 279.493 241.954 287.931 249.9 297.205 250.461 308.653 251.153 318.167 242.592 318.167 231.935 318.167 225.637 314.842 220.075 309.762 216.718 308.883 216.138 308.334 215.209 308.334 214.196L308.334 213.926C308.334 212.251 309.773 210.893 311.547 210.893L357.5 210.893 357.5 167.513C357.5 165.839 356.061 164.48 354.287 164.48Z" stroke="#FFFFFF" stroke-miterlimit="8" fill="#ED7D31" fill-rule="evenodd"/><path d="M381.156 248.673C373.926 248.221 367.466 251.456 363.672 256.578 363.061 257.403 362.077 257.913 361.01 257.913L360.83 257.913C359.053 257.913 357.614 256.556 357.614 254.88L357.614 211.5 311.617 211.5C309.84 211.5 308.4 212.858 308.4 214.533L308.4 214.803C308.4 215.816 308.95 216.745 309.829 217.326 314.915 220.681 318.243 226.244 318.243 232.542 318.243 243.201 308.72 251.761 297.261 251.068 287.978 250.507 279.532 242.561 278.916 233.807 278.436 226.987 281.867 220.896 287.297 217.317 288.172 216.74 288.714 215.814 288.714 214.806L288.714 214.533C288.714 212.858 287.273 211.5 285.497 211.5L239.5 211.5 239.5 322.893 285.497 322.893C287.274 322.893 288.714 324.251 288.714 325.926L288.714 326.199C288.714 327.206 288.172 328.132 287.297 328.71 281.866 332.287 278.436 338.38 278.916 345.2 279.532 353.954 287.978 361.9 297.261 362.461 308.72 363.153 318.243 354.592 318.243 343.935 318.243 337.637 314.915 332.075 309.829 328.718 308.95 328.138 308.4 327.209 308.4 326.196L308.4 325.926C308.4 324.251 309.841 322.893 311.617 322.893L357.614 322.893 357.614 279.513C357.614 277.837 359.053 276.48 360.83 276.48L361.006 276.48C362.081 276.48 363.064 276.998 363.68 277.828 367.238 282.623 373.136 285.762 379.815 285.762 391.116 285.762 400.193 276.78 399.458 265.972 398.834 256.766 390.917 249.282 381.156 248.673Z" stroke="#FFFFFF" stroke-miterlimit="8" fill="#843C0C" fill-rule="evenodd"/><path d="M517.458 154.269C516.83 145.013 508.877 137.489 499.075 136.876 491.811 136.421 485.323 139.674 481.513 144.824 480.9 145.653 479.912 146.167 478.84 146.167L478.66 146.167C476.876 146.167 475.429 144.802 475.429 143.117L475.429 99.5001 356.791 99.5001 356.791 99.5001 356.791 143.117C356.791 144.802 355.345 146.167 353.561 146.167L353.161 146.167C352.088 146.167 351.101 145.653 350.487 144.824 346.677 139.674 340.189 136.421 332.928 136.875 323.604 137.458 315.139 145.465 314.542 154.268 313.804 165.136 322.921 174.166 334.273 174.166 340.981 174.166 346.904 171.01 350.479 166.189 351.098 165.353 352.087 164.834 353.165 164.834L353.561 164.834C355.344 164.834 356.791 166.2 356.791 167.883L356.791 211.5 356.791 211.5 356.974 211.5 356.974 211.394 403.175 211.394C404.96 211.394 406.406 210.029 406.406 208.344L406.406 208.073C406.406 207.054 405.854 206.121 404.97 205.538 399.863 202.163 396.52 196.571 396.52 190.238 396.52 179.521 406.085 170.914 417.595 171.611 426.919 172.175 435.402 180.164 436.021 188.966 436.503 195.823 433.058 201.948 427.601 205.547 426.723 206.126 426.179 207.058 426.179 208.071L426.179 208.345C426.179 210.03 427.625 211.395 429.411 211.395L475.428 211.395 475.428 167.884C475.428 166.2 476.874 164.835 478.658 164.835L478.835 164.835C479.915 164.835 480.904 165.356 481.521 166.19 485.096 171.012 491.019 174.168 497.727 174.168 509.079 174.168 518.197 165.137 517.458 154.269Z" stroke="#FFFFFF" stroke-miterlimit="8" fill="#A9D18E" fill-rule="evenodd"/><path d="M417.308 362.461C427.143 361.87 435.137 354.387 435.788 345.164 436.271 338.33 432.815 332.225 427.344 328.64 426.462 328.064 425.917 327.134 425.917 326.125L425.917 325.956C425.917 324.278 427.367 322.916 429.157 322.916L475.5 322.916 475.5 211.291 475.5 211.291 429.157 211.291C427.367 211.291 425.917 209.931 425.917 208.252L425.917 207.876C425.917 206.866 426.462 205.938 427.344 205.36 432.815 201.775 436.271 195.67 435.79 188.838 435.17 180.066 426.662 172.102 417.309 171.539 405.762 170.845 396.167 179.423 396.167 190.104 396.167 196.415 399.52 201.988 404.643 205.352 405.531 205.934 406.083 206.865 406.083 207.879L406.083 208.252C406.083 209.93 404.632 211.291 402.843 211.291L356.5 211.291 356.5 211.291 356.5 211.463 356.613 211.463 356.613 254.933C356.613 256.613 358.063 257.973 359.853 257.973L360.141 257.973C361.224 257.973 362.216 257.454 362.835 256.622 366.421 251.817 372.362 248.671 379.091 248.671 390.477 248.671 399.622 257.671 398.882 268.5 398.283 277.274 389.794 285.255 380.442 285.838 373.157 286.291 366.649 283.05 362.826 277.916 362.21 277.089 361.22 276.577 360.143 276.577L359.852 276.577C358.062 276.577 356.612 277.938 356.612 279.618L356.612 322.915 402.842 322.915C404.632 322.915 406.082 324.275 406.082 325.954L406.082 326.121C406.082 327.136 405.529 328.067 404.642 328.648 399.519 332.011 396.166 337.584 396.166 343.896 396.166 354.577 405.761 363.156 417.308 362.461Z" stroke="#FFFFFF" stroke-miterlimit="8" fill="#FFD966" fill-rule="evenodd"/><path d="M308.353 325.55 308.353 325.924C308.353 326.942 308.902 327.875 309.781 328.459 314.862 331.834 318.188 337.426 318.188 343.758 318.188 354.475 308.671 363.083 297.219 362.385 287.942 361.82 279.503 353.83 278.888 345.028 278.41 338.172 281.838 332.049 287.264 328.451 288.139 327.872 288.68 326.94 288.68 325.927L288.68 325.55C288.68 323.865 287.24 322.5 285.466 322.5L239.5 322.5 239.5 434.5C239.5 434.5 309.791 434.5 311.567 434.5L357.532 434.5 357.532 390.884C357.532 389.199 358.971 387.834 360.746 387.834L361.035 387.834C362.102 387.834 363.084 388.347 363.696 389.177 367.487 394.327 373.943 397.579 381.169 397.125 390.445 396.541 398.864 388.532 399.459 379.729 400.192 368.863 391.121 359.833 379.828 359.833 373.155 359.833 367.262 362.989 363.705 367.811 363.089 368.645 362.106 369.166 361.032 369.166L360.746 369.166C358.971 369.166 357.532 367.8 357.532 366.116L357.532 322.5 311.567 322.5C309.792 322.5 308.353 323.866 308.353 325.55Z" stroke="#FFFFFF" stroke-miterlimit="8" fill="#2E75B6" fill-rule="evenodd"/><path d="M556.668 148.687 556.902 148.396C557.538 147.603 557.691 146.532 557.368 145.525 555.5 139.704 556.391 133.26 560.348 128.329 567.046 119.984 579.876 119.261 588.404 126.999 595.313 133.268 596.926 144.792 591.906 152.031 587.996 157.67 581.486 160.285 574.99 159.677 573.943 159.579 572.938 159.965 572.304 160.754L572.069 161.047C571.016 162.359 571.29 164.327 572.679 165.441L608.661 194.32 678.655 107.109C678.655 107.109 623.631 62.9466 622.241 61.8311L586.258 32.9523 559 66.9153C557.948 68.2271 555.968 68.3862 554.578 67.2708L554.352 67.0891C553.517 66.419 553.07 65.4027 553.109 64.3721 553.36 57.9799 550.339 51.3915 544.398 47.2053 536.771 41.8323 525.176 42.7791 519.209 49.2601 511.844 57.2605 513.302 69.9906 522.142 77.0854 527.366 81.2784 533.951 82.5233 539.749 81.0032 540.752 80.7404 541.848 80.9529 542.688 81.6275L542.912 81.8069C544.302 82.9224 544.574 84.89 543.522 86.201L516.264 120.164 552.246 149.043C553.635 150.157 555.616 149.998 556.668 148.687Z" stroke="#FFFFFF" stroke-miterlimit="8" fill="#E2F0D9" fill-rule="evenodd"/><path d="M450.844 285.327C458.074 285.779 464.535 282.544 468.328 277.422 468.94 276.597 469.923 276.087 470.99 276.087L471.17 276.087C472.947 276.087 474.386 277.445 474.386 279.12L474.386 322.5 520.383 322.5C522.16 322.5 523.6 321.142 523.6 319.467L523.6 319.197C523.6 318.184 523.05 317.255 522.171 316.675 517.086 313.319 513.757 307.757 513.757 301.458 513.757 290.8 523.28 282.239 534.739 282.932 544.023 283.493 552.468 291.439 553.084 300.193 553.564 307.013 550.133 313.104 544.703 316.683 543.828 317.26 543.286 318.186 543.286 319.194L543.286 319.467C543.286 321.142 544.727 322.5 546.503 322.5L592.5 322.5 592.5 211.107 546.503 211.107C544.726 211.107 543.286 209.75 543.286 208.074L543.286 207.801C543.286 206.794 543.828 205.868 544.703 205.29 550.134 201.713 553.564 195.62 553.084 188.8 552.468 180.046 544.023 172.1 534.739 171.539 523.28 170.847 513.757 179.408 513.757 190.065 513.757 196.364 517.086 201.925 522.171 205.282 523.05 205.863 523.6 206.791 523.6 207.804L523.6 208.074C523.6 209.75 522.159 211.107 520.383 211.107L474.386 211.107 474.386 254.487C474.386 256.163 472.947 257.52 471.17 257.52L470.994 257.52C469.919 257.52 468.936 257.002 468.32 256.173 464.762 251.377 458.864 248.238 452.185 248.238 440.884 248.238 431.807 257.22 432.542 268.028 433.166 277.234 441.083 284.718 450.844 285.327Z" stroke="#FFFFFF" stroke-miterlimit="8" fill="#C5E0B4" fill-rule="evenodd"/><path d="M477.713 369.52 478.107 369.52C479.18 369.52 480.163 369.002 480.778 368.173 484.334 363.377 490.225 360.238 496.897 360.238 508.188 360.238 517.257 369.22 516.522 380.028 515.926 388.783 507.509 396.748 498.235 397.327 491.012 397.778 484.56 394.544 480.77 389.422 480.159 388.597 479.178 388.087 478.111 388.087L477.713 388.087C475.938 388.087 474.5 389.446 474.5 391.12L474.5 434.5 592.5 434.5C592.5 434.5 592.5 368.163 592.5 366.487L592.5 323.107 546.547 323.107C544.772 323.107 543.334 321.75 543.334 320.074L543.334 319.801C543.334 318.794 543.875 317.868 544.749 317.29 550.175 313.713 553.601 307.62 553.122 300.8 552.507 292.046 544.069 284.1 534.795 283.539 523.347 282.847 513.833 291.408 513.833 302.065 513.833 308.364 517.158 313.925 522.239 317.282 523.117 317.863 523.666 318.791 523.666 319.804L523.666 320.074C523.666 321.75 522.227 323.107 520.453 323.107L474.5 323.107 474.5 366.487C474.5 368.162 475.939 369.52 477.713 369.52Z" stroke="#FFFFFF" stroke-miterlimit="8" fill="#BDD7EE" fill-rule="evenodd"/><path d="M396.135 300.927C395.652 307.796 399.102 313.933 404.563 317.537 405.443 318.118 405.987 319.052 405.987 320.066L405.987 320.236C405.987 321.924 404.539 323.292 402.753 323.292L356.5 323.292 356.5 366.989C356.5 368.677 357.948 370.045 359.734 370.045L360.021 370.045C361.102 370.045 362.092 369.523 362.711 368.687 366.289 363.856 372.22 360.695 378.935 360.695 390.3 360.695 399.427 369.741 398.688 380.627 398.09 389.447 389.618 397.47 380.285 398.055 373.013 398.511 366.518 395.251 362.702 390.093 362.087 389.261 361.1 388.747 360.025 388.747L359.734 388.747C357.948 388.747 356.5 390.116 356.5 391.803L356.5 435.5 475.27 435.5 475.27 391.803C475.27 390.115 476.717 388.747 478.504 388.747L478.795 388.747C479.868 388.747 480.856 389.261 481.472 390.093 485.286 395.252 491.783 398.511 499.054 398.055 508.388 397.47 516.86 389.447 517.458 380.627 518.196 369.741 509.069 360.695 497.706 360.695 490.99 360.695 485.06 363.856 481.481 368.687 480.862 369.523 479.872 370.045 478.791 370.045L478.504 370.045C476.717 370.045 475.27 368.676 475.27 366.989L475.27 323.292 429.017 323.292C427.231 323.292 425.783 321.924 425.783 320.236L425.783 320.069C425.783 319.048 426.336 318.114 427.22 317.529 432.333 314.149 435.68 308.546 435.68 302.201 435.68 291.465 426.103 282.841 414.579 283.54 404.763 284.133 396.784 291.654 396.135 300.927Z" stroke="#FFFFFF" stroke-miterlimit="8" fill="#8FAADC" fill-rule="evenodd"/><path d="M579.473 116.83C579.159 117.059 578.909 117.279 578.723 117.49 578.536 117.7 578.386 117.902 578.271 118.095 578.157 118.288 578.081 118.474 578.045 118.655 578.009 118.836 577.991 119.022 577.991 119.215 577.991 119.817 578.295 120.275 578.904 120.588 579.512 120.901 580.37 121.058 581.478 121.058 582.164 121.058 582.743 120.988 583.212 120.85 583.682 120.711 584.061 120.528 584.351 120.299 584.64 120.07 584.844 119.814 584.965 119.531 585.085 119.248 585.145 118.95 585.145 118.637 585.145 118.095 584.929 117.679 584.495 117.39 584.061 117.101 583.465 116.945 582.706 116.921ZM561.473 116.83C561.159 117.059 560.909 117.279 560.723 117.49 560.536 117.7 560.386 117.902 560.271 118.095 560.157 118.288 560.081 118.474 560.045 118.655 560.009 118.836 559.991 119.022 559.991 119.215 559.991 119.817 560.295 120.275 560.904 120.588 561.512 120.901 562.37 121.058 563.478 121.058 564.164 121.058 564.743 120.988 565.212 120.85 565.682 120.711 566.061 120.528 566.351 120.299 566.64 120.07 566.844 119.814 566.965 119.531 567.085 119.248 567.145 118.95 567.145 118.637 567.145 118.095 566.929 117.679 566.495 117.39 566.061 117.101 565.465 116.945 564.706 116.921ZM632.923 110.11C632.189 110.11 631.562 110.164 631.044 110.272 630.526 110.381 630.105 110.543 629.78 110.76 629.455 110.977 629.217 111.239 629.066 111.546 628.916 111.853 628.84 112.205 628.84 112.603 628.84 113.277 629.054 113.807 629.482 114.193 629.909 114.578 630.502 114.771 631.261 114.771 631.899 114.771 632.487 114.608 633.023 114.283 633.559 113.958 634.104 113.482 634.658 112.856L634.658 110.11ZM651.718 103.696C651.417 103.696 651.119 103.741 650.824 103.831 650.529 103.922 650.228 104.069 649.921 104.274 649.613 104.479 649.297 104.744 648.972 105.069 648.647 105.394 648.304 105.798 647.942 106.279L647.942 111.591C648.581 112.398 649.189 113.021 649.767 113.461 650.345 113.9 650.947 114.12 651.574 114.12 652.164 114.12 652.667 113.97 653.082 113.669 653.498 113.367 653.838 112.973 654.103 112.485 654.368 111.997 654.564 111.446 654.69 110.832 654.817 110.218 654.88 109.604 654.88 108.989 654.88 108.303 654.829 107.643 654.726 107.011 654.624 106.379 654.449 105.816 654.202 105.322 653.955 104.828 653.63 104.434 653.227 104.139 652.823 103.843 652.32 103.696 651.718 103.696ZM581.315 103.027C580.87 103.027 580.478 103.103 580.141 103.253 579.804 103.404 579.524 103.609 579.301 103.868 579.078 104.127 578.913 104.428 578.804 104.771 578.696 105.114 578.642 105.472 578.642 105.846 578.642 106.665 578.882 107.312 579.364 107.788 579.846 108.264 580.514 108.502 581.37 108.502 581.827 108.502 582.225 108.429 582.562 108.285 582.899 108.14 583.179 107.942 583.402 107.689 583.625 107.436 583.793 107.144 583.908 106.812 584.022 106.481 584.08 106.135 584.08 105.774 584.08 104.906 583.839 104.232 583.357 103.75 582.875 103.268 582.195 103.027 581.315 103.027ZM563.315 103.027C562.87 103.027 562.478 103.103 562.141 103.253 561.804 103.404 561.524 103.609 561.301 103.868 561.078 104.127 560.913 104.428 560.804 104.771 560.696 105.114 560.642 105.472 560.642 105.846 560.642 106.665 560.882 107.312 561.364 107.788 561.846 108.264 562.514 108.502 563.37 108.502 563.827 108.502 564.225 108.429 564.562 108.285 564.899 108.14 565.179 107.942 565.402 107.689 565.625 107.436 565.793 107.144 565.908 106.812 566.022 106.481 566.08 106.135 566.08 105.774 566.08 104.906 565.839 104.232 565.357 103.75 564.875 103.268 564.195 103.027 563.315 103.027ZM581.37 99.8839C581.875 99.8839 582.36 99.914 582.824 99.9743 583.288 100.034 583.718 100.119 584.116 100.227L589.228 100.227C589.433 100.227 589.599 100.36 589.725 100.625 589.852 100.89 589.915 101.335 589.915 101.962 589.915 102.54 589.849 102.967 589.716 103.244 589.584 103.521 589.421 103.66 589.228 103.66L587.331 103.66C587.596 103.949 587.786 104.277 587.901 104.644 588.015 105.012 588.072 105.394 588.072 105.792 588.072 106.731 587.916 107.565 587.602 108.294 587.289 109.023 586.841 109.637 586.257 110.137 585.672 110.636 584.968 111.016 584.143 111.275 583.318 111.534 582.399 111.663 581.388 111.663 580.87 111.663 580.376 111.6 579.906 111.474 579.436 111.347 579.075 111.2 578.822 111.031 578.678 111.187 578.548 111.374 578.434 111.591 578.319 111.808 578.262 112.049 578.262 112.314 578.262 112.663 578.416 112.949 578.723 113.172 579.03 113.395 579.461 113.518 580.015 113.542L583.935 113.687C584.85 113.723 585.666 113.852 586.383 114.075 587.1 114.298 587.702 114.611 588.19 115.015 588.677 115.418 589.051 115.903 589.31 116.469 589.569 117.035 589.698 117.679 589.698 118.402 589.698 119.197 589.523 119.947 589.174 120.651 588.825 121.356 588.301 121.967 587.602 122.485 586.904 123.003 586.028 123.412 584.974 123.714 583.92 124.015 582.688 124.165 581.279 124.165 579.906 124.165 578.735 124.057 577.765 123.84 576.796 123.623 576.001 123.322 575.381 122.937 574.76 122.551 574.309 122.091 574.026 121.555 573.742 121.019 573.601 120.431 573.601 119.793 573.601 119.396 573.652 119.016 573.755 118.655 573.857 118.294 574.008 117.947 574.206 117.616 574.405 117.285 574.649 116.969 574.938 116.668 575.227 116.367 575.558 116.077 575.932 115.8 575.414 115.523 575.013 115.147 574.73 114.671 574.447 114.196 574.306 113.675 574.306 113.109 574.306 112.398 574.468 111.751 574.793 111.166 575.119 110.582 575.54 110.055 576.058 109.586 575.636 109.164 575.299 108.658 575.046 108.068 574.793 107.478 574.667 106.743 574.667 105.864 574.667 104.924 574.833 104.084 575.164 103.344 575.495 102.603 575.956 101.977 576.546 101.465 577.136 100.953 577.841 100.561 578.66 100.29 579.479 100.019 580.382 99.8839 581.37 99.8839ZM563.37 99.8839C563.875 99.8839 564.36 99.914 564.824 99.9743 565.288 100.034 565.718 100.119 566.116 100.227L571.228 100.227C571.433 100.227 571.599 100.36 571.725 100.625 571.852 100.89 571.915 101.335 571.915 101.962 571.915 102.54 571.849 102.967 571.716 103.244 571.584 103.521 571.421 103.66 571.228 103.66L569.331 103.66C569.596 103.949 569.786 104.277 569.901 104.644 570.015 105.012 570.072 105.394 570.072 105.792 570.072 106.731 569.916 107.565 569.602 108.294 569.289 109.023 568.841 109.637 568.257 110.137 567.672 110.636 566.968 111.016 566.143 111.275 565.318 111.534 564.399 111.663 563.388 111.663 562.87 111.663 562.376 111.6 561.906 111.474 561.436 111.347 561.075 111.2 560.822 111.031 560.678 111.187 560.548 111.374 560.434 111.591 560.319 111.808 560.262 112.049 560.262 112.314 560.262 112.663 560.416 112.949 560.723 113.172 561.03 113.395 561.461 113.518 562.015 113.542L565.935 113.687C566.85 113.723 567.666 113.852 568.383 114.075 569.1 114.298 569.702 114.611 570.19 115.015 570.677 115.418 571.051 115.903 571.31 116.469 571.569 117.035 571.698 117.679 571.698 118.402 571.698 119.197 571.523 119.947 571.174 120.651 570.825 121.356 570.301 121.967 569.602 122.485 568.904 123.003 568.028 123.412 566.974 123.714 565.92 124.015 564.688 124.165 563.279 124.165 561.906 124.165 560.735 124.057 559.765 123.84 558.796 123.623 558.001 123.322 557.381 122.937 556.76 122.551 556.309 122.091 556.026 121.555 555.742 121.019 555.601 120.431 555.601 119.793 555.601 119.396 555.652 119.016 555.755 118.655 555.857 118.294 556.008 117.947 556.206 117.616 556.405 117.285 556.649 116.969 556.938 116.668 557.227 116.367 557.558 116.077 557.932 115.8 557.414 115.523 557.013 115.147 556.73 114.671 556.447 114.196 556.306 113.675 556.306 113.109 556.306 112.398 556.468 111.751 556.793 111.166 557.119 110.582 557.54 110.055 558.058 109.586 557.636 109.164 557.299 108.658 557.046 108.068 556.793 107.478 556.667 106.743 556.667 105.864 556.667 104.924 556.833 104.084 557.164 103.344 557.495 102.603 557.956 101.977 558.546 101.465 559.136 100.953 559.841 100.561 560.66 100.29 561.479 100.019 562.382 99.8839 563.37 99.8839ZM653.055 99.8117C654.235 99.8117 655.241 100.044 656.072 100.507 656.903 100.971 657.581 101.606 658.105 102.413 658.629 103.22 659.011 104.16 659.252 105.232 659.493 106.304 659.613 107.448 659.613 108.664 659.613 110.097 659.46 111.389 659.153 112.539 658.845 113.69 658.397 114.668 657.807 115.475 657.216 116.282 656.482 116.902 655.602 117.336 654.723 117.77 653.718 117.986 652.585 117.986 652.116 117.986 651.685 117.941 651.294 117.851 650.902 117.761 650.523 117.622 650.155 117.435 649.788 117.249 649.424 117.017 649.062 116.74 648.701 116.463 648.328 116.138 647.942 115.764L647.942 123.352C647.942 123.473 647.906 123.581 647.834 123.677 647.762 123.774 647.638 123.855 647.464 123.921 647.289 123.988 647.057 124.039 646.768 124.075 646.479 124.111 646.112 124.129 645.666 124.129 645.22 124.129 644.853 124.111 644.564 124.075 644.275 124.039 644.043 123.988 643.868 123.921 643.694 123.855 643.57 123.774 643.498 123.677 643.426 123.581 643.39 123.473 643.39 123.352L643.39 100.841C643.39 100.721 643.42 100.616 643.48 100.525 643.54 100.435 643.646 100.36 643.796 100.299 643.947 100.239 644.145 100.194 644.392 100.164 644.639 100.134 644.949 100.119 645.323 100.119 645.684 100.119 645.988 100.134 646.235 100.164 646.482 100.194 646.681 100.239 646.831 100.299 646.982 100.36 647.087 100.435 647.147 100.525 647.208 100.616 647.238 100.721 647.238 100.841L647.238 102.738C647.707 102.257 648.168 101.832 648.62 101.465 649.071 101.097 649.532 100.79 650.002 100.543 650.472 100.296 650.956 100.113 651.456 99.9923 651.956 99.8719 652.489 99.8117 653.055 99.8117ZM632.002 99.8117C633.267 99.8117 634.347 99.9351 635.245 100.182 636.142 100.429 636.88 100.808 637.458 101.32 638.036 101.832 638.458 102.492 638.723 103.298 638.988 104.105 639.12 105.063 639.12 106.171L639.12 117.011C639.12 117.179 639.06 117.312 638.939 117.408 638.819 117.505 638.629 117.574 638.37 117.616 638.111 117.658 637.729 117.679 637.223 117.679 636.681 117.679 636.287 117.658 636.04 117.616 635.793 117.574 635.618 117.505 635.516 117.408 635.413 117.312 635.362 117.179 635.362 117.011L635.362 115.728C634.7 116.439 633.944 116.993 633.095 117.39 632.246 117.788 631.303 117.986 630.268 117.986 629.412 117.986 628.626 117.875 627.91 117.652 627.193 117.429 626.573 117.098 626.049 116.659 625.525 116.219 625.119 115.674 624.83 115.024 624.54 114.373 624.396 113.614 624.396 112.747 624.396 111.808 624.58 110.992 624.947 110.299 625.314 109.607 625.862 109.035 626.591 108.583 627.32 108.131 628.226 107.797 629.31 107.58 630.394 107.363 631.653 107.255 633.086 107.255L634.658 107.255 634.658 106.279C634.658 105.774 634.606 105.331 634.504 104.952 634.402 104.572 634.233 104.256 633.998 104.003 633.763 103.75 633.45 103.563 633.059 103.443 632.667 103.323 632.183 103.262 631.604 103.262 630.846 103.262 630.168 103.347 629.572 103.515 628.976 103.684 628.449 103.871 627.991 104.075 627.533 104.28 627.151 104.467 626.844 104.635 626.537 104.804 626.287 104.888 626.094 104.888 625.962 104.888 625.844 104.846 625.742 104.762 625.639 104.678 625.555 104.557 625.489 104.401 625.423 104.244 625.372 104.051 625.335 103.822 625.299 103.594 625.281 103.341 625.281 103.064 625.281 102.69 625.311 102.395 625.372 102.178 625.432 101.962 625.546 101.766 625.715 101.591 625.883 101.417 626.178 101.224 626.6 101.013 627.022 100.802 627.515 100.607 628.081 100.426 628.648 100.245 629.265 100.098 629.933 99.9833 630.602 99.8689 631.291 99.8117 632.002 99.8117ZM543.061 98.6554 539.755 108.592 546.386 108.592 543.08 98.6554ZM594.449 94.193 597.557 94.193C598.111 94.193 598.586 94.2382 598.984 94.3285 599.381 94.4188 599.725 94.5694 600.014 94.7802 600.303 94.9909 600.544 95.268 600.736 95.6112 600.929 95.9545 601.098 96.379 601.242 96.8849L606.301 110.814 606.373 110.814 611.612 96.921C611.769 96.4152 611.94 95.9876 612.127 95.6383 612.314 95.289 612.531 95.006 612.778 94.7892 613.024 94.5724 613.316 94.4188 613.654 94.3285 613.991 94.2382 614.382 94.193 614.828 94.193L618.026 94.193C618.351 94.193 618.631 94.2352 618.866 94.3195 619.101 94.4038 619.293 94.5272 619.444 94.6898 619.595 94.8524 619.709 95.0512 619.787 95.286 619.866 95.5209 619.905 95.7889 619.905 96.09L619.905 116.921C619.905 117.041 619.872 117.149 619.805 117.246 619.739 117.342 619.619 117.42 619.444 117.481 619.269 117.541 619.038 117.589 618.748 117.625 618.459 117.661 618.092 117.679 617.646 117.679 617.213 117.679 616.852 117.661 616.562 117.625 616.273 117.589 616.044 117.541 615.876 117.481 615.707 117.42 615.587 117.342 615.515 117.246 615.442 117.149 615.406 117.041 615.406 116.921L615.406 97.8966 615.37 97.8966 608.595 116.902C608.547 117.059 608.469 117.189 608.36 117.291 608.252 117.393 608.104 117.475 607.918 117.535 607.731 117.595 607.493 117.634 607.204 117.652 606.915 117.67 606.566 117.679 606.156 117.679 605.747 117.679 605.397 117.664 605.108 117.634 604.819 117.604 604.581 117.556 604.395 117.49 604.208 117.423 604.06 117.342 603.952 117.246 603.844 117.149 603.771 117.035 603.735 116.902L597.195 97.8966 597.159 97.8966 597.159 116.921C597.159 117.041 597.126 117.149 597.06 117.246 596.993 117.342 596.87 117.42 596.689 117.481 596.509 117.541 596.277 117.589 595.994 117.625 595.711 117.661 595.346 117.679 594.901 117.679 594.467 117.679 594.106 117.661 593.817 117.625 593.528 117.589 593.296 117.541 593.121 117.481 592.947 117.42 592.826 117.342 592.76 117.246 592.694 117.149 592.661 117.041 592.661 116.921L592.661 96.09C592.661 95.4757 592.823 95.006 593.148 94.6808 593.474 94.3556 593.907 94.193 594.449 94.193ZM543.134 94.0846C543.844 94.0846 544.41 94.0936 544.832 94.1117 545.253 94.1298 545.582 94.1719 545.817 94.2382 546.051 94.3044 546.22 94.4038 546.322 94.5363 546.425 94.6688 546.512 94.8494 546.584 95.0783L553.811 115.8C553.956 116.234 554.046 116.577 554.082 116.83 554.118 117.083 554.07 117.273 553.937 117.399 553.805 117.526 553.57 117.604 553.233 117.634 552.896 117.664 552.432 117.679 551.842 117.679 551.227 117.679 550.749 117.67 550.405 117.652 550.062 117.634 549.8 117.598 549.62 117.544 549.439 117.49 549.312 117.414 549.24 117.318 549.168 117.222 549.108 117.095 549.06 116.939L547.488 112.241 538.707 112.241 537.226 116.812C537.178 116.981 537.115 117.122 537.036 117.237 536.958 117.351 536.832 117.441 536.657 117.508 536.482 117.574 536.235 117.619 535.916 117.643 535.597 117.667 535.178 117.679 534.661 117.679 534.107 117.679 533.673 117.661 533.36 117.625 533.047 117.589 532.83 117.502 532.709 117.363 532.589 117.225 532.547 117.029 532.583 116.776 532.619 116.523 532.709 116.186 532.854 115.764L540.062 95.0241C540.135 94.8193 540.219 94.6537 540.315 94.5272 540.412 94.4008 540.565 94.3044 540.776 94.2382 540.987 94.1719 541.279 94.1298 541.652 94.1117 542.026 94.0936 542.519 94.0846 543.134 94.0846Z" fill="#5B9BD5" fill-rule="evenodd"/><path d="M561.665 117.387 561.11 117.85 560.738 118.381 560.551 118.802 560.551 119.201 560.687 119.792 561.14 120.163 563.504 120.566 565.095 120.396 566.046 119.92 566.525 119.346 566.65 118.763 566.203 117.869 564.666 117.445ZM579.665 117.387 579.11 117.85 578.738 118.381 578.551 118.802 578.551 119.201 578.687 119.792 579.14 120.163 581.504 120.566 583.095 120.396 584.046 119.92 584.525 119.346 584.65 118.763 584.203 117.869 582.666 117.445ZM579.498 116.384 582.748 116.446C582.789 116.447 582.831 116.453 582.871 116.464L584.684 116.964C584.82 117.002 584.935 117.096 584.998 117.222L585.623 118.472C585.674 118.574 585.688 118.69 585.665 118.801L585.477 119.676C585.46 119.755 585.424 119.829 585.372 119.891L584.747 120.641C584.703 120.694 584.648 120.737 584.587 120.768L583.462 121.331C583.408 121.357 583.351 121.374 583.291 121.381L581.541 121.568C581.496 121.573 581.449 121.572 581.404 121.564L578.842 121.126C578.756 121.112 578.676 121.075 578.609 121.02L577.922 120.458C577.836 120.388 577.776 120.291 577.751 120.183L577.563 119.371C577.555 119.334 577.551 119.296 577.551 119.258L577.551 118.696C577.551 118.626 577.565 118.557 577.594 118.493L577.844 117.93C577.857 117.901 577.873 117.873 577.891 117.847L578.329 117.222C578.354 117.185 578.384 117.153 578.418 117.124L579.168 116.499C579.26 116.422 579.378 116.381 579.498 116.384ZM561.498 116.384 564.748 116.446C564.789 116.447 564.831 116.453 564.871 116.464L566.684 116.964C566.82 117.002 566.935 117.096 566.998 117.222L567.623 118.472C567.674 118.574 567.688 118.69 567.665 118.801L567.477 119.676C567.46 119.755 567.424 119.829 567.372 119.891L566.747 120.641C566.703 120.694 566.648 120.737 566.587 120.768L565.462 121.331C565.408 121.357 565.351 121.374 565.291 121.381L563.541 121.568C563.496 121.573 563.449 121.572 563.404 121.564L560.842 121.126C560.756 121.112 560.676 121.075 560.609 121.02L559.922 120.458C559.836 120.388 559.776 120.291 559.751 120.183L559.563 119.371C559.555 119.334 559.551 119.296 559.551 119.258L559.551 118.696C559.551 118.626 559.565 118.557 559.594 118.493L559.844 117.93C559.857 117.901 559.873 117.873 559.891 117.847L560.329 117.222C560.354 117.185 560.384 117.153 560.418 117.124L561.168 116.499C561.26 116.422 561.378 116.381 561.498 116.384ZM632.926 110.633 631.16 110.812 630.094 111.185 629.572 111.802 629.386 112.594 629.867 113.798 631.315 114.297 632.804 113.871 634.176 112.658 634.176 110.633ZM632.926 109.633 634.676 109.633C634.952 109.633 635.176 109.857 635.176 110.133L635.176 112.883C635.176 113.027 635.114 113.163 635.007 113.258L633.382 114.695C633.326 114.745 633.26 114.781 633.188 114.802L631.438 115.302C631.339 115.33 631.235 115.327 631.138 115.294L629.325 114.669C629.188 114.621 629.078 114.517 629.024 114.382L628.399 112.819C628.361 112.724 628.353 112.619 628.376 112.519L628.626 111.456C628.645 111.38 628.681 111.308 628.732 111.248L629.419 110.435C629.477 110.367 629.551 110.316 629.635 110.286L630.885 109.849C630.923 109.836 630.962 109.827 631.001 109.823ZM651.71 104.213 651.023 104.36 650.191 104.749 649.344 105.427 648.488 106.496 648.488 111.431 650.077 113.075 651.626 113.609 652.828 113.258 653.677 112.251 654.247 110.767 654.423 109.008 654.245 107.164 653.789 105.568 652.953 104.628ZM563.318 103.584 562.37 103.734 561.698 104.214 561.344 104.973 561.191 105.84 561.777 107.493 562.409 107.899 563.413 108.004 564.409 107.847 565.041 107.361 565.45 106.646 565.597 105.863 564.975 104.154ZM581.318 103.584 580.37 103.734 579.698 104.214 579.344 104.973 579.191 105.84 579.777 107.493 580.409 107.899 581.413 108.004 582.409 107.847 583.041 107.361 583.45 106.646 583.597 105.863 582.975 104.154ZM651.633 103.207C651.721 103.188 651.812 103.193 651.896 103.222L653.396 103.722C653.479 103.749 653.554 103.798 653.612 103.864L654.612 104.989C654.662 105.045 654.698 105.111 654.719 105.184L655.219 106.934C655.227 106.963 655.233 106.993 655.236 107.023L655.423 108.96C655.427 108.993 655.426 109.026 655.423 109.058L655.236 110.933C655.231 110.978 655.221 111.021 655.205 111.063L654.58 112.688C654.56 112.74 654.531 112.788 654.496 112.83L653.496 114.018C653.432 114.093 653.348 114.148 653.253 114.176L651.753 114.613C651.654 114.642 651.548 114.64 651.45 114.606L649.638 113.981C649.563 113.955 649.496 113.913 649.441 113.856L647.629 111.981C647.539 111.888 647.488 111.763 647.488 111.633L647.488 106.321C647.488 106.207 647.527 106.097 647.598 106.009L648.598 104.759C648.621 104.73 648.647 104.704 648.676 104.68L649.613 103.93C649.644 103.906 649.678 103.885 649.714 103.868L650.652 103.43C650.686 103.414 650.722 103.402 650.758 103.395ZM581.285 102.577C581.366 102.564 581.448 102.572 581.526 102.598L583.526 103.286C583.669 103.335 583.781 103.446 583.833 103.588L584.583 105.65C584.614 105.734 584.621 105.825 584.605 105.913L584.417 106.913C584.407 106.968 584.387 107.021 584.36 107.069L583.86 107.944C583.827 108.001 583.783 108.052 583.731 108.092L582.918 108.717C582.852 108.768 582.774 108.802 582.691 108.815L581.504 109.002C581.461 109.009 581.417 109.01 581.373 109.006L580.186 108.881C580.108 108.873 580.034 108.846 579.968 108.804L579.093 108.242C579 108.182 578.929 108.093 578.892 107.988L578.204 106.051C578.176 105.969 578.168 105.882 578.183 105.797L578.371 104.734C578.378 104.691 578.392 104.649 578.41 104.609L578.848 103.672C578.884 103.594 578.94 103.527 579.01 103.477L579.885 102.852C579.948 102.806 580.021 102.777 580.098 102.765ZM563.285 102.577C563.366 102.564 563.448 102.572 563.526 102.598L565.526 103.286C565.669 103.335 565.781 103.446 565.833 103.588L566.583 105.65C566.614 105.734 566.621 105.825 566.605 105.913L566.417 106.913C566.407 106.968 566.388 107.021 566.36 107.069L565.86 107.944C565.827 108.001 565.783 108.052 565.731 108.092L564.918 108.717C564.852 108.768 564.774 108.802 564.691 108.815L563.504 109.002C563.461 109.009 563.417 109.01 563.373 109.006L562.186 108.881C562.108 108.873 562.034 108.846 561.968 108.804L561.093 108.242C561 108.182 560.929 108.093 560.892 107.988L560.204 106.051C560.176 105.969 560.168 105.882 560.183 105.797L560.371 104.734C560.378 104.691 560.392 104.649 560.41 104.609L560.848 103.672C560.884 103.594 560.94 103.527 561.01 103.477L561.885 102.852C561.948 102.806 562.021 102.777 562.098 102.765ZM563.444 100.387 560.842 100.801 558.89 101.892 557.644 103.59 557.184 105.89 557.525 107.88 558.527 109.352C558.653 109.537 558.64 109.784 558.496 109.955L557.262 111.425 556.877 113.13 557.188 114.428 558.323 115.449C558.429 115.545 558.489 115.681 558.488 115.824 558.487 115.967 558.425 116.103 558.317 116.197L557.351 117.043 556.673 117.89 556.285 118.834 556.123 119.801 556.502 121.315 557.706 122.519 559.917 123.392 563.293 123.693 566.848 123.272 569.303 122.102 570.719 120.459 571.226 118.432 570.895 116.722 569.912 115.465 568.263 114.612 565.936 114.195 562.035 114.071C561.994 114.069 561.953 114.063 561.913 114.052L560.601 113.677C560.466 113.638 560.354 113.545 560.291 113.42L559.854 112.545C559.798 112.435 559.786 112.308 559.818 112.189L560.006 111.502C560.02 111.45 560.042 111.401 560.072 111.356L560.447 110.794C560.579 110.595 560.833 110.518 561.054 110.609L562.054 111.021 563.423 111.192 566.02 110.838 567.96 109.81 569.143 108.12 569.605 105.813 569.447 104.865 568.927 103.941C568.84 103.786 568.842 103.597 568.932 103.444 569.021 103.29 569.186 103.196 569.363 103.196L571.05 103.196 571.271 103.003 571.421 102.005 571.271 100.908 571.072 100.758 566.176 100.758C566.144 100.758 566.113 100.755 566.082 100.75L564.82 100.507ZM581.444 100.387 578.842 100.801 576.89 101.892 575.644 103.59 575.184 105.89 575.525 107.88 576.527 109.352C576.653 109.537 576.64 109.784 576.496 109.955L575.262 111.425 574.877 113.13 575.188 114.428 576.323 115.449C576.429 115.545 576.489 115.681 576.488 115.824 576.487 115.967 576.425 116.103 576.317 116.197L575.351 117.043 574.673 117.89 574.285 118.834 574.123 119.801 574.502 121.315 575.706 122.519 577.917 123.392 581.293 123.693 584.848 123.272 587.303 122.102 588.719 120.459 589.226 118.432 588.895 116.722 587.912 115.465 586.263 114.612 583.936 114.195 580.035 114.071C579.994 114.069 579.953 114.063 579.913 114.052L578.601 113.677C578.466 113.638 578.354 113.545 578.291 113.42L577.854 112.545C577.798 112.435 577.786 112.308 577.818 112.189L578.006 111.502C578.02 111.45 578.042 111.401 578.072 111.356L578.447 110.794C578.579 110.595 578.833 110.518 579.054 110.609L580.054 111.021 581.423 111.192 584.02 110.838 585.96 109.81 587.143 108.12 587.605 105.813 587.447 104.865 586.927 103.941C586.84 103.786 586.842 103.597 586.932 103.444 587.021 103.29 587.186 103.196 587.363 103.196L589.05 103.196 589.271 103.003 589.421 102.005 589.271 100.908 589.072 100.758 584.176 100.758C584.144 100.758 584.113 100.755 584.082 100.75L582.82 100.507ZM653.085 100.327 651.61 100.498 650.285 101.016 649.004 101.886 647.566 103.136C647.418 103.264 647.209 103.295 647.031 103.213 646.853 103.132 646.738 102.954 646.738 102.758L646.738 100.933 646.721 100.848 646.644 100.786 646.203 100.695 645.396 100.632 644.524 100.686 644.018 100.787 643.943 100.848 643.926 100.933 643.926 123.287 643.957 123.366 644.136 123.485 644.68 123.633 645.676 123.633 646.734 123.633 647.278 123.485 647.457 123.366 647.488 123.287 647.488 115.821C647.488 115.627 647.6 115.45 647.776 115.368 647.952 115.286 648.159 115.313 648.308 115.437L649.385 116.339 650.404 116.998 651.417 117.392 652.585 117.504 655.389 116.919 657.454 115.199 658.688 112.438 659.111 108.69 658.81 105.381 657.692 102.734 655.865 100.965ZM632.044 100.323 630.102 100.495 628.267 100.923 626.846 101.515 626.114 101.986 625.908 102.358 625.803 103.087 625.854 103.723 625.954 104.223 626.104 104.404 626.13 104.414 626.649 104.244 627.881 103.663 629.444 103.1C629.479 103.088 629.515 103.079 629.551 103.075L631.551 102.825C631.586 102.821 631.62 102.82 631.655 102.823L633.155 102.948C633.231 102.954 633.305 102.978 633.37 103.017L634.308 103.58C634.389 103.629 634.455 103.7 634.498 103.785L634.998 104.785C635.025 104.84 635.043 104.9 635.048 104.961L635.176 106.321 635.176 107.258C635.176 107.535 634.952 107.758 634.676 107.758L633.163 107.756 629.475 108.125 626.893 109.064 625.444 110.568 624.937 112.769 625.333 114.867 626.387 116.309 628.081 117.212 630.284 117.502 632.904 116.978 635.063 115.358C635.215 115.245 635.417 115.227 635.587 115.311 635.756 115.396 635.863 115.569 635.863 115.758L635.863 116.953 635.91 117.047 636.155 117.138 637.212 117.197 638.332 117.138 638.634 117.037 638.676 116.953 638.676 106.234 638.259 103.498 637.137 101.703 635.153 100.682ZM543.113 100.277 540.494 108.133 545.732 108.133ZM581.469 99.3853 582.906 99.5103 584.222 99.7584 589.238 99.7584C589.346 99.7584 589.452 99.7935 589.538 99.8584L590.038 100.233C590.145 100.314 590.216 100.433 590.234 100.566L590.421 101.941C590.428 101.988 590.427 102.036 590.42 102.083L590.233 103.333C590.215 103.45 590.157 103.557 590.067 103.635L589.567 104.072C589.476 104.152 589.359 104.196 589.238 104.196L588.218 104.196 588.362 104.451C588.39 104.501 588.409 104.557 588.419 104.614L588.606 105.739C588.616 105.799 588.615 105.86 588.604 105.919L588.104 108.419C588.09 108.487 588.062 108.551 588.023 108.608L586.71 110.483C586.665 110.548 586.605 110.601 586.535 110.638L584.41 111.763C584.358 111.79 584.301 111.808 584.243 111.816L581.493 112.191C581.45 112.197 581.407 112.197 581.364 112.192L579.864 112.005C579.82 111.999 579.776 111.988 579.735 111.971L579.052 111.689 578.949 111.843 578.833 112.268 579.087 112.776 580.128 113.073 584.004 113.196C584.028 113.197 584.053 113.199 584.077 113.204L586.514 113.641C586.563 113.65 586.611 113.666 586.655 113.689L588.468 114.627C588.532 114.66 588.588 114.706 588.632 114.763L589.757 116.2C589.806 116.263 589.839 116.336 589.854 116.413L590.229 118.351C590.243 118.423 590.241 118.496 590.223 118.567L589.661 120.817C589.642 120.893 589.605 120.963 589.554 121.022L587.992 122.835C587.947 122.887 587.891 122.93 587.828 122.96L585.203 124.21C585.154 124.233 585.101 124.249 585.047 124.255L581.36 124.692C581.325 124.697 581.291 124.697 581.256 124.694L577.756 124.381C577.708 124.377 577.662 124.366 577.617 124.349L575.242 123.411C575.178 123.386 575.121 123.348 575.072 123.299L573.697 121.924C573.633 121.86 573.588 121.78 573.566 121.692L573.128 119.942C573.112 119.876 573.109 119.806 573.12 119.739L573.307 118.614C573.314 118.577 573.324 118.54 573.338 118.506L573.776 117.443C573.794 117.399 573.818 117.358 573.848 117.321L574.598 116.384C574.616 116.36 574.637 116.339 574.659 116.32L575.235 115.816 574.404 115.068C574.328 115 574.276 114.911 574.252 114.813L573.877 113.25C573.859 113.176 573.859 113.098 573.875 113.023L574.313 111.086C574.331 111.008 574.367 110.935 574.418 110.874L575.487 109.602 574.637 108.352C574.597 108.293 574.57 108.226 574.558 108.155L574.183 105.968C574.173 105.907 574.173 105.846 574.185 105.785L574.685 103.285C574.7 103.214 574.729 103.146 574.773 103.088L576.148 101.213C576.19 101.155 576.244 101.107 576.307 101.072L578.432 99.8845C578.483 99.8558 578.539 99.8364 578.597 99.8271L581.347 99.3896C581.387 99.3832 581.428 99.3818 581.469 99.3853ZM563.469 99.3853 564.906 99.5103 566.222 99.7584 571.238 99.7584C571.346 99.7584 571.452 99.7935 571.538 99.8584L572.038 100.233C572.145 100.314 572.216 100.433 572.234 100.566L572.421 101.941C572.428 101.988 572.427 102.036 572.42 102.083L572.233 103.333C572.215 103.45 572.157 103.557 572.067 103.635L571.567 104.072C571.476 104.152 571.359 104.196 571.238 104.196L570.218 104.196 570.362 104.451C570.39 104.501 570.409 104.557 570.419 104.614L570.606 105.739C570.616 105.799 570.615 105.86 570.604 105.919L570.104 108.419C570.09 108.487 570.062 108.551 570.023 108.608L568.71 110.483C568.665 110.548 568.605 110.601 568.535 110.638L566.41 111.763C566.358 111.79 566.301 111.808 566.243 111.816L563.493 112.191C563.45 112.197 563.407 112.197 563.364 112.192L561.864 112.005C561.82 111.999 561.776 111.988 561.735 111.971L561.052 111.689 560.949 111.843 560.833 112.268 561.087 112.776 562.128 113.073 566.004 113.196C566.028 113.197 566.053 113.199 566.077 113.204L568.514 113.641C568.563 113.65 568.611 113.666 568.655 113.689L570.468 114.627C570.532 114.66 570.588 114.706 570.632 114.763L571.757 116.2C571.806 116.263 571.839 116.336 571.854 116.413L572.229 118.351C572.243 118.423 572.241 118.496 572.223 118.567L571.661 120.817C571.642 120.893 571.605 120.963 571.554 121.022L569.992 122.835C569.947 122.887 569.891 122.93 569.828 122.96L567.203 124.21C567.154 124.233 567.101 124.249 567.047 124.255L563.36 124.692C563.325 124.697 563.291 124.697 563.256 124.694L559.756 124.381C559.708 124.377 559.662 124.366 559.617 124.349L557.242 123.411C557.178 123.386 557.121 123.348 557.072 123.299L555.697 121.924C555.633 121.86 555.588 121.78 555.566 121.692L555.128 119.942C555.112 119.876 555.109 119.806 555.12 119.739L555.307 118.614C555.314 118.577 555.324 118.54 555.338 118.506L555.776 117.443C555.794 117.399 555.818 117.358 555.848 117.321L556.598 116.384C556.616 116.36 556.637 116.339 556.659 116.32L557.235 115.816 556.404 115.068C556.328 115 556.276 114.911 556.252 114.813L555.877 113.25C555.859 113.176 555.859 113.098 555.875 113.023L556.313 111.086C556.331 111.008 556.367 110.935 556.418 110.874L557.487 109.602 556.637 108.352C556.597 108.293 556.57 108.226 556.558 108.155L556.183 105.968C556.173 105.907 556.173 105.846 556.185 105.785L556.685 103.285C556.7 103.214 556.729 103.146 556.773 103.088L558.148 101.213C558.19 101.155 558.244 101.107 558.307 101.072L560.432 99.8845C560.483 99.8558 560.539 99.8364 560.597 99.8271L563.347 99.3896C563.387 99.3832 563.428 99.3818 563.469 99.3853ZM653.056 99.3242C653.112 99.3177 653.169 99.3209 653.225 99.3336L656.225 100.021C656.314 100.041 656.396 100.086 656.461 100.149L658.461 102.087C658.509 102.134 658.548 102.19 658.574 102.251L659.761 105.064C659.781 105.111 659.794 105.162 659.799 105.213L660.111 108.651C660.114 108.684 660.114 108.718 660.11 108.752L659.673 112.627C659.667 112.678 659.653 112.728 659.632 112.775L658.32 115.712C658.289 115.782 658.242 115.844 658.183 115.893L655.933 117.768C655.87 117.82 655.795 117.856 655.715 117.873L652.715 118.498C652.666 118.508 652.616 118.511 652.566 118.506L651.253 118.381C651.207 118.377 651.162 118.366 651.12 118.349L649.995 117.912C649.963 117.9 649.933 117.884 649.904 117.866L648.842 117.178 648.488 116.885 648.488 123.383C648.488 123.447 648.476 123.51 648.452 123.569L648.327 123.882C648.29 123.976 648.225 124.056 648.141 124.112L647.766 124.362C647.721 124.392 647.672 124.414 647.62 124.428L646.932 124.616C646.889 124.628 646.845 124.633 646.801 124.633L645.676 124.633 644.613 124.633C644.569 124.633 644.525 124.628 644.482 124.616L643.794 124.428C643.742 124.414 643.693 124.392 643.648 124.362L643.273 124.112C643.189 124.056 643.124 123.976 643.086 123.882L642.961 123.569C642.938 123.51 642.926 123.447 642.926 123.383L642.926 100.883C642.926 100.851 642.929 100.818 642.935 100.785L642.998 100.473C643.021 100.358 643.084 100.254 643.176 100.18L643.488 99.9305C643.551 99.8806 643.624 99.8463 643.703 99.8306L644.328 99.7056 645.33 99.6345 646.274 99.6972 646.961 99.8306C647.04 99.8463 647.113 99.8806 647.176 99.9305L647.488 100.18C647.58 100.254 647.643 100.358 647.666 100.473L647.729 100.785C647.735 100.818 647.738 100.851 647.738 100.883L647.738 101.661 648.348 101.131 649.769 100.158C649.8 100.137 649.833 100.119 649.869 100.105L651.306 99.5428C651.346 99.5271 651.388 99.5167 651.431 99.5117ZM632.005 99.323C632.04 99.3199 632.074 99.3203 632.108 99.3242L635.358 99.6992C635.418 99.7061 635.476 99.7238 635.529 99.7513L637.717 100.876C637.797 100.917 637.864 100.98 637.912 101.056L639.162 103.056C639.198 103.114 639.222 103.178 639.232 103.246L639.67 106.121C639.674 106.146 639.676 106.171 639.676 106.196L639.676 117.071C639.676 117.149 639.658 117.225 639.623 117.295L639.435 117.67C639.376 117.788 639.272 117.878 639.146 117.92L638.584 118.108C638.541 118.122 638.497 118.13 638.452 118.133L637.264 118.195 636.024 118.133C635.973 118.13 635.923 118.12 635.875 118.102L635.375 117.914C635.257 117.87 635.16 117.782 635.104 117.67L634.916 117.295C634.881 117.225 634.863 117.149 634.863 117.071L634.863 116.758 633.413 117.846C633.353 117.891 633.284 117.922 633.211 117.936L630.399 118.499C630.345 118.509 630.29 118.511 630.235 118.504L627.86 118.192C627.801 118.184 627.743 118.165 627.69 118.137L625.815 117.137C625.749 117.102 625.691 117.052 625.647 116.991L624.459 115.366C624.416 115.306 624.386 115.237 624.372 115.164L623.934 112.851C623.922 112.783 623.923 112.713 623.938 112.646L624.501 110.209C624.521 110.12 624.565 110.039 624.628 109.974L626.253 108.287C626.306 108.232 626.371 108.19 626.442 108.164L629.192 107.164C629.231 107.149 629.272 107.14 629.313 107.136L633.063 106.761 634.176 106.759 634.176 106.321 634.062 105.149 633.669 104.362 632.956 103.935 631.624 103.824 629.73 104.06 628.22 104.604 627.077 105.148 626.271 105.42C626.159 105.458 626.037 105.454 625.927 105.41L625.615 105.285C625.538 105.254 625.47 105.205 625.417 105.141L625.104 104.766C625.051 104.702 625.014 104.626 624.998 104.544L624.873 103.919 624.802 103.112C624.799 103.075 624.8 103.037 624.806 103L624.931 102.125C624.939 102.065 624.959 102.006 624.989 101.953L625.301 101.391C625.341 101.319 625.398 101.257 625.468 101.213L626.343 100.65C626.368 100.634 626.394 100.621 626.421 100.609L627.921 99.9844C627.946 99.9738 627.973 99.9653 628 99.959L629.875 99.5215ZM543.113 98.1959C543.328 98.1959 543.519 98.3336 543.588 98.5378L546.9 108.475C546.951 108.628 546.925 108.795 546.831 108.926 546.737 109.056 546.586 109.133 546.426 109.133L539.801 109.133C539.64 109.133 539.489 109.056 539.395 108.926 539.301 108.795 539.276 108.628 539.326 108.475L542.639 98.5378C542.707 98.3336 542.898 98.1959 543.113 98.1959ZM594.58 94.6959 593.571 95.0802 593.176 96.2179 593.176 116.85 593.207 116.929 593.368 117.036 593.893 117.134 594.898 117.197 595.961 117.141 596.547 117.035 596.664 116.957 596.676 116.896 596.676 97.9459C596.676 97.6698 596.9 97.4459 597.176 97.4459L597.238 97.4459C597.452 97.4459 597.642 97.5818 597.711 97.7841L604.183 116.702 604.319 116.872 604.601 117.033 605.143 117.134 606.176 117.196 607.193 117.196 607.752 117.094 608.013 116.945 608.163 116.72 614.955 97.7772C615.037 97.5483 615.272 97.4117 615.511 97.4533 615.751 97.495 615.926 97.7028 615.926 97.9459L615.926 116.85 615.957 116.929 616.118 117.036 616.643 117.134 617.648 117.197 618.711 117.141 619.297 117.035 619.414 116.957 619.426 116.896 619.426 96.1717 619.318 95.4744 619.1 95.0383 618.743 94.7999 618.015 94.6959 614.902 94.6959 613.83 94.8652 613.135 95.2126 612.611 95.9464 612.082 97.121 606.894 110.996C606.821 111.191 606.634 111.321 606.426 111.321L606.301 111.321C606.09 111.321 605.901 111.188 605.83 110.99L600.845 97.0886 600.311 95.9027 599.748 95.2369 598.856 94.8698 597.613 94.6959ZM541.711 94.6334 540.992 94.7362 540.753 94.9069 540.585 95.2359 533.348 115.942 533.127 116.828 533.169 117.017 533.471 117.138 534.676 117.196 535.864 117.196 536.47 117.044 536.651 116.924 536.763 116.665 538.263 112.102C538.331 111.897 538.522 111.758 538.738 111.758L547.488 111.758C547.701 111.758 547.891 111.893 547.961 112.095L549.56 116.722 549.689 116.979 549.864 117.095 550.467 117.196 551.841 117.196 553.165 117.136 553.567 117.036 553.6 116.886 553.391 115.986 546.156 95.3365 545.968 94.9138 545.691 94.7403 544.863 94.6334 543.176 94.6334ZM594.488 93.6959 597.613 93.6959 599.056 93.888C599.098 93.8938 599.139 93.9049 599.179 93.9211L600.241 94.3586C600.315 94.3891 600.381 94.4369 600.432 94.498L601.12 95.3105C601.15 95.3461 601.175 95.3857 601.194 95.4283L601.757 96.6783 606.372 109.538 611.145 96.7708 611.72 95.4908C611.733 95.4607 611.75 95.4321 611.769 95.4053L612.394 94.5303C612.441 94.464 612.504 94.4102 612.577 94.3737L613.452 93.9362C613.498 93.9133 613.547 93.8976 613.598 93.8895L614.785 93.702C614.811 93.698 614.837 93.6959 614.863 93.6959L618.051 93.6959C618.074 93.6959 618.098 93.6976 618.121 93.701L618.996 93.826C619.07 93.8365 619.141 93.8635 619.203 93.9049L619.766 94.2799C619.838 94.3282 619.896 94.3945 619.935 94.4723L620.248 95.0973C620.271 95.1438 620.287 95.1936 620.295 95.2449L620.42 96.0574C620.424 96.0826 620.426 96.108 620.426 96.1334L620.426 116.946C620.426 116.979 620.422 117.012 620.416 117.044L620.354 117.356C620.327 117.487 620.251 117.601 620.141 117.674L619.766 117.924C619.709 117.962 619.645 117.988 619.578 118L618.89 118.125 617.703 118.195 616.584 118.133 615.836 118C615.769 117.988 615.705 117.962 615.648 117.924L615.273 117.674C615.189 117.618 615.124 117.538 615.086 117.444L614.961 117.132C614.938 117.073 614.926 117.01 614.926 116.946L614.926 100.822 609.084 117.115C609.07 117.153 609.052 117.189 609.029 117.223L608.779 117.598C608.736 117.663 608.679 117.717 608.611 117.755L608.174 118.005C608.125 118.033 608.071 118.053 608.015 118.063L607.328 118.188C607.298 118.193 607.268 118.196 607.238 118.196L606.176 118.196 605.084 118.133 604.336 118C604.281 117.99 604.227 117.971 604.178 117.943L603.74 117.693C603.685 117.661 603.637 117.62 603.598 117.571L603.348 117.258C603.312 117.213 603.284 117.162 603.265 117.108L597.676 100.769 597.676 116.946C597.676 116.979 597.672 117.012 597.666 117.044L597.604 117.356C597.577 117.487 597.501 117.601 597.391 117.674L597.016 117.924C596.959 117.962 596.895 117.988 596.828 118L596.14 118.125 594.953 118.195 593.834 118.133 593.086 118C593.019 117.988 592.955 117.962 592.898 117.924L592.523 117.674C592.439 117.618 592.374 117.538 592.336 117.444L592.211 117.132C592.188 117.073 592.176 117.01 592.176 116.946L592.176 96.1334C592.176 96.0775 592.185 96.022 592.203 95.9692L592.703 94.5317C592.752 94.3922 592.86 94.2813 592.998 94.2287L594.31 93.7287C594.367 93.707 594.427 93.6959 594.488 93.6959ZM541.676 93.6334 543.176 93.6334 544.863 93.6334 545.925 93.7623C545.997 93.7713 546.067 93.7959 546.128 93.8344L546.628 94.1469C546.713 94.1998 546.78 94.2767 546.82 94.3679L547.07 94.9304 554.335 115.656 554.6 116.769C554.617 116.842 554.618 116.918 554.601 116.992L554.476 117.554C554.435 117.739 554.293 117.885 554.109 117.931L553.359 118.118C553.327 118.127 553.294 118.131 553.261 118.133L551.886 118.195 550.426 118.196C550.398 118.196 550.371 118.194 550.344 118.189L549.594 118.064C549.524 118.052 549.457 118.026 549.398 117.987L549.023 117.737C548.951 117.689 548.892 117.622 548.854 117.545L548.666 117.17 547.133 112.758 539.1 112.758 537.713 116.977 537.51 117.455C537.472 117.545 537.409 117.621 537.328 117.674L536.953 117.924C536.905 117.956 536.853 117.98 536.797 117.993L536.047 118.181C536.007 118.191 535.967 118.196 535.926 118.196L534.676 118.196 533.339 118.133C533.284 118.13 533.229 118.118 533.177 118.098L532.552 117.848C532.399 117.786 532.286 117.653 532.25 117.492L532.125 116.929C532.108 116.854 532.109 116.775 532.128 116.7L532.378 115.7 539.641 94.906 539.916 94.3473C539.952 94.2744 540.006 94.2115 540.073 94.1641L540.51 93.8516C540.575 93.805 540.651 93.7748 540.73 93.7635L541.605 93.6385C541.628 93.6351 541.652 93.6334 541.676 93.6334Z" fill="#5B9BD5" fill-rule="evenodd"/><path d="M577.939 115.296C577.625 115.525 577.376 115.745 577.189 115.956 577.002 116.166 576.852 116.368 576.737 116.561 576.623 116.754 576.547 116.94 576.511 117.121 576.475 117.302 576.457 117.488 576.457 117.681 576.457 118.283 576.761 118.741 577.37 119.054 577.978 119.367 578.836 119.524 579.944 119.524 580.63 119.524 581.209 119.455 581.678 119.316 582.148 119.177 582.527 118.994 582.817 118.765 583.106 118.536 583.31 118.28 583.431 117.997 583.551 117.714 583.611 117.416 583.611 117.103 583.611 116.561 583.395 116.145 582.961 115.856 582.527 115.567 581.931 115.411 581.172 115.387ZM559.939 115.296C559.625 115.525 559.376 115.745 559.189 115.956 559.002 116.166 558.852 116.368 558.737 116.561 558.623 116.754 558.547 116.94 558.511 117.121 558.475 117.302 558.457 117.488 558.457 117.681 558.457 118.283 558.761 118.741 559.37 119.054 559.978 119.367 560.836 119.524 561.944 119.524 562.63 119.524 563.209 119.455 563.678 119.316 564.148 119.177 564.527 118.994 564.817 118.765 565.106 118.536 565.31 118.28 565.431 117.997 565.551 117.714 565.611 117.416 565.611 117.103 565.611 116.561 565.395 116.145 564.961 115.856 564.527 115.567 563.931 115.411 563.172 115.387ZM631.389 108.576C630.655 108.576 630.028 108.63 629.51 108.738 628.992 108.847 628.571 109.009 628.246 109.226 627.921 109.443 627.683 109.705 627.532 110.012 627.382 110.319 627.306 110.671 627.306 111.069 627.306 111.743 627.52 112.273 627.948 112.659 628.375 113.044 628.968 113.237 629.727 113.237 630.366 113.237 630.953 113.074 631.489 112.749 632.025 112.424 632.57 111.948 633.124 111.322L633.124 108.576ZM650.184 102.162C649.883 102.162 649.585 102.207 649.29 102.297 648.995 102.388 648.694 102.535 648.387 102.74 648.079 102.945 647.763 103.21 647.438 103.535 647.113 103.86 646.77 104.264 646.408 104.745L646.408 110.057C647.047 110.864 647.655 111.487 648.233 111.927 648.811 112.366 649.413 112.586 650.04 112.586 650.63 112.586 651.133 112.436 651.548 112.135 651.964 111.834 652.304 111.439 652.569 110.951 652.834 110.463 653.03 109.912 653.156 109.298 653.283 108.684 653.346 108.07 653.346 107.455 653.346 106.769 653.295 106.109 653.192 105.477 653.09 104.845 652.915 104.282 652.668 103.788 652.421 103.294 652.096 102.9 651.693 102.605 651.289 102.31 650.786 102.162 650.184 102.162ZM579.781 101.493C579.336 101.493 578.944 101.569 578.607 101.719 578.27 101.87 577.99 102.075 577.767 102.334 577.544 102.593 577.379 102.894 577.27 103.237 577.162 103.58 577.108 103.938 577.108 104.312 577.108 105.131 577.348 105.778 577.83 106.254 578.312 106.73 578.98 106.968 579.836 106.968 580.293 106.968 580.691 106.895 581.028 106.751 581.365 106.606 581.645 106.408 581.868 106.155 582.091 105.902 582.259 105.61 582.374 105.278 582.488 104.947 582.546 104.601 582.546 104.24 582.546 103.372 582.305 102.698 581.823 102.216 581.341 101.734 580.661 101.493 579.781 101.493ZM561.781 101.493C561.336 101.493 560.944 101.569 560.607 101.719 560.27 101.87 559.99 102.075 559.767 102.334 559.544 102.593 559.379 102.894 559.27 103.237 559.162 103.58 559.108 103.938 559.108 104.312 559.108 105.131 559.348 105.778 559.83 106.254 560.312 106.73 560.98 106.968 561.836 106.968 562.293 106.968 562.691 106.895 563.028 106.751 563.365 106.606 563.645 106.408 563.868 106.155 564.091 105.902 564.259 105.61 564.374 105.278 564.488 104.947 564.546 104.601 564.546 104.24 564.546 103.372 564.305 102.698 563.823 102.216 563.341 101.734 562.661 101.493 561.781 101.493ZM579.836 98.3499C580.341 98.3499 580.826 98.3801 581.29 98.4403 581.754 98.5005 582.184 98.5848 582.582 98.6932L587.694 98.6932C587.899 98.6932 588.065 98.8257 588.191 99.0907 588.318 99.3556 588.381 99.8013 588.381 100.428 588.381 101.006 588.315 101.433 588.182 101.71 588.05 101.987 587.887 102.126 587.694 102.126L585.797 102.126C586.062 102.415 586.252 102.743 586.367 103.11 586.481 103.478 586.538 103.86 586.538 104.258 586.538 105.197 586.382 106.031 586.068 106.76 585.755 107.489 585.307 108.103 584.723 108.603 584.138 109.102 583.434 109.482 582.609 109.741 581.784 110 580.865 110.129 579.854 110.129 579.336 110.129 578.842 110.066 578.372 109.94 577.902 109.813 577.541 109.666 577.288 109.497 577.144 109.653 577.014 109.84 576.9 110.057 576.785 110.274 576.728 110.515 576.728 110.78 576.728 111.129 576.882 111.415 577.189 111.638 577.496 111.861 577.927 111.984 578.481 112.008L582.401 112.153C583.316 112.189 584.132 112.318 584.849 112.541 585.566 112.764 586.168 113.077 586.656 113.481 587.143 113.884 587.517 114.369 587.776 114.935 588.035 115.501 588.164 116.145 588.164 116.868 588.164 117.663 587.99 118.413 587.64 119.117 587.291 119.822 586.767 120.433 586.068 120.951 585.37 121.469 584.494 121.878 583.44 122.18 582.386 122.481 581.154 122.631 579.745 122.631 578.372 122.631 577.201 122.523 576.231 122.306 575.262 122.089 574.467 121.788 573.847 121.403 573.226 121.017 572.775 120.557 572.492 120.021 572.209 119.485 572.067 118.897 572.067 118.259 572.067 117.862 572.118 117.482 572.221 117.121 572.323 116.76 572.474 116.413 572.672 116.082 572.871 115.751 573.115 115.435 573.404 115.134 573.693 114.833 574.024 114.543 574.398 114.266 573.88 113.989 573.479 113.613 573.196 113.137 572.913 112.662 572.772 112.141 572.772 111.575 572.772 110.864 572.934 110.217 573.259 109.632 573.585 109.048 574.006 108.521 574.524 108.052 574.102 107.63 573.765 107.124 573.512 106.534 573.259 105.944 573.133 105.209 573.133 104.33 573.133 103.39 573.299 102.55 573.63 101.81 573.961 101.069 574.422 100.443 575.012 99.9308 575.602 99.4189 576.307 99.0274 577.126 98.7564 577.945 98.4854 578.848 98.3499 579.836 98.3499ZM561.836 98.3499C562.341 98.3499 562.826 98.3801 563.29 98.4403 563.754 98.5005 564.184 98.5848 564.582 98.6932L569.694 98.6932C569.899 98.6932 570.065 98.8257 570.191 99.0907 570.318 99.3556 570.381 99.8013 570.381 100.428 570.381 101.006 570.315 101.433 570.182 101.71 570.05 101.987 569.887 102.126 569.694 102.126L567.797 102.126C568.062 102.415 568.252 102.743 568.367 103.11 568.481 103.478 568.538 103.86 568.538 104.258 568.538 105.197 568.382 106.031 568.068 106.76 567.755 107.489 567.307 108.103 566.723 108.603 566.138 109.102 565.434 109.482 564.609 109.741 563.784 110 562.865 110.129 561.854 110.129 561.336 110.129 560.842 110.066 560.372 109.94 559.902 109.813 559.541 109.666 559.288 109.497 559.144 109.653 559.014 109.84 558.9 110.057 558.785 110.274 558.728 110.515 558.728 110.78 558.728 111.129 558.882 111.415 559.189 111.638 559.496 111.861 559.927 111.984 560.481 112.008L564.401 112.153C565.316 112.189 566.132 112.318 566.849 112.541 567.566 112.764 568.168 113.077 568.656 113.481 569.143 113.884 569.517 114.369 569.776 114.935 570.035 115.501 570.164 116.145 570.164 116.868 570.164 117.663 569.99 118.413 569.64 119.117 569.291 119.822 568.767 120.433 568.068 120.951 567.37 121.469 566.494 121.878 565.44 122.18 564.386 122.481 563.154 122.631 561.745 122.631 560.372 122.631 559.201 122.523 558.231 122.306 557.262 122.089 556.467 121.788 555.847 121.403 555.226 121.017 554.775 120.557 554.492 120.021 554.209 119.485 554.067 118.897 554.067 118.259 554.067 117.862 554.118 117.482 554.221 117.121 554.323 116.76 554.474 116.413 554.672 116.082 554.871 115.751 555.115 115.435 555.404 115.134 555.693 114.833 556.024 114.543 556.398 114.266 555.88 113.989 555.479 113.613 555.196 113.137 554.913 112.662 554.772 112.141 554.772 111.575 554.772 110.864 554.934 110.217 555.259 109.632 555.585 109.048 556.006 108.521 556.524 108.052 556.102 107.63 555.765 107.124 555.512 106.534 555.259 105.944 555.133 105.209 555.133 104.33 555.133 103.39 555.299 102.55 555.63 101.81 555.961 101.069 556.422 100.443 557.012 99.9308 557.602 99.4189 558.307 99.0274 559.126 98.7564 559.945 98.4854 560.848 98.3499 561.836 98.3499ZM651.521 98.2777C652.701 98.2777 653.707 98.5095 654.538 98.9732 655.369 99.4369 656.047 100.072 656.571 100.879 657.095 101.686 657.477 102.626 657.718 103.698 657.959 104.77 658.079 105.914 658.079 107.13 658.079 108.563 657.926 109.855 657.619 111.005 657.311 112.156 656.863 113.134 656.273 113.941 655.682 114.748 654.948 115.368 654.068 115.802 653.189 116.236 652.184 116.452 651.051 116.452 650.582 116.452 650.151 116.407 649.76 116.317 649.368 116.227 648.989 116.088 648.621 115.901 648.254 115.715 647.89 115.483 647.528 115.206 647.167 114.929 646.794 114.604 646.408 114.23L646.408 121.818C646.408 121.939 646.372 122.047 646.3 122.143 646.228 122.24 646.104 122.321 645.93 122.387 645.755 122.454 645.523 122.505 645.234 122.541 644.945 122.577 644.578 122.595 644.132 122.595 643.686 122.595 643.319 122.577 643.03 122.541 642.741 122.505 642.509 122.454 642.334 122.387 642.16 122.321 642.036 122.24 641.964 122.143 641.892 122.047 641.856 121.939 641.856 121.818L641.856 99.3075C641.856 99.187 641.886 99.0816 641.946 98.9913 642.006 98.901 642.112 98.8257 642.262 98.7655 642.413 98.7053 642.611 98.6601 642.858 98.63 643.105 98.5999 643.415 98.5848 643.789 98.5848 644.15 98.5848 644.454 98.5999 644.701 98.63 644.948 98.6601 645.147 98.7053 645.297 98.7655 645.448 98.8257 645.553 98.901 645.613 98.9913 645.674 99.0816 645.704 99.187 645.704 99.3075L645.704 101.204C646.173 100.723 646.634 100.298 647.086 99.9308 647.537 99.5634 647.998 99.2563 648.468 99.0094 648.938 98.7625 649.422 98.5788 649.922 98.4583 650.422 98.3379 650.955 98.2777 651.521 98.2777ZM630.468 98.2777C631.733 98.2777 632.814 98.4011 633.711 98.648 634.608 98.895 635.346 99.2743 635.924 99.7862 636.502 100.298 636.924 100.958 637.189 101.764 637.454 102.571 637.586 103.529 637.586 104.637L637.586 115.477C637.586 115.646 637.526 115.778 637.405 115.874 637.285 115.971 637.095 116.04 636.836 116.082 636.577 116.124 636.195 116.145 635.689 116.145 635.147 116.145 634.753 116.124 634.506 116.082 634.259 116.04 634.084 115.971 633.982 115.874 633.879 115.778 633.828 115.646 633.828 115.477L633.828 114.194C633.166 114.905 632.41 115.459 631.561 115.856 630.712 116.254 629.769 116.452 628.734 116.452 627.878 116.452 627.092 116.341 626.376 116.118 625.659 115.895 625.039 115.564 624.515 115.125 623.991 114.685 623.585 114.14 623.296 113.49 623.006 112.839 622.862 112.08 622.862 111.213 622.862 110.274 623.046 109.458 623.413 108.765 623.78 108.073 624.328 107.501 625.057 107.049 625.786 106.597 626.692 106.263 627.776 106.046 628.86 105.829 630.119 105.721 631.552 105.721L633.124 105.721 633.124 104.745C633.124 104.24 633.072 103.797 632.97 103.418 632.868 103.038 632.699 102.722 632.464 102.469 632.229 102.216 631.916 102.029 631.525 101.909 631.133 101.789 630.649 101.728 630.07 101.728 629.312 101.728 628.634 101.813 628.038 101.981 627.442 102.15 626.915 102.337 626.457 102.541 625.999 102.746 625.617 102.933 625.31 103.101 625.003 103.27 624.753 103.354 624.56 103.354 624.428 103.354 624.31 103.312 624.208 103.228 624.106 103.144 624.021 103.023 623.955 102.867 623.889 102.71 623.838 102.517 623.801 102.288 623.765 102.06 623.747 101.807 623.747 101.53 623.747 101.156 623.777 100.861 623.838 100.644 623.898 100.428 624.012 100.232 624.181 100.057 624.349 99.8826 624.644 99.6899 625.066 99.4791 625.488 99.2683 625.981 99.0726 626.547 98.8919 627.114 98.7113 627.731 98.5637 628.399 98.4493 629.068 98.3349 629.757 98.2777 630.468 98.2777ZM541.527 97.1214 538.221 107.058 544.852 107.058 541.546 97.1214ZM592.915 92.659 596.023 92.659C596.577 92.659 597.052 92.7042 597.45 92.7945 597.847 92.8849 598.191 93.0354 598.48 93.2462 598.769 93.457 599.01 93.734 599.202 94.0772 599.395 94.4205 599.564 94.8451 599.708 95.3509L604.767 109.28 604.839 109.28 610.078 95.3871C610.235 94.8812 610.406 94.4536 610.593 94.1043 610.78 93.7551 610.997 93.472 611.244 93.2552 611.49 93.0384 611.783 92.8849 612.12 92.7945 612.457 92.7042 612.848 92.659 613.294 92.659L616.492 92.659C616.817 92.659 617.097 92.7012 617.332 92.7855 617.567 92.8698 617.759 92.9933 617.91 93.1559 618.061 93.3185 618.175 93.5172 618.253 93.752 618.332 93.9869 618.371 94.2549 618.371 94.556L618.371 115.387C618.371 115.507 618.338 115.615 618.271 115.712 618.205 115.808 618.085 115.886 617.91 115.947 617.735 116.007 617.504 116.055 617.214 116.091 616.925 116.127 616.558 116.145 616.112 116.145 615.679 116.145 615.318 116.127 615.028 116.091 614.739 116.055 614.511 116.007 614.342 115.947 614.173 115.886 614.053 115.808 613.981 115.712 613.908 115.615 613.872 115.507 613.872 115.387L613.872 96.3626 613.836 96.3626 607.061 115.368C607.013 115.525 606.935 115.655 606.826 115.757 606.718 115.859 606.57 115.941 606.384 116.001 606.197 116.061 605.959 116.1 605.67 116.118 605.381 116.136 605.032 116.145 604.622 116.145 604.213 116.145 603.863 116.13 603.574 116.1 603.285 116.07 603.047 116.022 602.861 115.956 602.674 115.889 602.526 115.808 602.418 115.712 602.31 115.615 602.237 115.501 602.201 115.368L595.661 96.3626 595.625 96.3626 595.625 115.387C595.625 115.507 595.592 115.615 595.526 115.712 595.46 115.808 595.336 115.886 595.155 115.947 594.975 116.007 594.743 116.055 594.46 116.091 594.177 116.127 593.812 116.145 593.367 116.145 592.933 116.145 592.572 116.127 592.283 116.091 591.994 116.055 591.762 116.007 591.587 115.947 591.413 115.886 591.292 115.808 591.226 115.712 591.16 115.615 591.127 115.507 591.127 115.387L591.127 94.556C591.127 93.9417 591.289 93.472 591.614 93.1468 591.94 92.8216 592.373 92.659 592.915 92.659ZM541.6 92.5506C542.31 92.5506 542.876 92.5597 543.298 92.5777 543.72 92.5958 544.048 92.638 544.283 92.7042 544.517 92.7704 544.686 92.8698 544.788 93.0023 544.891 93.1348 544.978 93.3154 545.05 93.5443L552.277 114.266C552.422 114.7 552.512 115.043 552.548 115.296 552.584 115.549 552.536 115.739 552.403 115.865 552.271 115.992 552.036 116.07 551.699 116.1 551.362 116.13 550.898 116.145 550.308 116.145 549.693 116.145 549.215 116.136 548.871 116.118 548.528 116.1 548.266 116.064 548.086 116.01 547.905 115.956 547.778 115.88 547.706 115.784 547.634 115.688 547.574 115.561 547.526 115.405L545.954 110.707 537.173 110.707 535.692 115.278C535.644 115.447 535.581 115.588 535.502 115.703 535.424 115.817 535.298 115.907 535.123 115.974 534.948 116.04 534.701 116.085 534.382 116.109 534.063 116.133 533.644 116.145 533.127 116.145 532.573 116.145 532.139 116.127 531.826 116.091 531.513 116.055 531.296 115.968 531.175 115.829 531.055 115.691 531.013 115.495 531.049 115.242 531.085 114.989 531.175 114.652 531.32 114.23L538.528 93.4901C538.601 93.2853 538.685 93.1197 538.781 92.9933 538.878 92.8668 539.031 92.7704 539.242 92.7042 539.453 92.638 539.745 92.5958 540.118 92.5777 540.492 92.5597 540.985 92.5506 541.6 92.5506Z" stroke="#FFFFFF" stroke-linejoin="round" stroke-miterlimit="10" fill="#262626" fill-rule="evenodd"/><text fill="#000000" fill-opacity="0" font-family="Arial,Arial_MSFontService,sans-serif" font-size="30.0806" x="531.036" y="118.871">AggMap</text></g></svg>