<svg width="674" height="650" xmlns="http://www.w3.org/2000/svg" xmlns:xlink="http://www.w3.org/1999/xlink" overflow="hidden"><defs><clipPath id="clip0"><rect x="238" y="27" width="674" height="650"/></clipPath></defs><g clip-path="url(#clip0)" transform="translate(-238 -27)"><path d="M414.599 237.931 413.998 237.931C412.361 237.931 410.862 238.771 409.923 240.117 404.499 247.899 395.512 252.991 385.335 252.991 368.112 252.991 354.277 238.418 355.399 220.882 356.307 206.676 369.148 193.754 383.294 192.814 394.313 192.082 404.154 197.33 409.936 205.639 410.867 206.978 412.364 207.806 413.993 207.806L414.599 207.806C417.306 207.806 419.5 205.602 419.5 202.885L419.5 132.5 239.5 132.5C239.5 132.5 239.5 240.134 239.5 242.852L239.5 313.237 309.598 313.237C312.305 313.237 314.499 315.44 314.499 318.158L314.499 318.601C314.499 320.234 313.674 321.737 312.341 322.675 304.064 328.479 298.837 338.365 299.568 349.431 300.506 363.635 313.377 376.526 327.525 377.436 344.988 378.559 359.5 364.67 359.5 347.378 359.5 337.159 354.428 328.135 346.679 322.689 345.338 321.746 344.501 320.24 344.501 318.596L344.501 318.158C344.501 315.44 346.697 313.237 349.402 313.237L419.5 313.237 419.5 242.852C419.5 240.135 417.305 237.931 414.599 237.931Z" stroke="#FFFFFF" stroke-miterlimit="8" fill="#ED7D31" fill-rule="evenodd"/><path d="M454.64 373.814C443.659 373.08 433.848 378.33 428.086 386.639 427.158 387.978 425.664 388.806 424.043 388.806L423.77 388.806C421.072 388.806 418.886 386.603 418.886 383.885L418.886 313.5 349.027 313.5C346.329 313.5 344.142 315.703 344.142 318.421L344.142 318.859C344.142 320.503 344.977 322.009 346.313 322.952 354.036 328.396 359.091 337.422 359.091 347.641 359.091 364.935 344.628 378.824 327.224 377.7 313.125 376.789 300.298 363.897 299.363 349.694 298.634 338.628 303.845 328.745 312.092 322.938 313.421 322.002 314.243 320.499 314.243 318.864L314.243 318.421C314.243 315.703 312.055 313.5 309.359 313.5L239.5 313.5 239.5 494.237 309.359 494.237C312.057 494.237 314.243 496.44 314.243 499.158L314.243 499.601C314.243 501.234 313.421 502.737 312.092 503.675 303.843 509.48 298.634 519.365 299.363 530.431 300.298 544.635 313.125 557.526 327.224 558.437 344.628 559.559 359.091 545.67 359.091 528.378 359.091 518.159 354.036 509.135 346.313 503.689 344.977 502.746 344.142 501.24 344.142 499.596L344.142 499.158C344.142 496.44 346.33 494.237 349.027 494.237L418.886 494.237 418.886 423.852C418.886 421.134 421.072 418.931 423.77 418.931L424.038 418.931C425.67 418.931 427.163 419.772 428.098 421.117 433.502 428.899 442.46 433.991 452.603 433.991 469.767 433.991 483.553 419.418 482.437 401.882 481.489 386.944 469.464 374.803 454.64 373.814Z" stroke="#FFFFFF" stroke-miterlimit="8" fill="#843C0C" fill-rule="evenodd"/><path d="M662.436 221.011C661.484 206.052 649.417 193.892 634.544 192.902 623.524 192.167 613.68 197.425 607.899 205.746 606.969 207.087 605.47 207.917 603.844 207.917L603.57 207.917C600.864 207.917 598.668 205.711 598.668 202.988L598.668 132.5 418.666 132.5 418.666 132.5 418.666 202.988C418.666 205.711 416.472 207.917 413.764 207.917L413.158 207.917C411.53 207.917 410.033 207.087 409.101 205.746 403.32 197.425 393.476 192.167 382.459 192.9 368.313 193.842 355.47 206.783 354.564 221.009 353.444 238.572 367.277 253.166 384.5 253.166 394.678 253.166 403.665 248.066 409.089 240.274 410.027 238.924 411.528 238.084 413.164 238.084L413.764 238.084C416.47 238.084 418.666 240.291 418.666 243.012L418.666 313.5 418.666 313.5 418.943 313.5 418.943 313.328 489.042 313.328C491.75 313.328 493.943 311.123 493.943 308.4L493.943 307.962C493.943 306.316 493.106 304.807 491.765 303.865 484.016 298.41 478.944 289.374 478.944 279.139 478.944 261.82 493.456 247.911 510.92 249.037 525.067 249.948 537.937 262.859 538.877 277.083 539.608 288.165 534.381 298.064 526.102 303.879 524.769 304.816 523.944 306.321 523.944 307.958L523.944 308.402C523.944 311.124 526.138 313.33 528.847 313.33L598.667 313.33 598.667 243.014C598.667 240.291 600.86 238.085 603.568 238.085L603.836 238.085C605.474 238.085 606.974 238.927 607.911 240.275 613.335 248.068 622.322 253.168 632.5 253.168 649.723 253.168 663.558 238.573 662.436 221.011Z" stroke="#FFFFFF" stroke-miterlimit="8" fill="#A9D18E" fill-rule="evenodd"/><path d="M509.478 558.436C524.354 557.477 536.447 545.333 537.432 530.363 538.163 519.271 532.934 509.363 524.658 503.544 523.325 502.608 522.5 501.1 522.5 499.463L522.5 499.187C522.5 496.464 524.694 494.254 527.401 494.254L597.5 494.254 597.5 313.082 597.5 313.082 527.401 313.082C524.694 313.082 522.5 310.875 522.5 308.149L522.5 307.539C522.5 305.9 523.325 304.393 524.658 303.456 532.934 297.637 538.163 287.729 537.434 276.641 536.497 262.403 523.627 249.477 509.48 248.564 492.014 247.437 477.501 261.36 477.501 278.695 477.501 288.939 482.573 297.984 490.322 303.443 491.664 304.388 492.5 305.898 492.5 307.545L492.5 308.149C492.5 310.873 490.304 313.082 487.598 313.082L417.5 313.082 417.5 313.082 417.5 313.362 417.671 313.362 417.671 383.916C417.671 386.641 419.864 388.849 422.572 388.849L423.008 388.849C424.645 388.849 426.145 388.006 427.082 386.657 432.506 378.857 441.493 373.752 451.671 373.752 468.894 373.752 482.727 388.359 481.607 405.935 480.701 420.175 467.861 433.128 453.715 434.075 442.695 434.81 432.851 429.549 427.068 421.216 426.137 419.874 424.64 419.044 423.011 419.044L422.57 419.044C419.863 419.044 417.669 421.252 417.669 423.979L417.669 494.252 487.597 494.252C490.304 494.252 492.498 496.46 492.498 499.185L492.498 499.456C492.498 501.103 491.661 502.614 490.32 503.557 482.571 509.016 477.499 518.061 477.499 528.305 477.499 545.64 492.013 559.565 509.478 558.436Z" stroke="#FFFFFF" stroke-miterlimit="8" fill="#FFD966" fill-rule="evenodd"/><path d="M344.5 499.429 344.5 500.033C344.5 501.679 345.338 503.186 346.678 504.13 354.428 509.584 359.5 518.621 359.5 528.855 359.5 546.174 344.986 560.086 327.521 558.958 313.373 558.044 300.504 545.132 299.567 530.907 298.838 519.828 304.065 509.931 312.341 504.118 313.674 503.181 314.499 501.676 314.499 500.038L314.499 499.429C314.499 496.706 312.303 494.5 309.598 494.5L239.5 494.5 239.5 675.5C239.5 675.5 346.694 675.5 349.402 675.5L419.499 675.5 419.499 605.013C419.499 602.29 421.693 600.084 424.401 600.084L424.841 600.084C426.468 600.084 427.965 600.914 428.898 602.255 434.68 610.578 444.525 615.834 455.545 615.099 469.691 614.155 482.53 601.212 483.437 586.986 484.555 569.426 470.722 554.833 453.501 554.833 443.323 554.833 434.336 559.934 428.912 567.726 427.974 569.074 426.473 569.916 424.836 569.916L424.401 569.916C421.693 569.916 419.499 567.708 419.499 564.987L419.499 494.5 349.402 494.5C346.696 494.5 344.5 496.708 344.5 499.429Z" stroke="#FFFFFF" stroke-miterlimit="8" fill="#2E75B6" fill-rule="evenodd"/><path d="M718.347 212.279 718.725 211.808C719.754 210.525 720.044 208.827 719.589 207.253 716.959 198.154 718.656 187.939 725.057 179.964 735.888 166.469 755.903 164.71 768.813 176.517 779.271 186.08 781.229 204.194 773.063 215.864 766.702 224.954 756.438 229.395 746.351 228.748 744.726 228.643 743.141 229.3 742.117 230.576L741.736 231.051C740.033 233.173 740.365 236.265 742.475 237.958L797.123 281.818 910.319 140.778C910.319 140.778 826.751 73.7068 824.64 72.0127L769.992 28.1533 725.91 83.0789C724.207 85.2003 721.117 85.5467 719.006 83.8525L718.662 83.5767C717.394 82.5589 716.746 80.9761 716.857 79.3473 717.555 69.2442 713.167 58.9887 704.116 52.6659 692.497 44.5504 674.394 46.6024 664.79 57.1205 652.936 70.1042 654.594 90.1303 668.02 100.906 675.954 107.274 686.15 108.922 695.252 106.244 696.827 105.781 698.523 106.064 699.799 107.088L700.139 107.361C702.25 109.055 702.579 112.148 700.878 114.268L656.796 169.193 711.443 213.053C713.553 214.746 716.645 214.399 718.347 212.279Z" stroke="#FFFFFF" stroke-miterlimit="8" fill="#E2F0D9" fill-rule="evenodd"/><path d="M560.474 434.187C571.501 434.92 581.353 429.67 587.138 421.361 588.07 420.022 589.57 419.194 591.198 419.194L591.472 419.194C594.181 419.194 596.376 421.397 596.376 424.115L596.376 494.5 666.522 494.5C669.232 494.5 671.427 492.297 671.427 489.579L671.427 489.141C671.427 487.497 670.589 485.991 669.248 485.048 661.493 479.604 656.417 470.578 656.417 460.359 656.417 443.066 670.94 429.176 688.415 430.3 702.572 431.211 715.452 444.103 716.391 458.306 717.122 469.372 711.89 479.256 703.609 485.062 702.275 485.998 701.449 487.501 701.449 489.136L701.449 489.579C701.449 492.297 703.646 494.5 706.354 494.5L776.5 494.5 776.5 313.763 706.354 313.763C703.645 313.763 701.449 311.56 701.449 308.842L701.449 308.399C701.449 306.766 702.275 305.263 703.609 304.326 711.892 298.521 717.122 288.635 716.391 277.569 715.452 263.366 702.572 250.474 688.415 249.564 670.94 248.441 656.417 262.33 656.417 279.622 656.417 289.842 661.493 298.865 669.248 304.311 670.589 305.254 671.427 306.76 671.427 308.404L671.427 308.842C671.427 311.56 669.23 313.763 666.522 313.763L596.376 313.763 596.376 384.148C596.376 386.867 594.181 389.069 591.472 389.069L591.203 389.069C589.564 389.069 588.065 388.229 587.126 386.883 581.699 379.102 572.705 374.009 562.52 374.009 545.285 374.009 531.443 388.582 532.564 406.118 533.515 421.056 545.589 433.198 560.474 434.187Z" stroke="#FFFFFF" stroke-miterlimit="8" fill="#C5E0B4" fill-rule="evenodd"/><path d="M600.401 570.069 601.002 570.069C602.64 570.069 604.138 569.229 605.077 567.883 610.501 560.102 619.488 555.009 629.665 555.009 646.888 555.009 660.723 569.582 659.601 587.118 658.693 601.324 645.852 614.246 631.706 615.187 620.688 615.919 610.846 610.67 605.064 602.361 604.133 601.022 602.636 600.194 601.008 600.194L600.401 600.194C597.694 600.194 595.5 602.398 595.5 605.115L595.5 675.5 775.5 675.5C775.5 675.5 775.5 567.867 775.5 565.148L775.5 494.763 705.402 494.763C702.695 494.763 700.501 492.56 700.501 489.842L700.501 489.399C700.501 487.766 701.326 486.263 702.659 485.326 710.937 479.521 716.163 469.635 715.432 458.569 714.494 444.366 701.623 431.474 687.475 430.564 670.012 429.441 655.5 443.33 655.5 460.622 655.5 470.842 660.572 479.865 668.321 485.311 669.662 486.254 670.499 487.76 670.499 489.404L670.499 489.842C670.499 492.56 668.303 494.763 665.598 494.763L595.5 494.763 595.5 565.148C595.5 567.865 597.696 570.069 600.401 570.069Z" stroke="#FFFFFF" stroke-miterlimit="8" fill="#BDD7EE" fill-rule="evenodd"/><path d="M477.567 458.589C476.837 469.66 482.065 479.553 490.341 485.362 491.674 486.298 492.499 487.804 492.499 489.438L492.499 489.713C492.499 492.434 490.305 494.638 487.598 494.638L417.5 494.638 417.5 565.071C417.5 567.792 419.694 569.996 422.401 569.996L422.837 569.996C424.474 569.996 425.975 569.155 426.913 567.808 432.336 560.022 441.324 554.925 451.502 554.925 468.725 554.925 482.557 569.507 481.438 587.054 480.531 601.269 467.692 614.202 453.546 615.145 442.526 615.879 432.682 610.625 426.899 602.31 425.968 600.971 424.471 600.142 422.842 600.142L422.401 600.142C419.694 600.142 417.5 602.348 417.5 605.067L417.5 675.5 597.499 675.5 597.499 605.067C597.499 602.346 599.693 600.142 602.401 600.142L602.842 600.142C604.468 600.142 605.965 600.971 606.898 602.31 612.68 610.627 622.525 615.879 633.545 615.145 647.691 614.202 660.53 601.269 661.437 587.054 662.555 569.507 648.722 554.925 631.501 554.925 621.323 554.925 612.337 560.022 606.913 567.808 605.974 569.155 604.474 569.996 602.836 569.996L602.401 569.996C599.693 569.996 597.499 567.79 597.499 565.071L597.499 494.638 527.402 494.638C524.694 494.638 522.5 492.434 522.5 489.713L522.5 489.443C522.5 487.798 523.338 486.292 524.678 485.349 532.428 479.901 537.5 470.87 537.5 460.643 537.5 443.337 522.986 429.438 505.521 430.564 490.645 431.519 478.552 443.643 477.567 458.589Z" stroke="#FFFFFF" stroke-miterlimit="8" fill="#8FAADC" fill-rule="evenodd"/><path d="M776.547 148.966C776.141 149.263 775.817 149.548 775.574 149.821 775.332 150.095 775.137 150.356 774.988 150.606 774.84 150.856 774.742 151.099 774.695 151.333 774.649 151.567 774.625 151.809 774.625 152.059 774.625 152.841 775.02 153.434 775.809 153.841 776.598 154.247 777.711 154.45 779.149 154.45 780.039 154.45 780.789 154.36 781.399 154.181 782.008 154.001 782.5 153.763 782.875 153.466 783.25 153.169 783.516 152.837 783.672 152.47 783.828 152.102 783.906 151.716 783.906 151.309 783.906 150.606 783.625 150.067 783.063 149.692 782.5 149.317 781.727 149.114 780.742 149.083ZM753.547 148.966C753.141 149.263 752.817 149.548 752.574 149.821 752.332 150.095 752.137 150.356 751.988 150.606 751.84 150.856 751.742 151.099 751.695 151.333 751.649 151.567 751.625 151.809 751.625 152.059 751.625 152.841 752.02 153.434 752.809 153.841 753.598 154.247 754.711 154.45 756.149 154.45 757.039 154.45 757.789 154.36 758.399 154.181 759.008 154.001 759.5 153.763 759.875 153.466 760.25 153.169 760.516 152.837 760.672 152.47 760.828 152.102 760.906 151.716 760.906 151.309 760.906 150.606 760.625 150.067 760.063 149.692 759.5 149.317 758.727 149.114 757.742 149.083ZM846.024 140.247C845.07 140.247 844.258 140.317 843.586 140.458 842.914 140.599 842.367 140.809 841.945 141.091 841.524 141.372 841.215 141.712 841.02 142.11 840.824 142.509 840.727 142.966 840.727 143.481 840.727 144.356 841.004 145.044 841.559 145.544 842.113 146.044 842.883 146.294 843.867 146.294 844.695 146.294 845.457 146.083 846.153 145.661 846.848 145.239 847.555 144.622 848.274 143.809L848.274 140.247ZM871.055 131.927C870.664 131.927 870.278 131.985 869.895 132.102 869.512 132.22 869.121 132.411 868.723 132.677 868.324 132.942 867.914 133.286 867.492 133.708 867.07 134.13 866.625 134.653 866.156 135.278L866.156 142.169C866.985 143.216 867.774 144.024 868.524 144.595 869.274 145.165 870.055 145.45 870.867 145.45 871.633 145.45 872.285 145.255 872.824 144.864 873.363 144.474 873.805 143.962 874.149 143.329 874.492 142.696 874.746 141.981 874.91 141.184 875.074 140.388 875.156 139.591 875.156 138.794 875.156 137.903 875.09 137.048 874.957 136.227 874.824 135.407 874.598 134.677 874.278 134.036 873.957 133.395 873.535 132.884 873.012 132.501 872.488 132.118 871.836 131.927 871.055 131.927ZM778.938 131.059C778.36 131.059 777.852 131.157 777.414 131.352 776.977 131.548 776.613 131.813 776.324 132.149 776.035 132.485 775.82 132.876 775.68 133.321 775.539 133.767 775.469 134.231 775.469 134.716 775.469 135.778 775.781 136.618 776.406 137.235 777.031 137.852 777.899 138.161 779.008 138.161 779.602 138.161 780.117 138.067 780.555 137.88 780.992 137.692 781.356 137.434 781.645 137.106 781.934 136.778 782.153 136.399 782.301 135.97 782.449 135.54 782.524 135.091 782.524 134.622 782.524 133.497 782.211 132.622 781.586 131.997 780.961 131.372 780.078 131.059 778.938 131.059ZM755.938 131.059C755.36 131.059 754.852 131.157 754.414 131.352 753.977 131.548 753.613 131.813 753.324 132.149 753.035 132.485 752.82 132.876 752.68 133.321 752.539 133.767 752.469 134.231 752.469 134.716 752.469 135.778 752.781 136.618 753.406 137.235 754.031 137.852 754.899 138.161 756.008 138.161 756.602 138.161 757.117 138.067 757.555 137.88 757.992 137.692 758.356 137.434 758.645 137.106 758.934 136.778 759.153 136.399 759.301 135.97 759.449 135.54 759.524 135.091 759.524 134.622 759.524 133.497 759.211 132.622 758.586 131.997 757.961 131.372 757.078 131.059 755.938 131.059ZM779.008 126.981C779.664 126.981 780.293 127.02 780.895 127.099 781.496 127.177 782.055 127.286 782.57 127.427L789.203 127.427C789.469 127.427 789.684 127.599 789.848 127.942 790.012 128.286 790.094 128.864 790.094 129.677 790.094 130.427 790.008 130.981 789.836 131.341 789.664 131.7 789.453 131.88 789.203 131.88L786.742 131.88C787.086 132.255 787.332 132.681 787.481 133.157 787.629 133.634 787.703 134.13 787.703 134.645 787.703 135.864 787.5 136.946 787.094 137.892 786.688 138.837 786.106 139.634 785.348 140.282 784.59 140.931 783.676 141.423 782.606 141.759 781.535 142.095 780.344 142.263 779.031 142.263 778.36 142.263 777.719 142.181 777.11 142.017 776.5 141.852 776.031 141.661 775.703 141.442 775.516 141.645 775.348 141.888 775.199 142.169 775.051 142.45 774.977 142.763 774.977 143.106 774.977 143.559 775.176 143.931 775.574 144.22 775.973 144.509 776.531 144.669 777.25 144.7L782.336 144.888C783.524 144.934 784.582 145.102 785.512 145.392 786.442 145.681 787.223 146.087 787.856 146.61 788.488 147.134 788.973 147.763 789.309 148.497 789.645 149.231 789.813 150.067 789.813 151.005 789.813 152.036 789.586 153.009 789.133 153.923 788.68 154.837 788 155.63 787.094 156.302 786.188 156.974 785.051 157.505 783.684 157.895 782.317 158.286 780.719 158.481 778.891 158.481 777.11 158.481 775.59 158.341 774.332 158.059 773.074 157.778 772.043 157.388 771.238 156.888 770.434 156.388 769.848 155.79 769.481 155.095 769.113 154.399 768.93 153.638 768.93 152.809 768.93 152.294 768.996 151.802 769.129 151.333 769.262 150.864 769.457 150.415 769.715 149.985 769.973 149.556 770.289 149.145 770.664 148.755 771.039 148.364 771.469 147.989 771.953 147.63 771.281 147.27 770.762 146.782 770.395 146.165 770.028 145.548 769.844 144.872 769.844 144.138 769.844 143.216 770.055 142.376 770.477 141.618 770.899 140.86 771.445 140.177 772.117 139.567 771.57 139.02 771.133 138.364 770.805 137.599 770.477 136.833 770.313 135.88 770.313 134.739 770.313 133.52 770.528 132.431 770.957 131.47 771.387 130.509 771.985 129.696 772.75 129.032 773.516 128.368 774.43 127.86 775.492 127.509 776.555 127.157 777.727 126.981 779.008 126.981ZM756.008 126.981C756.664 126.981 757.293 127.02 757.895 127.099 758.496 127.177 759.055 127.286 759.57 127.427L766.203 127.427C766.469 127.427 766.684 127.599 766.848 127.942 767.012 128.286 767.094 128.864 767.094 129.677 767.094 130.427 767.008 130.981 766.836 131.341 766.664 131.7 766.453 131.88 766.203 131.88L763.742 131.88C764.086 132.255 764.332 132.681 764.481 133.157 764.629 133.634 764.703 134.13 764.703 134.645 764.703 135.864 764.5 136.946 764.094 137.892 763.688 138.837 763.106 139.634 762.348 140.282 761.59 140.931 760.676 141.423 759.606 141.759 758.535 142.095 757.344 142.263 756.031 142.263 755.36 142.263 754.719 142.181 754.11 142.017 753.5 141.852 753.031 141.661 752.703 141.442 752.516 141.645 752.348 141.888 752.199 142.169 752.051 142.45 751.977 142.763 751.977 143.106 751.977 143.559 752.176 143.931 752.574 144.22 752.973 144.509 753.531 144.669 754.25 144.7L759.336 144.888C760.524 144.934 761.582 145.102 762.512 145.392 763.442 145.681 764.223 146.087 764.856 146.61 765.488 147.134 765.973 147.763 766.309 148.497 766.645 149.231 766.813 150.067 766.813 151.005 766.813 152.036 766.586 153.009 766.133 153.923 765.68 154.837 765 155.63 764.094 156.302 763.188 156.974 762.051 157.505 760.684 157.895 759.317 158.286 757.719 158.481 755.891 158.481 754.11 158.481 752.59 158.341 751.332 158.059 750.074 157.778 749.043 157.388 748.238 156.888 747.434 156.388 746.848 155.79 746.481 155.095 746.113 154.399 745.93 153.638 745.93 152.809 745.93 152.294 745.996 151.802 746.129 151.333 746.262 150.864 746.457 150.415 746.715 149.985 746.973 149.556 747.289 149.145 747.664 148.755 748.039 148.364 748.469 147.989 748.953 147.63 748.281 147.27 747.762 146.782 747.395 146.165 747.028 145.548 746.844 144.872 746.844 144.138 746.844 143.216 747.055 142.376 747.477 141.618 747.899 140.86 748.445 140.177 749.117 139.567 748.57 139.02 748.133 138.364 747.805 137.599 747.477 136.833 747.313 135.88 747.313 134.739 747.313 133.52 747.528 132.431 747.957 131.47 748.387 130.509 748.985 129.696 749.75 129.032 750.516 128.368 751.43 127.86 752.492 127.509 753.555 127.157 754.727 126.981 756.008 126.981ZM872.789 126.888C874.32 126.888 875.625 127.188 876.703 127.79 877.781 128.392 878.66 129.216 879.34 130.263 880.02 131.309 880.516 132.528 880.828 133.919 881.141 135.309 881.297 136.794 881.297 138.372 881.297 140.231 881.098 141.907 880.699 143.399 880.301 144.892 879.719 146.161 878.953 147.208 878.188 148.255 877.235 149.059 876.094 149.622 874.953 150.184 873.649 150.466 872.18 150.466 871.57 150.466 871.012 150.407 870.504 150.29 869.996 150.173 869.504 149.993 869.028 149.751 868.551 149.509 868.078 149.208 867.61 148.849 867.141 148.489 866.656 148.067 866.156 147.583L866.156 157.427C866.156 157.583 866.11 157.724 866.016 157.849 865.922 157.974 865.762 158.079 865.535 158.165 865.309 158.251 865.008 158.317 864.633 158.364 864.258 158.411 863.781 158.434 863.203 158.434 862.625 158.434 862.149 158.411 861.774 158.364 861.399 158.317 861.098 158.251 860.871 158.165 860.645 158.079 860.485 157.974 860.391 157.849 860.297 157.724 860.25 157.583 860.25 157.427L860.25 128.224C860.25 128.067 860.289 127.931 860.367 127.813 860.445 127.696 860.582 127.599 860.778 127.52 860.973 127.442 861.231 127.384 861.551 127.345 861.871 127.306 862.274 127.286 862.758 127.286 863.227 127.286 863.621 127.306 863.942 127.345 864.262 127.384 864.52 127.442 864.715 127.52 864.91 127.599 865.047 127.696 865.125 127.813 865.203 127.931 865.242 128.067 865.242 128.224L865.242 130.684C865.852 130.059 866.449 129.509 867.035 129.032 867.621 128.556 868.219 128.157 868.828 127.837 869.438 127.517 870.067 127.278 870.715 127.122 871.363 126.966 872.055 126.888 872.789 126.888ZM844.828 126.888C846.469 126.888 847.871 127.048 849.035 127.368 850.199 127.688 851.156 128.181 851.906 128.845 852.656 129.509 853.203 130.364 853.547 131.411 853.891 132.458 854.063 133.7 854.063 135.138L854.063 149.2C854.063 149.419 853.985 149.591 853.828 149.716 853.672 149.841 853.426 149.931 853.09 149.985 852.754 150.04 852.258 150.067 851.602 150.067 850.899 150.067 850.387 150.04 850.067 149.985 849.746 149.931 849.52 149.841 849.387 149.716 849.254 149.591 849.188 149.419 849.188 149.2L849.188 147.536C848.328 148.458 847.348 149.177 846.246 149.692 845.145 150.208 843.922 150.466 842.578 150.466 841.469 150.466 840.449 150.321 839.52 150.032 838.59 149.743 837.785 149.313 837.106 148.743 836.426 148.173 835.899 147.466 835.524 146.622 835.149 145.778 834.961 144.794 834.961 143.669 834.961 142.45 835.199 141.392 835.676 140.493 836.153 139.595 836.863 138.852 837.809 138.267 838.754 137.681 839.93 137.247 841.336 136.966 842.742 136.684 844.375 136.544 846.235 136.544L848.274 136.544 848.274 135.278C848.274 134.622 848.207 134.048 848.074 133.556 847.942 133.063 847.723 132.653 847.418 132.325 847.113 131.997 846.707 131.755 846.199 131.599 845.692 131.442 845.063 131.364 844.313 131.364 843.328 131.364 842.449 131.474 841.676 131.692 840.903 131.911 840.219 132.153 839.625 132.419 839.031 132.684 838.535 132.927 838.137 133.145 837.738 133.364 837.414 133.474 837.164 133.474 836.992 133.474 836.84 133.419 836.707 133.309 836.574 133.2 836.465 133.044 836.379 132.841 836.293 132.638 836.227 132.388 836.18 132.091 836.133 131.794 836.11 131.466 836.11 131.106 836.11 130.622 836.149 130.239 836.227 129.958 836.305 129.677 836.453 129.423 836.672 129.196 836.891 128.97 837.274 128.72 837.82 128.446 838.367 128.173 839.008 127.919 839.742 127.684 840.477 127.45 841.278 127.259 842.145 127.11 843.012 126.962 843.906 126.888 844.828 126.888ZM730.5 125.388 726.211 138.278 734.813 138.278 730.524 125.388ZM796.922 119.599 800.953 119.599C801.672 119.599 802.289 119.657 802.805 119.774 803.32 119.892 803.766 120.087 804.141 120.36 804.516 120.634 804.828 120.993 805.078 121.438 805.328 121.884 805.547 122.434 805.735 123.091L812.297 141.161 812.391 141.161 819.188 123.138C819.391 122.481 819.613 121.927 819.856 121.474 820.098 121.02 820.379 120.653 820.699 120.372 821.02 120.091 821.399 119.892 821.836 119.774 822.274 119.657 822.781 119.599 823.36 119.599L827.508 119.599C827.93 119.599 828.293 119.653 828.598 119.763 828.903 119.872 829.153 120.032 829.348 120.243 829.543 120.454 829.692 120.712 829.793 121.017 829.895 121.321 829.945 121.669 829.945 122.059L829.945 149.083C829.945 149.239 829.903 149.38 829.817 149.505 829.731 149.63 829.574 149.731 829.348 149.809 829.121 149.888 828.82 149.95 828.445 149.997 828.07 150.044 827.594 150.067 827.016 150.067 826.453 150.067 825.985 150.044 825.61 149.997 825.235 149.95 824.938 149.888 824.719 149.809 824.5 149.731 824.344 149.63 824.25 149.505 824.156 149.38 824.11 149.239 824.11 149.083L824.11 124.403 824.063 124.403 815.274 149.059C815.211 149.263 815.11 149.431 814.969 149.563 814.828 149.696 814.637 149.802 814.395 149.88 814.153 149.958 813.844 150.009 813.469 150.032 813.094 150.056 812.641 150.067 812.11 150.067 811.578 150.067 811.125 150.048 810.75 150.009 810.375 149.97 810.067 149.907 809.824 149.821 809.582 149.735 809.391 149.63 809.25 149.505 809.11 149.38 809.016 149.231 808.969 149.059L800.485 124.403 800.438 124.403 800.438 149.083C800.438 149.239 800.395 149.38 800.309 149.505 800.223 149.63 800.063 149.731 799.828 149.809 799.594 149.888 799.293 149.95 798.926 149.997 798.559 150.044 798.086 150.067 797.508 150.067 796.945 150.067 796.477 150.044 796.102 149.997 795.727 149.95 795.426 149.888 795.199 149.809 794.973 149.731 794.817 149.63 794.731 149.505 794.645 149.38 794.602 149.239 794.602 149.083L794.602 122.059C794.602 121.263 794.813 120.653 795.235 120.231 795.656 119.809 796.219 119.599 796.922 119.599ZM730.594 119.458C731.516 119.458 732.25 119.47 732.797 119.493 733.344 119.517 733.77 119.571 734.074 119.657 734.379 119.743 734.598 119.872 734.731 120.044 734.863 120.216 734.977 120.45 735.07 120.747L744.445 147.63C744.633 148.192 744.75 148.638 744.797 148.966 744.844 149.294 744.781 149.54 744.61 149.704 744.438 149.868 744.133 149.97 743.695 150.009 743.258 150.048 742.656 150.067 741.891 150.067 741.094 150.067 740.473 150.056 740.028 150.032 739.582 150.009 739.242 149.962 739.008 149.892 738.774 149.821 738.61 149.724 738.516 149.599 738.422 149.474 738.344 149.309 738.281 149.106L736.242 143.013 724.852 143.013 722.93 148.942C722.867 149.161 722.785 149.345 722.684 149.493 722.582 149.642 722.418 149.759 722.192 149.845 721.965 149.931 721.645 149.989 721.231 150.02 720.817 150.052 720.274 150.067 719.602 150.067 718.883 150.067 718.32 150.044 717.914 149.997 717.508 149.95 717.227 149.837 717.07 149.657 716.914 149.477 716.86 149.224 716.906 148.895 716.953 148.567 717.07 148.13 717.258 147.583L726.61 120.677C726.703 120.411 726.813 120.196 726.938 120.032 727.063 119.868 727.262 119.743 727.535 119.657 727.809 119.571 728.188 119.517 728.672 119.493 729.156 119.47 729.797 119.458 730.594 119.458Z" fill="#5B9BD5" fill-rule="evenodd"/><path d="M776.738 149.495 775.983 150.2 775.485 150.864 775.226 151.484 775.178 152.058 775.419 152.828 776.116 153.425 777.338 153.87 779.16 153.987 781.278 153.752 782.593 153.095 783.207 152.275 783.411 151.359 783.271 150.661 782.838 150.184 780.723 149.612ZM753.738 149.495 752.983 150.2 752.485 150.864 752.226 151.484 752.178 152.058 752.419 152.828 753.116 153.425 754.338 153.87 756.16 153.987 758.278 153.752 759.593 153.095 760.207 152.275 760.411 151.359 760.271 150.661 759.838 150.184 757.723 149.612ZM776.562 148.489 780.812 148.614C780.851 148.616 780.89 148.621 780.927 148.631L783.24 149.256C783.332 149.281 783.415 149.332 783.479 149.403L784.104 150.09C784.165 150.157 784.207 150.24 784.225 150.329L784.412 151.266C784.426 151.334 784.425 151.405 784.41 151.473L784.16 152.598C784.145 152.667 784.115 152.732 784.072 152.789L783.322 153.789C783.275 153.851 783.215 153.902 783.146 153.936L781.646 154.686C781.593 154.713 781.536 154.73 781.477 154.736L779.227 154.986C779.198 154.989 779.169 154.99 779.14 154.988L777.202 154.863C777.155 154.86 777.108 154.85 777.064 154.834L775.689 154.334C775.632 154.314 775.58 154.283 775.534 154.244L774.659 153.494C774.588 153.433 774.535 153.353 774.507 153.263L774.195 152.263C774.176 152.202 774.168 152.137 774.174 152.073L774.236 151.323C774.241 151.271 774.253 151.22 774.273 151.172L774.586 150.422C774.601 150.384 774.622 150.347 774.647 150.314L775.21 149.564C775.227 149.541 775.247 149.519 775.268 149.499L776.206 148.624C776.302 148.534 776.43 148.486 776.562 148.489ZM753.562 148.489 757.812 148.614C757.851 148.616 757.89 148.621 757.927 148.631L760.24 149.256C760.332 149.281 760.415 149.332 760.479 149.403L761.104 150.09C761.165 150.157 761.207 150.24 761.225 150.329L761.412 151.266C761.426 151.334 761.425 151.405 761.41 151.473L761.16 152.598C761.145 152.667 761.115 152.732 761.072 152.789L760.322 153.789C760.275 153.851 760.215 153.902 760.146 153.936L758.646 154.686C758.593 154.713 758.536 154.73 758.477 154.736L756.227 154.986C756.198 154.989 756.169 154.99 756.14 154.988L754.202 154.863C754.155 154.86 754.108 154.85 754.064 154.834L752.689 154.334C752.632 154.314 752.58 154.283 752.534 154.244L751.659 153.494C751.588 153.433 751.535 153.353 751.507 153.263L751.195 152.263C751.176 152.202 751.168 152.137 751.174 152.073L751.236 151.323C751.241 151.271 751.253 151.22 751.273 151.172L751.586 150.422C751.602 150.384 751.622 150.347 751.647 150.314L752.21 149.564C752.227 149.541 752.247 149.519 752.268 149.499L753.206 148.624C753.302 148.534 753.43 148.486 753.562 148.489ZM846.047 140.802 843.721 140.982 842.271 141.54 841.505 142.357 841.246 143.493 841.452 144.471 841.921 145.127 843.933 145.78 845.932 145.225 847.797 143.633 847.797 140.802ZM846.047 139.802 848.297 139.802C848.573 139.802 848.797 140.026 848.797 140.302L848.797 143.864C848.797 144.011 848.733 144.15 848.622 144.245L846.497 146.057C846.441 146.104 846.376 146.139 846.306 146.158L844.056 146.783C843.961 146.81 843.861 146.808 843.768 146.777L841.455 146.027C841.353 145.994 841.265 145.929 841.203 145.842L840.578 144.967C840.538 144.911 840.51 144.847 840.495 144.78L840.245 143.592C840.23 143.522 840.231 143.449 840.247 143.378L840.559 142.003C840.579 141.917 840.622 141.837 840.682 141.772L841.62 140.772C841.671 140.717 841.735 140.675 841.805 140.647L843.43 140.022C843.475 140.005 843.523 139.994 843.571 139.991ZM871.07 132.439 870.071 132.597 869.014 133.098 867.88 134.112 866.672 135.49 866.672 141.973 868.85 144.209 869.906 144.764 870.895 144.973 872.574 144.431 873.732 143.107 874.431 141.129 874.67 138.794 874.49 136.334 873.85 134.296 872.756 132.983ZM778.983 131.621 777.626 131.838 776.751 132.507 776.213 133.529 775.992 134.741 776.21 135.991 776.78 136.872 777.725 137.449 779.049 137.67 780.406 137.453 781.294 136.774 781.879 135.816 782.041 134.683 781.82 133.355 781.246 132.415 780.307 131.841ZM755.983 131.621 754.626 131.838 753.751 132.507 753.213 133.529 752.992 134.741 753.21 135.991 753.78 136.872 754.725 137.449 756.049 137.67 757.406 137.453 758.294 136.774 758.879 135.816 759.041 134.683 758.82 133.355 758.246 132.415 757.307 131.841ZM871.032 131.433C871.109 131.421 871.188 131.427 871.263 131.451L873.201 132.076C873.291 132.105 873.371 132.159 873.431 132.232L874.681 133.732C874.723 133.782 874.754 133.84 874.774 133.902L875.462 136.089C875.473 136.126 875.48 136.164 875.483 136.203L875.671 138.765C875.673 138.794 875.672 138.824 875.669 138.853L875.419 141.29C875.415 141.33 875.407 141.368 875.394 141.406L874.644 143.531C874.622 143.59 874.59 143.646 874.548 143.693L873.236 145.193C873.176 145.262 873.099 145.312 873.013 145.34L871.076 145.965C870.993 145.992 870.904 145.996 870.819 145.978L869.632 145.728C869.586 145.719 869.543 145.703 869.502 145.682L868.314 145.057C868.268 145.032 868.226 145.001 868.189 144.963L865.814 142.526C865.723 142.432 865.672 142.307 865.672 142.177L865.672 135.302C865.672 135.18 865.716 135.063 865.797 134.971L867.214 133.367 868.401 132.304C868.437 132.272 868.477 132.245 868.521 132.225L869.708 131.662C869.751 131.642 869.797 131.628 869.844 131.62ZM778.906 130.62C778.959 130.612 779.013 130.612 779.067 130.621L780.567 130.871C780.63 130.882 780.691 130.904 780.745 130.938L781.87 131.625C781.938 131.666 781.995 131.723 782.036 131.791L782.724 132.916C782.757 132.971 782.78 133.031 782.79 133.094L783.04 134.594C783.049 134.645 783.049 134.697 783.042 134.747L782.854 136.06C782.845 136.127 782.822 136.192 782.786 136.25L782.099 137.375C782.066 137.428 782.025 137.474 781.976 137.511L780.913 138.324C780.848 138.374 780.77 138.407 780.689 138.42L779.126 138.67C779.073 138.679 779.018 138.679 778.965 138.67L777.465 138.42C777.402 138.409 777.341 138.387 777.286 138.353L776.161 137.666C776.097 137.627 776.043 137.574 776.002 137.511L775.315 136.448C775.278 136.392 775.253 136.329 775.242 136.262L774.992 134.825C774.982 134.767 774.982 134.708 774.993 134.65L775.243 133.275C775.252 133.225 775.268 133.176 775.292 133.131L775.917 131.944C775.951 131.88 775.998 131.824 776.056 131.779L777.118 130.967C777.184 130.917 777.261 130.884 777.343 130.87ZM755.906 130.62C755.959 130.612 756.013 130.612 756.067 130.621L757.567 130.871C757.63 130.882 757.691 130.904 757.745 130.938L758.87 131.625C758.938 131.666 758.995 131.723 759.036 131.791L759.724 132.916C759.757 132.971 759.78 133.031 759.79 133.094L760.04 134.594C760.049 134.645 760.049 134.697 760.042 134.747L759.854 136.06C759.845 136.127 759.822 136.192 759.786 136.25L759.099 137.375C759.066 137.428 759.025 137.474 758.976 137.511L757.913 138.324C757.848 138.374 757.77 138.407 757.689 138.42L756.126 138.67C756.073 138.679 756.018 138.679 755.965 138.67L754.465 138.42C754.402 138.409 754.341 138.387 754.286 138.353L753.161 137.666C753.097 137.627 753.043 137.574 753.002 137.511L752.315 136.448C752.278 136.392 752.253 136.329 752.242 136.262L751.992 134.825C751.982 134.767 751.982 134.708 751.993 134.65L752.243 133.275C752.252 133.225 752.268 133.176 752.292 133.131L752.917 131.944C752.951 131.88 752.998 131.824 753.056 131.779L754.118 130.967C754.184 130.917 754.261 130.884 754.343 130.87ZM756.07 127.492 752.711 128.032 750.133 129.438 748.454 131.696 747.868 134.744 748.334 137.426 749.59 139.34C749.71 139.522 749.697 139.762 749.559 139.931L747.942 141.907 747.377 144.169 747.867 145.91 749.331 147.316C749.433 147.414 749.488 147.55 749.484 147.691 749.48 147.832 749.417 147.965 749.31 148.056L748.034 149.15 747.171 150.244 746.66 151.492 746.491 152.84 746.941 154.864 748.593 156.516 749.857 157.148 751.434 157.62 753.435 157.927 755.864 157.993 760.593 157.44 763.8 155.896 765.714 153.691 766.348 151.042 765.892 148.765 764.532 147.008 762.39 145.908 759.341 145.426 754.279 145.239C754.237 145.237 754.195 145.23 754.155 145.219L752.468 144.719C752.342 144.681 752.236 144.596 752.172 144.482L751.547 143.357C751.485 143.244 751.468 143.111 751.501 142.985L751.751 142.048C751.767 141.988 751.794 141.932 751.83 141.883L752.33 141.195C752.466 141.009 752.711 140.939 752.924 141.026L754.238 141.564 756.044 141.797 759.45 141.319 762.023 139.916 763.64 137.721 764.227 134.67 764.005 133.343 763.359 132.168C763.274 132.013 763.277 131.824 763.367 131.672 763.457 131.52 763.62 131.427 763.797 131.427L766.043 131.427 766.391 131.113 766.604 129.677 766.391 128.24 766.043 127.927 759.61 127.927C759.579 127.927 759.549 127.924 759.518 127.918L757.889 127.613ZM779.07 127.492 775.711 128.032 773.133 129.438 771.454 131.696 770.868 134.744 771.334 137.426 772.59 139.34C772.71 139.522 772.697 139.762 772.559 139.931L770.942 141.907 770.377 144.169 770.867 145.91 772.331 147.316C772.433 147.414 772.488 147.55 772.484 147.691 772.48 147.832 772.417 147.965 772.31 148.056L771.034 149.15 770.171 150.244 769.66 151.492 769.491 152.84 769.941 154.864 771.593 156.516 772.857 157.148 774.434 157.62 776.435 157.927 778.864 157.993 783.593 157.44 786.8 155.896 788.714 153.691 789.348 151.042 788.892 148.765 787.532 147.008 785.39 145.908 782.341 145.426 777.279 145.239C777.237 145.237 777.195 145.23 777.155 145.219L775.468 144.719C775.342 144.681 775.236 144.596 775.172 144.482L774.547 143.357C774.485 143.244 774.468 143.111 774.501 142.985L774.751 142.048C774.767 141.988 774.794 141.932 774.83 141.883L775.33 141.195C775.466 141.009 775.711 140.939 775.924 141.026L777.238 141.564 779.044 141.797 782.45 141.319 785.023 139.916 786.64 137.721 787.227 134.67 787.005 133.343 786.359 132.168C786.274 132.013 786.277 131.824 786.367 131.672 786.457 131.52 786.62 131.427 786.797 131.427L789.043 131.427 789.391 131.113 789.604 129.677 789.391 128.24 789.043 127.927 782.61 127.927C782.579 127.927 782.549 127.924 782.518 127.918L780.889 127.613ZM872.799 127.43 870.852 127.666 869.086 128.314 867.36 129.444 865.644 131.099C865.5 131.238 865.286 131.278 865.102 131.199 864.917 131.121 864.797 130.94 864.797 130.739L864.797 128.32 864.749 128.177 864.521 128.014 863.909 127.861 862.823 127.801 861.679 127.861 861.026 128.012 860.851 128.157 860.797 128.32 860.797 157.357 860.85 157.542 861.114 157.707 861.84 157.866 863.235 157.987 864.567 157.875 865.356 157.706 865.619 157.542 865.672 157.357 865.672 147.614C865.672 147.418 865.786 147.24 865.965 147.159 866.143 147.078 866.352 147.108 866.5 147.237L867.883 148.445 869.266 149.348 870.655 149.811 872.24 149.987 874.191 149.809 875.858 149.235 878.576 146.93 880.247 143.291 880.794 138.423 880.369 134.049 878.938 130.591 876.466 128.237 874.871 127.667ZM844.894 127.425 842.253 127.61 839.978 128.205 838.085 128.938 837.042 129.597 836.72 130.15 836.613 131.112 836.72 131.993 836.888 132.666 837.057 132.936 837.166 132.967 837.984 132.711 839.448 131.979C839.47 131.969 839.491 131.96 839.514 131.952L841.576 131.265C841.605 131.255 841.634 131.248 841.664 131.244L844.289 130.869C844.334 130.863 844.38 130.863 844.426 130.869L846.301 131.119C846.372 131.128 846.441 131.153 846.502 131.191L847.689 131.941C847.76 131.987 847.819 132.049 847.86 132.123L848.548 133.373C848.579 133.431 848.599 133.494 848.607 133.559L848.797 135.302 848.797 136.552C848.797 136.828 848.573 137.052 848.297 137.052L846.279 137.05 841.472 137.481 838.11 138.742 836.978 139.647 836.199 140.761 835.496 143.689 836.017 146.472 837.443 148.411 839.701 149.569 842.595 149.982 846.088 149.271 848.936 147.151C849.088 147.038 849.29 147.02 849.459 147.105 849.628 147.19 849.735 147.363 849.735 147.552L849.735 149.148 849.809 149.348 850.218 149.496 851.61 149.612 853.008 149.496 853.505 149.33 853.61 149.121 853.61 135.214 853.068 131.605 851.574 129.249 848.883 127.904 847.109 127.549ZM730.547 127.001 726.929 137.802 734.165 137.802ZM779.08 126.49 780.955 126.615 782.655 126.927 789.235 126.927C789.358 126.927 789.477 126.972 789.569 127.055L790.194 127.618C790.28 127.695 790.337 127.801 790.354 127.916L790.604 129.603C790.611 129.652 790.611 129.701 790.604 129.75L790.354 131.437C790.337 131.552 790.28 131.658 790.194 131.736L789.569 132.298C789.477 132.381 789.358 132.427 789.235 132.427L787.643 132.427 787.923 132.936C787.95 132.985 787.968 133.039 787.978 133.094L788.228 134.594C788.237 134.653 788.237 134.713 788.226 134.771L787.601 138.021C787.586 138.094 787.556 138.163 787.512 138.223L785.762 140.598C785.719 140.657 785.663 140.706 785.599 140.741L782.849 142.241C782.796 142.269 782.739 142.288 782.679 142.297L779.117 142.797C779.072 142.803 779.027 142.803 778.983 142.798L777.046 142.548C777.003 142.542 776.96 142.531 776.92 142.514L775.908 142.1 775.694 142.395 775.52 143.048 775.947 143.818 777.379 144.242 782.378 144.427 785.625 144.933C785.677 144.941 785.728 144.958 785.775 144.982L788.088 146.169C788.153 146.203 788.21 146.25 788.255 146.308L789.755 148.246C789.802 148.307 789.835 148.378 789.85 148.454L790.35 150.954C790.364 151.025 790.363 151.098 790.346 151.168L789.658 154.043C789.64 154.121 789.602 154.194 789.55 154.255L787.487 156.63C787.442 156.681 787.388 156.723 787.326 156.752L783.951 158.377C783.901 158.401 783.848 158.417 783.793 158.423L778.98 158.986 776.41 158.927 774.285 158.609 772.53 158.094C772.502 158.085 772.475 158.074 772.448 158.061L771.073 157.374C771.025 157.35 770.982 157.318 770.943 157.28L769.131 155.468C769.064 155.4 769.017 155.315 768.996 155.223L768.496 152.973C768.484 152.917 768.481 152.859 768.488 152.802L768.676 151.302C768.681 151.258 768.693 151.216 768.709 151.175L769.272 149.8C769.289 149.757 769.313 149.716 769.342 149.679L770.28 148.492C770.3 148.466 770.322 148.443 770.347 148.422L771.241 147.656 770.076 146.537C770.011 146.476 769.965 146.398 769.941 146.312L769.378 144.312C769.355 144.228 769.353 144.14 769.374 144.055L769.999 141.555C770.017 141.484 770.051 141.417 770.098 141.36L771.553 139.582 770.442 137.888C770.404 137.831 770.379 137.767 770.367 137.7L769.867 134.825C769.857 134.765 769.857 134.704 769.869 134.645L770.494 131.395C770.508 131.321 770.538 131.251 770.583 131.191L772.396 128.753C772.439 128.695 772.494 128.647 772.558 128.613L775.308 127.113C775.357 127.086 775.412 127.067 775.468 127.058L778.968 126.495C779.005 126.49 779.043 126.488 779.08 126.49ZM756.08 126.49 757.955 126.615 759.655 126.927 766.235 126.927C766.358 126.927 766.477 126.972 766.569 127.055L767.194 127.618C767.28 127.695 767.337 127.801 767.354 127.916L767.604 129.603C767.611 129.652 767.611 129.701 767.604 129.75L767.354 131.437C767.337 131.552 767.28 131.658 767.194 131.736L766.569 132.298C766.477 132.381 766.358 132.427 766.235 132.427L764.643 132.427 764.923 132.936C764.95 132.985 764.968 133.039 764.978 133.094L765.228 134.594C765.237 134.653 765.237 134.713 765.226 134.771L764.601 138.021C764.586 138.094 764.556 138.163 764.512 138.223L762.762 140.598C762.719 140.657 762.663 140.706 762.599 140.741L759.849 142.241C759.796 142.269 759.739 142.288 759.679 142.297L756.117 142.797C756.072 142.803 756.027 142.803 755.983 142.798L754.046 142.548C754.003 142.542 753.96 142.531 753.92 142.514L752.908 142.1 752.694 142.395 752.52 143.048 752.947 143.818 754.379 144.242 759.378 144.427 762.625 144.933C762.677 144.941 762.728 144.958 762.775 144.982L765.088 146.169C765.153 146.203 765.21 146.25 765.255 146.308L766.755 148.246C766.802 148.307 766.835 148.378 766.85 148.454L767.35 150.954C767.364 151.025 767.363 151.098 767.346 151.168L766.658 154.043C766.64 154.121 766.602 154.194 766.55 154.255L764.487 156.63C764.442 156.681 764.388 156.723 764.326 156.752L760.951 158.377C760.901 158.401 760.848 158.417 760.793 158.423L755.98 158.986 753.41 158.927 751.285 158.609 749.53 158.094C749.502 158.085 749.475 158.074 749.448 158.061L748.073 157.374C748.025 157.35 747.982 157.318 747.943 157.28L746.131 155.468C746.064 155.4 746.017 155.315 745.996 155.223L745.496 152.973C745.484 152.917 745.481 152.859 745.488 152.802L745.676 151.302C745.681 151.258 745.693 151.216 745.709 151.175L746.272 149.8C746.289 149.757 746.313 149.716 746.342 149.679L747.28 148.492C747.3 148.466 747.322 148.443 747.347 148.422L748.241 147.656 747.076 146.537C747.011 146.476 746.965 146.398 746.941 146.312L746.378 144.312C746.355 144.228 746.353 144.14 746.374 144.055L746.999 141.555C747.017 141.484 747.051 141.417 747.098 141.36L748.553 139.582 747.442 137.888C747.404 137.831 747.379 137.767 747.367 137.7L746.867 134.825C746.857 134.765 746.857 134.704 746.869 134.645L747.494 131.395C747.508 131.321 747.538 131.251 747.583 131.191L749.396 128.753C749.439 128.695 749.494 128.647 749.558 128.613L752.308 127.113C752.357 127.086 752.412 127.067 752.468 127.058L755.968 126.495C756.005 126.49 756.043 126.488 756.08 126.49ZM872.854 126.43 875.041 126.68C875.079 126.684 875.117 126.693 875.153 126.706L876.903 127.331C876.969 127.354 877.029 127.391 877.079 127.44L879.704 129.94C879.755 129.988 879.795 130.046 879.822 130.11L881.322 133.735C881.34 133.781 881.352 133.829 881.357 133.878L881.795 138.378C881.798 138.413 881.798 138.448 881.794 138.483L881.231 143.483C881.225 143.535 881.211 143.587 881.189 143.635L879.439 147.448C879.408 147.514 879.364 147.573 879.308 147.621L876.433 150.058C876.386 150.098 876.331 150.129 876.273 150.149L874.46 150.774C874.422 150.787 874.382 150.796 874.342 150.8L872.28 150.987C872.246 150.99 872.213 150.99 872.179 150.986L870.492 150.799C870.457 150.795 870.422 150.787 870.389 150.776L868.889 150.276C868.848 150.262 868.81 150.244 868.774 150.22L867.336 149.283 866.672 148.708 866.672 157.427C866.672 157.473 866.666 157.519 866.653 157.564L866.528 158.002C866.494 158.12 866.417 158.223 866.312 158.288L865.812 158.601C865.763 158.631 865.709 158.653 865.652 158.666L864.777 158.853 863.278 158.987C863.249 158.99 863.22 158.99 863.191 158.987L861.754 158.862 860.817 158.666C860.76 158.653 860.706 158.631 860.657 158.601L860.157 158.288C860.052 158.223 859.975 158.12 859.941 158.002L859.816 157.564C859.804 157.519 859.797 157.473 859.797 157.427L859.797 128.239C859.797 128.185 859.806 128.132 859.823 128.081L859.948 127.706C859.977 127.618 860.031 127.54 860.102 127.48L860.477 127.168C860.537 127.117 860.608 127.082 860.685 127.064L861.497 126.877C861.525 126.87 861.554 126.866 861.583 126.865L862.771 126.802 864.011 126.865C864.043 126.867 864.075 126.871 864.106 126.879L864.856 127.067C864.917 127.082 864.974 127.108 865.025 127.145L865.463 127.457C865.549 127.519 865.613 127.606 865.646 127.706L865.771 128.081C865.788 128.132 865.797 128.185 865.797 128.239L865.797 129.562 866.7 128.692C866.722 128.67 866.747 128.651 866.773 128.633L868.586 127.446C868.617 127.425 868.652 127.408 868.687 127.395L870.562 126.707C870.599 126.694 870.636 126.685 870.674 126.68L872.737 126.43C872.776 126.426 872.815 126.425 872.854 126.43ZM844.825 126.428 847.199 126.552C847.223 126.554 847.247 126.557 847.27 126.561L849.145 126.936C849.189 126.945 849.231 126.96 849.271 126.979L852.146 128.417C852.227 128.458 852.296 128.52 852.344 128.596L853.969 131.159C854.007 131.218 854.031 131.284 854.042 131.352L854.604 135.102C854.608 135.127 854.61 135.152 854.61 135.177L854.61 149.239C854.61 149.317 854.591 149.393 854.557 149.463L854.307 149.963C854.247 150.081 854.143 150.172 854.018 150.214L853.268 150.464C853.23 150.476 853.191 150.484 853.151 150.487L851.651 150.612C851.623 150.615 851.596 150.615 851.568 150.612L850.068 150.487C850.024 150.484 849.98 150.474 849.939 150.459L849.251 150.209C849.114 150.159 849.005 150.052 848.954 149.915L848.766 149.415C848.745 149.359 848.735 149.299 848.735 149.239L848.735 148.547 846.596 150.14C846.537 150.184 846.469 150.214 846.397 150.229L842.709 150.979C842.653 150.991 842.595 150.992 842.539 150.984L839.476 150.547C839.421 150.539 839.368 150.522 839.319 150.497L836.881 149.247C836.812 149.211 836.753 149.16 836.707 149.098L835.144 146.973C835.1 146.912 835.069 146.843 835.056 146.769L834.493 143.769C834.48 143.7 834.482 143.628 834.498 143.56L835.248 140.435C835.263 140.374 835.289 140.316 835.325 140.265L836.2 139.015C836.227 138.976 836.26 138.941 836.297 138.911L837.547 137.911C837.588 137.878 837.635 137.852 837.684 137.833L841.184 136.521C841.226 136.505 841.27 136.495 841.315 136.491L846.19 136.054 847.797 136.052 847.797 135.302 847.624 133.769 847.046 132.718 846.06 132.095 844.362 131.869 841.85 132.228 839.864 132.89 838.396 133.624C838.372 133.636 838.347 133.646 838.321 133.654L837.321 133.966C837.228 133.995 837.128 133.997 837.035 133.97L836.597 133.845C836.478 133.811 836.376 133.734 836.311 133.629L835.998 133.129C835.97 133.085 835.95 133.036 835.937 132.985L835.749 132.235 835.613 131.176C835.609 131.137 835.608 131.098 835.613 131.059L835.738 129.934C835.745 129.865 835.767 129.798 835.803 129.737L836.24 128.987C836.281 128.918 836.337 128.859 836.405 128.816L837.593 128.066C837.62 128.049 837.649 128.035 837.679 128.023L839.617 127.273 842.045 126.631C842.075 126.623 842.106 126.618 842.137 126.615ZM730.547 124.927C730.762 124.927 730.953 125.064 731.021 125.268L735.334 138.143C735.385 138.295 735.359 138.463 735.265 138.594 735.171 138.724 735.02 138.802 734.86 138.802L726.235 138.802C726.074 138.802 725.923 138.724 725.829 138.594 725.735 138.463 725.709 138.295 725.76 138.143L730.073 125.268C730.141 125.064 730.332 124.927 730.547 124.927ZM823.422 120.11 822.018 120.286 821.06 120.818 820.299 121.742 819.702 123.354 812.89 141.354C812.816 141.548 812.63 141.677 812.422 141.677L812.297 141.677C812.087 141.677 811.899 141.545 811.827 141.347L805.268 123.294 804.673 121.746 803.865 120.776 802.733 120.291 800.985 120.114 797.012 120.114 795.633 120.625 795.11 122.195 795.11 149.044 795.162 149.23 795.425 149.394 796.174 149.554 797.525 149.615 798.921 149.554 799.669 149.394 799.932 149.23 799.985 149.044 799.985 124.427C799.985 124.182 800.161 123.974 800.402 123.934 800.643 123.893 800.878 124.033 800.957 124.264L809.434 148.883 809.638 149.169 810.034 149.389 810.859 149.554 812.087 149.615 813.418 149.556 814.262 149.444 814.629 149.24 814.844 148.895 823.639 124.259C823.72 124.029 823.955 123.893 824.195 123.934 824.435 123.975 824.61 124.183 824.61 124.427L824.61 149.012 824.702 149.226 824.941 149.397 825.674 149.554 827.025 149.615 828.421 149.554 829.169 149.394 829.432 149.23 829.485 149.044 829.485 122.158 829.32 121.226 828.986 120.654 828.419 120.276 827.503 120.114ZM730.626 119.989 728.727 120.049 727.723 120.16 727.355 120.405 727.065 120.889 717.778 147.752 717.44 148.935 717.536 149.323 718.041 149.556 719.59 149.615 721.179 149.553 722.05 149.39 722.341 149.208 722.508 148.839 724.383 142.901C724.448 142.693 724.641 142.552 724.86 142.552L736.297 142.552C736.513 142.552 736.704 142.69 736.772 142.895L738.76 148.923 738.931 149.265 739.219 149.445 740.064 149.552 741.905 149.614 743.64 149.555 744.189 149.358 744.283 148.986 744.012 147.841 734.662 121.025 734.352 120.406 733.949 120.164 732.783 120.051ZM796.922 119.114 800.985 119.114 802.909 119.304C802.96 119.309 803.01 119.322 803.057 119.342L804.369 119.905C804.442 119.936 804.506 119.983 804.556 120.044L805.494 121.169C805.529 121.211 805.557 121.259 805.576 121.31L806.201 122.935 812.368 139.907 818.767 123 819.391 121.316C819.41 121.263 819.438 121.214 819.474 121.171L820.349 120.109C820.388 120.06 820.437 120.02 820.492 119.99L821.617 119.365C821.673 119.334 821.734 119.313 821.798 119.306L823.298 119.118 827.547 119.114C827.576 119.114 827.605 119.117 827.634 119.122L828.696 119.309C828.765 119.321 828.829 119.347 828.887 119.386L829.637 119.886C829.7 119.928 829.753 119.984 829.791 120.05L830.229 120.8C830.259 120.851 830.279 120.907 830.289 120.965L830.477 122.027C830.482 122.056 830.485 122.085 830.485 122.114L830.485 149.114C830.485 149.161 830.478 149.207 830.465 149.252L830.34 149.689C830.306 149.808 830.229 149.91 830.125 149.976L829.625 150.288C829.575 150.319 829.521 150.341 829.464 150.353L828.589 150.541C828.562 150.546 828.534 150.55 828.506 150.551L827.069 150.614 825.588 150.551C825.56 150.55 825.532 150.546 825.505 150.541L824.63 150.353C824.563 150.339 824.5 150.311 824.444 150.271L824.006 149.959C823.932 149.905 823.874 149.833 823.837 149.749L823.65 149.311C823.623 149.249 823.61 149.182 823.61 149.114L823.61 127.315 815.768 149.282C815.756 149.316 815.74 149.349 815.721 149.379L815.409 149.879C815.364 149.951 815.301 150.01 815.227 150.051L814.665 150.364C814.61 150.394 814.55 150.414 814.488 150.422L813.551 150.547 812.132 150.614 810.773 150.551C810.748 150.55 810.723 150.547 810.699 150.542L809.761 150.354C809.711 150.344 809.662 150.326 809.617 150.301L809.054 149.989C808.989 149.953 808.933 149.903 808.89 149.842L808.578 149.405C808.55 149.366 808.527 149.323 808.512 149.277L800.985 127.415 800.985 149.114C800.985 149.161 800.978 149.207 800.965 149.252L800.84 149.689C800.806 149.808 800.729 149.91 800.625 149.976L800.125 150.288C800.075 150.319 800.021 150.341 799.964 150.353L799.089 150.541C799.062 150.546 799.034 150.55 799.006 150.551L797.569 150.614 796.088 150.551C796.06 150.55 796.032 150.546 796.005 150.541L795.13 150.353C795.073 150.341 795.019 150.319 794.97 150.288L794.47 149.976C794.365 149.91 794.288 149.808 794.254 149.689L794.129 149.252C794.116 149.207 794.11 149.161 794.11 149.114L794.11 122.114C794.11 122.06 794.118 122.007 794.135 121.956L794.76 120.081C794.808 119.937 794.919 119.823 795.061 119.77L796.748 119.145C796.804 119.125 796.863 119.114 796.922 119.114ZM730.593 118.989 732.811 119.052 734.157 119.179C734.231 119.186 734.303 119.21 734.367 119.248L734.992 119.623C735.073 119.672 735.139 119.743 735.182 119.828L735.557 120.578 744.957 147.512 745.283 148.873C745.302 148.951 745.302 149.033 745.282 149.11L745.095 149.86C745.054 150.023 744.935 150.154 744.778 150.21L743.903 150.523C743.854 150.54 743.803 150.55 743.752 150.551L741.939 150.614 740.03 150.551 738.985 150.423C738.913 150.414 738.844 150.389 738.782 150.351L738.282 150.038C738.204 149.989 738.141 149.92 738.1 149.838L737.85 149.338C737.839 149.316 737.83 149.294 737.822 149.271L735.935 143.552 725.226 143.552 723.461 149.14 723.191 149.755C723.151 149.846 723.084 149.923 723 149.976L722.5 150.288C722.447 150.321 722.388 150.344 722.327 150.356L721.327 150.543C721.303 150.548 721.278 150.55 721.254 150.551L719.629 150.614 717.904 150.551C717.837 150.549 717.773 150.533 717.713 150.506L716.9 150.131C716.763 150.067 716.661 149.945 716.624 149.798L716.437 149.048C716.416 148.963 716.417 148.874 716.441 148.789L716.816 147.477 726.137 120.513C726.148 120.481 726.163 120.449 726.181 120.419L726.556 119.794C726.594 119.731 726.646 119.677 726.707 119.636L727.27 119.261C727.336 119.216 727.412 119.189 727.492 119.18L728.617 119.055Z" fill="#5B9BD5" fill-rule="evenodd"/><path d="M774.776 147.194C774.37 147.491 774.045 147.776 773.803 148.05 773.561 148.323 773.366 148.585 773.217 148.835 773.069 149.085 772.971 149.327 772.924 149.562 772.877 149.796 772.854 150.038 772.854 150.288 772.854 151.069 773.248 151.663 774.037 152.069 774.827 152.476 775.94 152.679 777.377 152.679 778.268 152.679 779.018 152.589 779.627 152.409 780.237 152.23 780.729 151.991 781.104 151.694 781.479 151.398 781.745 151.066 781.901 150.698 782.057 150.331 782.135 149.944 782.135 149.538 782.135 148.835 781.854 148.296 781.291 147.921 780.729 147.546 779.955 147.343 778.971 147.312ZM751.776 147.194C751.37 147.491 751.045 147.776 750.803 148.05 750.561 148.323 750.366 148.585 750.217 148.835 750.069 149.085 749.971 149.327 749.924 149.562 749.877 149.796 749.854 150.038 749.854 150.288 749.854 151.069 750.248 151.663 751.037 152.069 751.827 152.476 752.94 152.679 754.377 152.679 755.268 152.679 756.018 152.589 756.627 152.409 757.237 152.23 757.729 151.991 758.104 151.694 758.479 151.398 758.745 151.066 758.901 150.698 759.057 150.331 759.135 149.944 759.135 149.538 759.135 148.835 758.854 148.296 758.291 147.921 757.729 147.546 756.955 147.343 755.971 147.312ZM844.252 138.476C843.299 138.476 842.487 138.546 841.815 138.687 841.143 138.827 840.596 139.038 840.174 139.319 839.752 139.601 839.444 139.941 839.248 140.339 839.053 140.737 838.955 141.194 838.955 141.71 838.955 142.585 839.233 143.273 839.787 143.773 840.342 144.273 841.112 144.523 842.096 144.523 842.924 144.523 843.686 144.312 844.381 143.89 845.077 143.468 845.784 142.851 846.502 142.038L846.502 138.476ZM869.284 130.155C868.893 130.155 868.506 130.214 868.123 130.331 867.741 130.448 867.35 130.64 866.952 130.905 866.553 131.171 866.143 131.515 865.721 131.937 865.299 132.359 864.854 132.882 864.385 133.507L864.385 140.398C865.213 141.444 866.002 142.253 866.752 142.823 867.502 143.394 868.284 143.679 869.096 143.679 869.862 143.679 870.514 143.484 871.053 143.093 871.592 142.702 872.034 142.191 872.377 141.558 872.721 140.925 872.975 140.21 873.139 139.413 873.303 138.616 873.385 137.819 873.385 137.023 873.385 136.132 873.319 135.276 873.186 134.456 873.053 133.636 872.827 132.905 872.506 132.265 872.186 131.624 871.764 131.112 871.241 130.73 870.717 130.347 870.065 130.155 869.284 130.155ZM777.166 129.288C776.588 129.288 776.08 129.386 775.643 129.581 775.205 129.776 774.842 130.042 774.553 130.378 774.264 130.714 774.049 131.105 773.909 131.55 773.768 131.995 773.698 132.46 773.698 132.944 773.698 134.007 774.01 134.847 774.635 135.464 775.26 136.081 776.127 136.39 777.237 136.39 777.83 136.39 778.346 136.296 778.784 136.109 779.221 135.921 779.584 135.663 779.873 135.335 780.162 135.007 780.381 134.628 780.53 134.198 780.678 133.769 780.752 133.319 780.752 132.851 780.752 131.726 780.44 130.851 779.815 130.226 779.19 129.601 778.307 129.288 777.166 129.288ZM754.166 129.288C753.588 129.288 753.08 129.386 752.643 129.581 752.205 129.776 751.842 130.042 751.553 130.378 751.264 130.714 751.049 131.105 750.909 131.55 750.768 131.995 750.698 132.46 750.698 132.944 750.698 134.007 751.01 134.847 751.635 135.464 752.26 136.081 753.127 136.39 754.237 136.39 754.83 136.39 755.346 136.296 755.784 136.109 756.221 135.921 756.584 135.663 756.873 135.335 757.162 135.007 757.381 134.628 757.53 134.198 757.678 133.769 757.752 133.319 757.752 132.851 757.752 131.726 757.44 130.851 756.815 130.226 756.19 129.601 755.307 129.288 754.166 129.288ZM777.237 125.21C777.893 125.21 778.522 125.249 779.123 125.327 779.725 125.405 780.284 125.515 780.799 125.655L787.432 125.655C787.698 125.655 787.912 125.827 788.077 126.171 788.241 126.515 788.323 127.093 788.323 127.905 788.323 128.655 788.237 129.21 788.065 129.569 787.893 129.929 787.682 130.109 787.432 130.109L784.971 130.109C785.315 130.484 785.561 130.909 785.709 131.386 785.858 131.862 785.932 132.359 785.932 132.874 785.932 134.093 785.729 135.175 785.323 136.12 784.916 137.066 784.334 137.862 783.577 138.511 782.819 139.159 781.905 139.651 780.834 139.987 779.764 140.323 778.573 140.491 777.26 140.491 776.588 140.491 775.948 140.409 775.338 140.245 774.729 140.081 774.26 139.89 773.932 139.671 773.745 139.874 773.577 140.116 773.428 140.398 773.28 140.679 773.205 140.991 773.205 141.335 773.205 141.788 773.405 142.159 773.803 142.448 774.202 142.737 774.76 142.898 775.479 142.929L780.565 143.116C781.752 143.163 782.811 143.331 783.741 143.62 784.67 143.909 785.452 144.316 786.084 144.839 786.717 145.362 787.202 145.991 787.537 146.726 787.873 147.46 788.041 148.296 788.041 149.234 788.041 150.265 787.815 151.237 787.362 152.151 786.909 153.066 786.229 153.859 785.323 154.53 784.416 155.202 783.28 155.734 781.912 156.124 780.545 156.515 778.948 156.71 777.12 156.71 775.338 156.71 773.819 156.569 772.561 156.288 771.303 156.007 770.272 155.616 769.467 155.116 768.662 154.616 768.077 154.019 767.709 153.323 767.342 152.628 767.159 151.866 767.159 151.038 767.159 150.523 767.225 150.03 767.358 149.562 767.491 149.093 767.686 148.644 767.944 148.214 768.202 147.784 768.518 147.374 768.893 146.984 769.268 146.593 769.698 146.218 770.182 145.859 769.51 145.499 768.991 145.011 768.623 144.394 768.256 143.776 768.073 143.101 768.073 142.366 768.073 141.444 768.284 140.605 768.705 139.847 769.127 139.089 769.674 138.405 770.346 137.796 769.799 137.249 769.362 136.593 769.034 135.827 768.705 135.062 768.541 134.109 768.541 132.968 768.541 131.749 768.756 130.659 769.186 129.698 769.616 128.737 770.213 127.925 770.979 127.261 771.745 126.597 772.659 126.089 773.721 125.737 774.784 125.386 775.955 125.21 777.237 125.21ZM754.237 125.21C754.893 125.21 755.522 125.249 756.123 125.327 756.725 125.405 757.284 125.515 757.799 125.655L764.432 125.655C764.698 125.655 764.912 125.827 765.077 126.171 765.241 126.515 765.323 127.093 765.323 127.905 765.323 128.655 765.237 129.21 765.065 129.569 764.893 129.929 764.682 130.109 764.432 130.109L761.971 130.109C762.315 130.484 762.561 130.909 762.709 131.386 762.858 131.862 762.932 132.359 762.932 132.874 762.932 134.093 762.729 135.175 762.323 136.12 761.916 137.066 761.334 137.862 760.577 138.511 759.819 139.159 758.905 139.651 757.834 139.987 756.764 140.323 755.573 140.491 754.26 140.491 753.588 140.491 752.948 140.409 752.338 140.245 751.729 140.081 751.26 139.89 750.932 139.671 750.745 139.874 750.577 140.116 750.428 140.398 750.28 140.679 750.205 140.991 750.205 141.335 750.205 141.788 750.405 142.159 750.803 142.448 751.202 142.737 751.76 142.898 752.479 142.929L757.565 143.116C758.752 143.163 759.811 143.331 760.741 143.62 761.67 143.909 762.452 144.316 763.084 144.839 763.717 145.362 764.202 145.991 764.537 146.726 764.873 147.46 765.041 148.296 765.041 149.234 765.041 150.265 764.815 151.237 764.362 152.151 763.909 153.066 763.229 153.859 762.323 154.53 761.416 155.202 760.28 155.734 758.912 156.124 757.545 156.515 755.948 156.71 754.12 156.71 752.338 156.71 750.819 156.569 749.561 156.288 748.303 156.007 747.272 155.616 746.467 155.116 745.662 154.616 745.077 154.019 744.709 153.323 744.342 152.628 744.159 151.866 744.159 151.038 744.159 150.523 744.225 150.03 744.358 149.562 744.491 149.093 744.686 148.644 744.944 148.214 745.202 147.784 745.518 147.374 745.893 146.984 746.268 146.593 746.698 146.218 747.182 145.859 746.51 145.499 745.991 145.011 745.623 144.394 745.256 143.776 745.073 143.101 745.073 142.366 745.073 141.444 745.284 140.605 745.705 139.847 746.127 139.089 746.674 138.405 747.346 137.796 746.799 137.249 746.362 136.593 746.034 135.827 745.705 135.062 745.541 134.109 745.541 132.968 745.541 131.749 745.756 130.659 746.186 129.698 746.616 128.737 747.213 127.925 747.979 127.261 748.745 126.597 749.659 126.089 750.721 125.737 751.784 125.386 752.955 125.21 754.237 125.21ZM871.018 125.116C872.549 125.116 873.854 125.417 874.932 126.019 876.01 126.62 876.889 127.444 877.569 128.491 878.248 129.538 878.745 130.757 879.057 132.148 879.37 133.538 879.526 135.023 879.526 136.601 879.526 138.46 879.327 140.136 878.928 141.628 878.53 143.12 877.948 144.39 877.182 145.437 876.416 146.484 875.463 147.288 874.323 147.851 873.182 148.413 871.877 148.694 870.409 148.694 869.799 148.694 869.241 148.636 868.733 148.519 868.225 148.401 867.733 148.222 867.256 147.98 866.78 147.737 866.307 147.437 865.838 147.077 865.37 146.718 864.885 146.296 864.385 145.812L864.385 155.655C864.385 155.812 864.338 155.952 864.245 156.077 864.151 156.202 863.991 156.308 863.764 156.394 863.537 156.48 863.237 156.546 862.862 156.593 862.487 156.64 862.01 156.663 861.432 156.663 860.854 156.663 860.377 156.64 860.002 156.593 859.627 156.546 859.327 156.48 859.1 156.394 858.873 156.308 858.713 156.202 858.62 156.077 858.526 155.952 858.479 155.812 858.479 155.655L858.479 126.452C858.479 126.296 858.518 126.159 858.596 126.042 858.674 125.925 858.811 125.827 859.006 125.749 859.202 125.671 859.459 125.612 859.78 125.573 860.1 125.534 860.502 125.515 860.987 125.515 861.455 125.515 861.85 125.534 862.17 125.573 862.491 125.612 862.748 125.671 862.944 125.749 863.139 125.827 863.276 125.925 863.354 126.042 863.432 126.159 863.471 126.296 863.471 126.452L863.471 128.913C864.08 128.288 864.678 127.737 865.264 127.261 865.85 126.784 866.448 126.386 867.057 126.066 867.666 125.745 868.295 125.507 868.944 125.351 869.592 125.194 870.284 125.116 871.018 125.116ZM843.057 125.116C844.698 125.116 846.1 125.276 847.264 125.597 848.428 125.917 849.385 126.409 850.135 127.073 850.885 127.737 851.432 128.593 851.776 129.64 852.12 130.687 852.291 131.929 852.291 133.366L852.291 147.429C852.291 147.648 852.213 147.819 852.057 147.944 851.901 148.069 851.655 148.159 851.319 148.214 850.983 148.269 850.487 148.296 849.83 148.296 849.127 148.296 848.616 148.269 848.295 148.214 847.975 148.159 847.748 148.069 847.616 147.944 847.483 147.819 847.416 147.648 847.416 147.429L847.416 145.765C846.557 146.687 845.577 147.405 844.475 147.921 843.373 148.437 842.151 148.694 840.807 148.694 839.698 148.694 838.678 148.55 837.748 148.261 836.819 147.972 836.014 147.542 835.334 146.972 834.655 146.401 834.127 145.694 833.752 144.851 833.377 144.007 833.19 143.023 833.19 141.898 833.19 140.679 833.428 139.62 833.905 138.722 834.381 137.823 835.092 137.081 836.037 136.495 836.983 135.909 838.159 135.476 839.565 135.194 840.971 134.913 842.604 134.773 844.463 134.773L846.502 134.773 846.502 133.507C846.502 132.851 846.436 132.276 846.303 131.784 846.17 131.292 845.952 130.882 845.647 130.554 845.342 130.226 844.936 129.984 844.428 129.827 843.92 129.671 843.291 129.593 842.541 129.593 841.557 129.593 840.678 129.702 839.905 129.921 839.131 130.14 838.448 130.382 837.854 130.648 837.26 130.913 836.764 131.155 836.366 131.374 835.967 131.593 835.643 131.702 835.393 131.702 835.221 131.702 835.069 131.648 834.936 131.538 834.803 131.429 834.694 131.273 834.608 131.069 834.522 130.866 834.455 130.616 834.409 130.319 834.362 130.023 834.338 129.694 834.338 129.335 834.338 128.851 834.377 128.468 834.455 128.187 834.534 127.905 834.682 127.651 834.901 127.425 835.12 127.198 835.502 126.948 836.049 126.675 836.596 126.401 837.237 126.148 837.971 125.913 838.705 125.679 839.506 125.487 840.373 125.339 841.241 125.191 842.135 125.116 843.057 125.116ZM728.729 123.616 724.44 136.507 733.041 136.507 728.752 123.616ZM795.151 117.827 799.182 117.827C799.901 117.827 800.518 117.886 801.034 118.003 801.549 118.12 801.995 118.316 802.37 118.589 802.745 118.862 803.057 119.222 803.307 119.667 803.557 120.112 803.776 120.663 803.963 121.319L810.526 139.39 810.62 139.39 817.416 121.366C817.62 120.71 817.842 120.155 818.084 119.702 818.327 119.249 818.608 118.882 818.928 118.601 819.248 118.319 819.627 118.12 820.065 118.003 820.502 117.886 821.01 117.827 821.588 117.827L825.737 117.827C826.159 117.827 826.522 117.882 826.827 117.991 827.131 118.101 827.381 118.261 827.577 118.472 827.772 118.683 827.92 118.941 828.022 119.245 828.123 119.55 828.174 119.898 828.174 120.288L828.174 147.312C828.174 147.468 828.131 147.609 828.045 147.734 827.959 147.859 827.803 147.96 827.577 148.038 827.35 148.116 827.049 148.179 826.674 148.226 826.299 148.273 825.823 148.296 825.245 148.296 824.682 148.296 824.213 148.273 823.838 148.226 823.463 148.179 823.166 148.116 822.948 148.038 822.729 147.96 822.573 147.859 822.479 147.734 822.385 147.609 822.338 147.468 822.338 147.312L822.338 122.632 822.291 122.632 813.502 147.288C813.44 147.491 813.338 147.659 813.198 147.792 813.057 147.925 812.866 148.03 812.623 148.109 812.381 148.187 812.073 148.237 811.698 148.261 811.323 148.284 810.87 148.296 810.338 148.296 809.807 148.296 809.354 148.276 808.979 148.237 808.604 148.198 808.295 148.136 808.053 148.05 807.811 147.964 807.62 147.859 807.479 147.734 807.338 147.609 807.245 147.46 807.198 147.288L798.713 122.632 798.666 122.632 798.666 147.312C798.666 147.468 798.623 147.609 798.537 147.734 798.452 147.859 798.291 147.96 798.057 148.038 797.823 148.116 797.522 148.179 797.155 148.226 796.787 148.273 796.315 148.296 795.737 148.296 795.174 148.296 794.705 148.273 794.33 148.226 793.955 148.179 793.655 148.116 793.428 148.038 793.202 147.96 793.045 147.859 792.959 147.734 792.873 147.609 792.83 147.468 792.83 147.312L792.83 120.288C792.83 119.491 793.041 118.882 793.463 118.46 793.885 118.038 794.448 117.827 795.151 117.827ZM728.823 117.687C729.745 117.687 730.479 117.698 731.026 117.722 731.573 117.745 731.998 117.8 732.303 117.886 732.608 117.972 732.827 118.101 732.959 118.273 733.092 118.444 733.205 118.679 733.299 118.976L742.674 145.859C742.862 146.421 742.979 146.866 743.026 147.194 743.073 147.523 743.01 147.769 742.838 147.933 742.666 148.097 742.362 148.198 741.924 148.237 741.487 148.276 740.885 148.296 740.12 148.296 739.323 148.296 738.702 148.284 738.256 148.261 737.811 148.237 737.471 148.191 737.237 148.12 737.002 148.05 736.838 147.952 736.745 147.827 736.651 147.702 736.573 147.538 736.51 147.335L734.471 141.241 723.08 141.241 721.159 147.171C721.096 147.39 721.014 147.573 720.912 147.722 720.811 147.87 720.647 147.987 720.42 148.073 720.194 148.159 719.873 148.218 719.459 148.249 719.045 148.28 718.502 148.296 717.83 148.296 717.112 148.296 716.549 148.273 716.143 148.226 715.737 148.179 715.455 148.066 715.299 147.886 715.143 147.706 715.088 147.452 715.135 147.124 715.182 146.796 715.299 146.359 715.487 145.812L724.838 118.905C724.932 118.64 725.041 118.425 725.166 118.261 725.291 118.097 725.491 117.972 725.764 117.886 726.037 117.8 726.416 117.745 726.901 117.722 727.385 117.698 728.026 117.687 728.823 117.687Z" stroke="#FFFFFF" stroke-linejoin="round" stroke-miterlimit="10" fill="#262626" fill-rule="evenodd"/><text fill="#000000" fill-opacity="0" font-family="Arial,Arial_MSFontService,sans-serif" font-size="39.0234" x="715.119" y="151.832">AggMap</text></g></svg>