<svg width="442" height="404" xmlns="http://www.w3.org/2000/svg" xmlns:xlink="http://www.w3.org/1999/xlink" overflow="hidden"><defs><clipPath id="clip0"><rect x="238" y="32" width="442" height="404"/></clipPath></defs><g clip-path="url(#clip0)" transform="translate(-238 -32)"><path d="M354.287 164.48 353.893 164.48C352.82 164.48 351.837 164.998 351.222 165.828 347.666 170.623 341.775 173.762 335.103 173.762 323.812 173.762 314.743 164.78 315.478 153.972 316.074 145.217 324.492 137.253 333.765 136.673 340.988 136.222 347.44 139.456 351.23 144.578 351.841 145.403 352.822 145.913 353.89 145.913L354.287 145.913C356.062 145.913 357.5 144.555 357.5 142.88L357.5 99.5001 239.5 99.5001C239.5 99.5001 239.5 165.837 239.5 167.513L239.5 210.893 285.453 210.893C287.228 210.893 288.666 212.251 288.666 213.926L288.666 214.199C288.666 215.206 288.125 216.132 287.251 216.71 281.825 220.287 278.399 226.38 278.878 233.2 279.493 241.954 287.931 249.9 297.205 250.461 308.653 251.153 318.167 242.592 318.167 231.935 318.167 225.637 314.842 220.075 309.762 216.718 308.883 216.138 308.334 215.209 308.334 214.196L308.334 213.926C308.334 212.251 309.773 210.893 311.547 210.893L357.5 210.893 357.5 167.513C357.5 165.839 356.061 164.48 354.287 164.48Z" stroke="#FFFFFF" stroke-miterlimit="8" fill="#ED7D31" fill-rule="evenodd"/><path d="M381.156 248.673C373.926 248.221 367.466 251.456 363.672 256.578 363.061 257.403 362.077 257.913 361.01 257.913L360.83 257.913C359.053 257.913 357.614 256.556 357.614 254.88L357.614 211.5 311.617 211.5C309.84 211.5 308.4 212.858 308.4 214.533L308.4 214.803C308.4 215.816 308.95 216.745 309.829 217.326 314.915 220.681 318.243 226.244 318.243 232.542 318.243 243.201 308.72 251.761 297.261 251.068 287.978 250.507 279.532 242.561 278.916 233.807 278.436 226.987 281.867 220.896 287.297 217.317 288.172 216.74 288.714 215.814 288.714 214.806L288.714 214.533C288.714 212.858 287.273 211.5 285.497 211.5L239.5 211.5 239.5 322.893 285.497 322.893C287.274 322.893 288.714 324.251 288.714 325.926L288.714 326.199C288.714 327.206 288.172 328.132 287.297 328.71 281.866 332.287 278.436 338.38 278.916 345.2 279.532 353.954 287.978 361.9 297.261 362.461 308.72 363.153 318.243 354.592 318.243 343.935 318.243 337.637 314.915 332.075 309.829 328.718 308.95 328.138 308.4 327.209 308.4 326.196L308.4 325.926C308.4 324.251 309.841 322.893 311.617 322.893L357.614 322.893 357.614 279.513C357.614 277.837 359.053 276.48 360.83 276.48L361.006 276.48C362.081 276.48 363.064 276.998 363.68 277.828 367.238 282.623 373.136 285.762 379.815 285.762 391.116 285.762 400.193 276.78 399.458 265.972 398.834 256.766 390.917 249.282 381.156 248.673Z" stroke="#FFFFFF" stroke-miterlimit="8" fill="#843C0C" fill-rule="evenodd"/><path d="M517.458 154.269C516.83 145.013 508.877 137.489 499.075 136.876 491.811 136.421 485.323 139.674 481.513 144.824 480.9 145.653 479.912 146.167 478.84 146.167L478.66 146.167C476.876 146.167 475.429 144.802 475.429 143.117L475.429 99.5001 356.791 99.5001 356.791 99.5001 356.791 143.117C356.791 144.802 355.345 146.167 353.561 146.167L353.161 146.167C352.088 146.167 351.101 145.653 350.487 144.824 346.677 139.674 340.189 136.421 332.928 136.875 323.604 137.458 315.139 145.465 314.542 154.268 313.804 165.136 322.921 174.166 334.273 174.166 340.981 174.166 346.904 171.01 350.479 166.189 351.098 165.353 352.087 164.834 353.165 164.834L353.561 164.834C355.344 164.834 356.791 166.2 356.791 167.883L356.791 211.5 356.791 211.5 356.974 211.5 356.974 211.394 403.175 211.394C404.96 211.394 406.406 210.029 406.406 208.344L406.406 208.073C406.406 207.054 405.854 206.121 404.97 205.538 399.863 202.163 396.52 196.571 396.52 190.238 396.52 179.521 406.085 170.914 417.595 171.611 426.919 172.175 435.402 180.164 436.021 188.966 436.503 195.823 433.058 201.948 427.601 205.547 426.723 206.126 426.179 207.058 426.179 208.071L426.179 208.345C426.179 210.03 427.625 211.395 429.411 211.395L475.428 211.395 475.428 167.884C475.428 166.2 476.874 164.835 478.658 164.835L478.835 164.835C479.915 164.835 480.904 165.356 481.521 166.19 485.096 171.012 491.019 174.168 497.727 174.168 509.079 174.168 518.197 165.137 517.458 154.269Z" stroke="#FFFFFF" stroke-miterlimit="8" fill="#A9D18E" fill-rule="evenodd"/><path d="M417.308 362.461C427.143 361.87 435.137 354.387 435.788 345.164 436.271 338.33 432.815 332.225 427.344 328.64 426.462 328.064 425.917 327.134 425.917 326.125L425.917 325.956C425.917 324.278 427.367 322.916 429.157 322.916L475.5 322.916 475.5 211.291 475.5 211.291 429.157 211.291C427.367 211.291 425.917 209.931 425.917 208.252L425.917 207.876C425.917 206.866 426.462 205.938 427.344 205.36 432.815 201.775 436.271 195.67 435.79 188.838 435.17 180.066 426.662 172.102 417.309 171.539 405.762 170.845 396.167 179.423 396.167 190.104 396.167 196.415 399.52 201.988 404.643 205.352 405.531 205.934 406.083 206.865 406.083 207.879L406.083 208.252C406.083 209.93 404.632 211.291 402.843 211.291L356.5 211.291 356.5 211.291 356.5 211.463 356.613 211.463 356.613 254.933C356.613 256.613 358.063 257.973 359.853 257.973L360.141 257.973C361.224 257.973 362.216 257.454 362.835 256.622 366.421 251.817 372.362 248.671 379.091 248.671 390.477 248.671 399.622 257.671 398.882 268.5 398.283 277.274 389.794 285.255 380.442 285.838 373.157 286.291 366.649 283.05 362.826 277.916 362.21 277.089 361.22 276.577 360.143 276.577L359.852 276.577C358.062 276.577 356.612 277.938 356.612 279.618L356.612 322.915 402.842 322.915C404.632 322.915 406.082 324.275 406.082 325.954L406.082 326.121C406.082 327.136 405.529 328.067 404.642 328.648 399.519 332.011 396.166 337.584 396.166 343.896 396.166 354.577 405.761 363.156 417.308 362.461Z" stroke="#FFFFFF" stroke-miterlimit="8" fill="#FFD966" fill-rule="evenodd"/><path d="M308.353 325.55 308.353 325.924C308.353 326.942 308.902 327.875 309.781 328.459 314.862 331.834 318.188 337.426 318.188 343.758 318.188 354.475 308.671 363.083 297.219 362.385 287.942 361.82 279.503 353.83 278.888 345.028 278.41 338.172 281.838 332.049 287.264 328.451 288.139 327.872 288.68 326.94 288.68 325.927L288.68 325.55C288.68 323.865 287.24 322.5 285.466 322.5L239.5 322.5 239.5 434.5C239.5 434.5 309.791 434.5 311.567 434.5L357.532 434.5 357.532 390.884C357.532 389.199 358.971 387.834 360.746 387.834L361.035 387.834C362.102 387.834 363.084 388.347 363.696 389.177 367.487 394.327 373.943 397.579 381.169 397.125 390.445 396.541 398.864 388.532 399.459 379.729 400.192 368.863 391.121 359.833 379.828 359.833 373.155 359.833 367.262 362.989 363.705 367.811 363.089 368.645 362.106 369.166 361.032 369.166L360.746 369.166C358.971 369.166 357.532 367.8 357.532 366.116L357.532 322.5 311.567 322.5C309.792 322.5 308.353 323.866 308.353 325.55Z" stroke="#FFFFFF" stroke-miterlimit="8" fill="#2E75B6" fill-rule="evenodd"/><path d="M556.668 148.687 556.902 148.396C557.538 147.603 557.691 146.532 557.368 145.525 555.5 139.704 556.391 133.26 560.348 128.329 567.046 119.984 579.876 119.261 588.404 126.999 595.313 133.268 596.926 144.792 591.906 152.031 587.996 157.67 581.486 160.285 574.99 159.677 573.943 159.579 572.938 159.965 572.304 160.754L572.069 161.047C571.016 162.359 571.29 164.327 572.679 165.441L608.661 194.32 678.655 107.109C678.655 107.109 623.631 62.9466 622.241 61.8311L586.258 32.9523 559 66.9153C557.948 68.2271 555.968 68.3862 554.578 67.2708L554.352 67.0891C553.517 66.419 553.07 65.4027 553.109 64.3721 553.36 57.9799 550.339 51.3915 544.398 47.2053 536.771 41.8323 525.176 42.7791 519.209 49.2601 511.844 57.2605 513.302 69.9906 522.142 77.0854 527.366 81.2784 533.951 82.5233 539.749 81.0032 540.752 80.7404 541.848 80.9529 542.688 81.6275L542.912 81.8069C544.302 82.9224 544.574 84.89 543.522 86.201L516.264 120.164 552.246 149.043C553.635 150.157 555.616 149.998 556.668 148.687Z" stroke="#FFFFFF" stroke-miterlimit="8" fill="#E2F0D9" fill-rule="evenodd"/><path d="M450.844 285.327C458.074 285.779 464.535 282.544 468.328 277.422 468.94 276.597 469.923 276.087 470.99 276.087L471.17 276.087C472.947 276.087 474.386 277.445 474.386 279.12L474.386 322.5 520.383 322.5C522.16 322.5 523.6 321.142 523.6 319.467L523.6 319.197C523.6 318.184 523.05 317.255 522.171 316.675 517.086 313.319 513.757 307.757 513.757 301.458 513.757 290.8 523.28 282.239 534.739 282.932 544.023 283.493 552.468 291.439 553.084 300.193 553.564 307.013 550.133 313.104 544.703 316.683 543.828 317.26 543.286 318.186 543.286 319.194L543.286 319.467C543.286 321.142 544.727 322.5 546.503 322.5L592.5 322.5 592.5 211.107 546.503 211.107C544.726 211.107 543.286 209.75 543.286 208.074L543.286 207.801C543.286 206.794 543.828 205.868 544.703 205.29 550.134 201.713 553.564 195.62 553.084 188.8 552.468 180.046 544.023 172.1 534.739 171.539 523.28 170.847 513.757 179.408 513.757 190.065 513.757 196.364 517.086 201.925 522.171 205.282 523.05 205.863 523.6 206.791 523.6 207.804L523.6 208.074C523.6 209.75 522.159 211.107 520.383 211.107L474.386 211.107 474.386 254.487C474.386 256.163 472.947 257.52 471.17 257.52L470.994 257.52C469.919 257.52 468.936 257.002 468.32 256.173 464.762 251.377 458.864 248.238 452.185 248.238 440.884 248.238 431.807 257.22 432.542 268.028 433.166 277.234 441.083 284.718 450.844 285.327Z" stroke="#FFFFFF" stroke-miterlimit="8" fill="#C5E0B4" fill-rule="evenodd"/><path d="M477.713 369.52 478.107 369.52C479.18 369.52 480.163 369.002 480.778 368.173 484.334 363.377 490.225 360.238 496.897 360.238 508.188 360.238 517.257 369.22 516.522 380.028 515.926 388.783 507.509 396.748 498.235 397.327 491.012 397.778 484.56 394.544 480.77 389.422 480.159 388.597 479.178 388.087 478.111 388.087L477.713 388.087C475.938 388.087 474.5 389.446 474.5 391.12L474.5 434.5 592.5 434.5C592.5 434.5 592.5 368.163 592.5 366.487L592.5 323.107 546.547 323.107C544.772 323.107 543.334 321.75 543.334 320.074L543.334 319.801C543.334 318.794 543.875 317.868 544.749 317.29 550.175 313.713 553.601 307.62 553.122 300.8 552.507 292.046 544.069 284.1 534.795 283.539 523.347 282.847 513.833 291.408 513.833 302.065 513.833 308.364 517.158 313.925 522.239 317.282 523.117 317.863 523.666 318.791 523.666 319.804L523.666 320.074C523.666 321.75 522.227 323.107 520.453 323.107L474.5 323.107 474.5 366.487C474.5 368.162 475.939 369.52 477.713 369.52Z" stroke="#FFFFFF" stroke-miterlimit="8" fill="#BDD7EE" fill-rule="evenodd"/><path d="M396.135 300.927C395.652 307.796 399.102 313.933 404.563 317.537 405.443 318.118 405.987 319.052 405.987 320.066L405.987 320.236C405.987 321.924 404.539 323.292 402.753 323.292L356.5 323.292 356.5 366.989C356.5 368.677 357.948 370.045 359.734 370.045L360.021 370.045C361.102 370.045 362.092 369.523 362.711 368.687 366.289 363.856 372.22 360.695 378.935 360.695 390.3 360.695 399.427 369.741 398.688 380.627 398.09 389.447 389.618 397.47 380.285 398.055 373.013 398.511 366.518 395.251 362.702 390.093 362.087 389.261 361.1 388.747 360.025 388.747L359.734 388.747C357.948 388.747 356.5 390.116 356.5 391.803L356.5 435.5 475.27 435.5 475.27 391.803C475.27 390.115 476.717 388.747 478.504 388.747L478.795 388.747C479.868 388.747 480.856 389.261 481.472 390.093 485.286 395.252 491.783 398.511 499.054 398.055 508.388 397.47 516.86 389.447 517.458 380.627 518.196 369.741 509.069 360.695 497.706 360.695 490.99 360.695 485.06 363.856 481.481 368.687 480.862 369.523 479.872 370.045 478.791 370.045L478.504 370.045C476.717 370.045 475.27 368.676 475.27 366.989L475.27 323.292 429.017 323.292C427.231 323.292 425.783 321.924 425.783 320.236L425.783 320.069C425.783 319.048 426.336 318.114 427.22 317.529 432.333 314.149 435.68 308.546 435.68 302.201 435.68 291.465 426.103 282.841 414.579 283.54 404.763 284.133 396.784 291.654 396.135 300.927Z" stroke="#FFFFFF" stroke-miterlimit="8" fill="#8FAADC" fill-rule="evenodd"/></g></svg>